<svg xmlns="http://www.w3.org/2000/svg" width="80" height="16" viewBox="0 0 80 16"><path fill="none" d="M0 0h16v16H0z"/><path fill="#CDCECF" d="M12.1 14L11 9.3l3.7-3.1-4.8-.4L8 1.3 6.1 5.8l-4.8.4L5 9.3 3.9 14 8 11.5z"/><path fill="none" d="M16 0h16v16H16z"/><path fill="#CDCECF" d="M28.1 14L27 9.3l3.7-3.1-4.8-.4L24 1.3l-1.9 4.5-4.8.4L21 9.3 19.9 14l4.1-2.5z"/><path fill="none" d="M32.2 0h16v16h-16z"/><path fill="#CDCECF" d="M44.3 14l-1.1-4.7 3.6-3.1-4.8-.4-1.8-4.5-1.9 4.5-4.8.4 3.6 3.1L36 14l4.2-2.5z"/><path fill="none" d="M48.2 0h16v16h-16z"/><path fill="#CDCECF" d="M60.3 14l-1.1-4.7 3.6-3.1-4.8-.4-1.8-4.5-1.9 4.5-4.8.4 3.6 3.1L52 14l4.2-2.5z"/><path fill="none" d="M64 0h16v16H64z"/><path fill="#CDCECF" d="M76.1 14L75 9.3l3.7-3.1-4.8-.4L72 1.3l-1.9 4.5-4.8.4L69 9.3 67.9 14l4.1-2.5z"/></svg>