<svg width="94" height="68" viewBox="0 0 94 68" xmlns="http://www.w3.org/2000/svg"><g fill="#FFF" fill-rule="evenodd"><g opacity=".6" fill-rule="nonzero"><path d="M18.341 52.644c-1.207-.458-2.527-.376-3.717.229a5.21 5.21 0 00-2.497 2.818c-.986 2.605.196 5.476 2.635 6.4a4.473 4.473 0 001.589.292c.721 0 1.446-.175 2.128-.522a5.21 5.21 0 002.496-2.818c.987-2.604-.195-5.475-2.634-6.4zm-.194 5.328c-.2.531-.57.955-1.04 1.194-.42.214-.873.249-1.274.097-.88-.334-1.273-1.456-.877-2.5.2-.532.57-.956 1.04-1.195.247-.126.507-.19.76-.19.176 0 .349.031.514.094.88.333 1.273 1.455.877 2.5zm58.449-5.328c-2.439-.924-5.227.442-6.214 3.047-.986 2.605.196 5.475 2.635 6.4a4.473 4.473 0 001.589.292c.721 0 1.446-.175 2.128-.522a5.21 5.21 0 002.496-2.818c.987-2.604-.195-5.475-2.634-6.4zm-.194 5.328c-.201.531-.57.955-1.04 1.194-.42.214-.873.249-1.274.097-.88-.334-1.273-1.456-.878-2.5.32-.845 1.06-1.386 1.797-1.386.174 0 .349.03.517.095.88.333 1.274 1.455.878 2.5z"/><path d="M92.26 31.285a1154.638 1154.638 0 01-6.989-7.994c-.741-.855-1.846-1.346-3.033-1.348l-12.71-.017c.387-2.391.76-4.771 1.103-7.102a3.318 3.318 0 00-.754-2.65c-.619-.713-1.537-1.122-2.52-1.122-10.584-.004-16.232-.007-25.2-.013l-5.71-.004a1.512 1.512 0 00-.001 3.024l5.71.004c8.968.006 14.615.01 25.2.013.107 0 .191.028.236.08.056.065.055.167.046.234-.734 4.99-1.608 10.224-2.462 15.315-1.246 7.348-2.52 14.884-3.482 22.234l-.012.09-1.406-.001h-1.781l-2.29-.003h-1.408l-2.66-.004-1.048-.001-3.099-.005-.632-.001L40.096 52h-.309l-7.504-.017-7.655-.017a8.786 8.786 0 00-3.075-3.225l-.121-.075a9.05 9.05 0 00-.385-.214l-.18-.092a8.009 8.009 0 00-.235-.11c-.048-.023-.096-.046-.145-.067a8.649 8.649 0 00-.808-.306c-.075-.024-.152-.045-.228-.068-.06-.017-.12-.036-.179-.052a8.244 8.244 0 00-.317-.077l-.084-.02a8.575 8.575 0 00-.382-.074c-.004 0-.008 0-.012-.002a8.763 8.763 0 00-4.141.302l-.011.004A9.21 9.21 0 0014 48l-.125.045a8.787 8.787 0 00-.252.1l-.106.041-.103.046a11.289 11.289 0 00-.453.211l-.071.034-.018.01a9.57 9.57 0 00-.367.198l-.15.088a10.152 10.152 0 00-.52.33 10.268 10.268 0 00-2.808 2.84l-1.598-.002-3.576-.005 1.295-8a1.512 1.512 0 10-2.985-.482l-1.58 9.752v.01l-.003.012-.302 2.057a3.893 3.893 0 003.851 4.462l3.26.001c.117.63.293 1.25.53 1.85.954 2.415 2.762 4.231 5.092 5.114a8.55 8.55 0 003.039.556c3.848 0 7.585-2.558 9.13-6.633.109-.288.204-.579.287-.87 10.658.011 22.5.027 32.898.04l4.092.006h.004c.974-.001 1.95.002 2.926.004h.27c.117.607.289 1.204.517 1.782.953 2.416 2.761 4.232 5.092 5.115a8.61 8.61 0 003.058.561 9.127 9.127 0 004.144-1.018c2.266-1.153 4.03-3.149 4.967-5.62a11 11 0 00.266-.799h.081l1.803.002c2.14 0 4.07-1.64 4.395-3.733 1.117-7.268 2.286-14.928 3.208-21.667.157-1.158-.18-2.308-.927-3.154zM7.627 55.002c-.018.06-.032.121-.048.182-.024.089-.048.178-.069.268a9.297 9.297 0 00-.05.228c-.015.072-.031.143-.045.215-.018.095-.034.19-.05.286-.008.05-.017.098-.024.148a10.55 10.55 0 00-.046.352l-.006.044-3.158-.002a.86.86 0 01-.658-.3.863.863 0 01-.202-.698l.112-.763 4.042.003h.21l-.008.037zm15.135 3.014c0 .008 0 .017-.002.025a7.848 7.848 0 01-.408 1.524c-1.361 3.593-5.07 5.532-8.269 4.32-1.524-.577-2.713-1.784-3.35-3.397a7.027 7.027 0 01-.479-2.252c0-.02.002-.038 0-.057-.014-.382 0-.762.043-1.14v-.007a7.396 7.396 0 01.112-.682l.022-.106c.019-.082.039-.163.06-.243l.031-.124c.022-.08.047-.16.072-.24l.035-.116a7.773 7.773 0 01.576-1.336l.019-.033c1.401-2.534 4.066-3.938 6.577-3.607.05.007.1.012.15.02.064.01.127.023.19.035.122.025.244.051.365.084l.086.025a5.59 5.59 0 01.704.253c.056.025.112.053.167.08.032.015.065.029.096.045.076.038.151.08.226.121l.027.015c1.089.624 1.956 1.61 2.486 2.849.52 1.214.68 2.578.464 3.944zm38.344-1.23l-2.736-.003c-10.263-.014-21.939-.03-32.488-.041a10.208 10.208 0 00-.166-1.75l6.561.015c4.474.01 9.016.02 13.58.028l1.097.003 2.116.003 1.785.003 1.646.002 2.267.003h1.345l2.51.003h1.207l1.475.001c-.069.58-.135 1.157-.199 1.733zm19.902 1.29l-.002.018a7.863 7.863 0 01-.399 1.47c-.668 1.767-1.915 3.186-3.509 3.997-1.546.786-3.236.901-4.76.324-1.523-.577-2.713-1.784-3.35-3.397a7.022 7.022 0 01-.477-2.22v-.033a7.493 7.493 0 01.035-1.144l.007-.057a7.244 7.244 0 01.103-.647l.03-.141a7.42 7.42 0 01.052-.218l.038-.147c.021-.076.045-.152.068-.229l.04-.128c.038-.119.08-.237.124-.354.669-1.766 1.915-3.186 3.51-3.996.104-.054.21-.104.316-.151l.104-.044c.072-.03.145-.06.218-.088.04-.016.081-.03.122-.045a6.416 6.416 0 01.537-.166l.124-.031c.073-.018.146-.033.22-.048l.108-.021c.097-.018.194-.033.292-.045l.037-.006a5.75 5.75 0 01.331-.03l.09-.004c.08-.003.16-.006.24-.007h.084c.15.002.3.008.448.021h.012c.151.015.301.036.45.062l.081.014c.144.027.287.06.43.099l.077.022a5.658 5.658 0 01.699.25l.156.073.086.041c2.378 1.189 3.72 4.04 3.228 7.006zm9.185-24.045c-.92 6.715-2.086 14.36-3.201 21.614-.095.612-.765 1.17-1.406 1.17l-1.448-.001a10.075 10.075 0 00-.698-3.678c-.853-2.161-2.392-3.84-4.375-4.803a8.786 8.786 0 00-.176-.083l-.165-.074a8.546 8.546 0 00-.376-.154c-2.039-.773-4.252-.745-6.324.063-.296.115-.59.246-.878.394-2.267 1.152-4.03 3.148-4.967 5.62-.074.195-.14.39-.202.588l-.052.172c-.047.16-.091.32-.131.48l-.033.127c-.046.199-.087.399-.122.6-.008.041-.014.083-.02.125-.03.184-.056.367-.076.55-.002.018-.006.034-.007.051h-.143l-1.243-.002c.118-1.026.242-2.061.311-2.638l.074-.6c.937-7.33 2.234-15.059 3.489-22.536l.126-.753.043-.253c.288-1.702.575-3.39.854-5.06l13.188.018c.315 0 .582.108.751.305 2.495 2.877 4.787 5.499 7.008 8.014.167.189.238.454.199.744z"/><path d="M87.449 34.068a1097.66 1097.66 0 01-5.36-6.153 2.543 2.543 0 00-1.927-.865l-7.2-.01h-.002c-1.38 0-2.632 1.06-2.851 2.413l-.217 1.334c-.491 3.013-.998 6.129-1.482 9.197a2.5 2.5 0 00.556 2.018 2.552 2.552 0 001.95.878l13.635.01h.002c1.402 0 2.655-1.071 2.854-2.44.254-1.747.38-2.62.63-4.365a2.511 2.511 0 00-.588-2.017zm-3.013 5.798l-12.944-.01c.454-2.867.927-5.77 1.385-8.583l.196-1.209 6.885.01c1.639 1.895 3.337 3.844 5.054 5.801-.222 1.552-.347 2.418-.576 3.991z"/></g><text font-family="PTSans-Bold, PT Sans" font-size="40" font-weight="bold"><tspan x="9" y="41">0</tspan> <tspan x="31.68" y="41" font-size="24">£</tspan></text></g></svg>