<svg width="100" height="100" viewBox="0 0 100 100" xmlns="http://www.w3.org/2000/svg"><g fill="none"><path d="M100 51.667v-50C100 .747 99.254 0 98.334 0H21.667C20.747 0 20 .746 20 1.667V20H1.667C.747 20 0 20.746 0 21.667v50c0 .92.746 1.666 1.667 1.666H15c.127-.01.252-.035.374-.075l9.735 25.667a1.666 1.666 0 002.15.966l.016-.006 71.667-28.333a1.667 1.667 0 00.94-2.162l-.002-.005-6.303-16.052h4.757c.92 0 1.666-.746 1.666-1.666zM3.334 70V23.333h71.888l-8.958 3.334H8.334c-.92 0-1.667.746-1.667 1.666V65c0 .92.746 1.667 1.667 1.667h4.54L14.137 70H3.334zm75-50H30V10h60v33.333h-.351l-8.097-20.61A1.667 1.667 0 0080 21.678v-.011c0-.92-.746-1.667-1.666-1.667zM21.556 33.507A6.625 6.625 0 0020 33.333a6.648 6.648 0 00-3.941 12.015L10 47.602V30h47.305L26.5 41.465a6.625 6.625 0 00-4.944-7.958zM23.334 40a3.333 3.333 0 11-6.667 0 3.333 3.333 0 016.667 0zM11.609 63.333H10v-4.24l1.609 4.24zm84.566 5.729l-68.55 27.105-17.138-45.19 68.56-25.51 17.128 43.595zM96.667 50h-4.4l-1.31-3.333h.71c.92 0 1.667-.747 1.667-1.667V8.333c0-.92-.747-1.666-1.667-1.666H28.334c-.92 0-1.667.746-1.667 1.666V20h-3.333V3.333h73.333V50z" fill="#404142"/><path d="M91.559 66.073l-1.59-4.166a1.63 1.63 0 00-.559-1.465L78.225 31.073a1.666 1.666 0 00-2.15-.966l-.016.006-60 23.334a1.667 1.667 0 00-.955 2.146l13.333 35a1.666 1.666 0 002.167.96l60-23.333a1.667 1.667 0 00.955-2.147zm-57.88-5.422a1.666 1.666 0 00-.342.912l-1.623 25.984-.754.291-12.146-31.885 56.893-22.12 9.177 24.084-17.427-9.384A1.667 1.667 0 0065 50v3.552L52.592 45.28a1.667 1.667 0 00-2.577 1.167l-2.983 22.371-11.015-8.471a1.667 1.667 0 00-2.337.304zm1.456 25.562l1.334-21.316 17.958 13.816-19.292 7.5zm22.83-8.876a1.568 1.568 0 00-.281-.324l-7.602-5.846 2.883-21.63 12.777 8.518a1.667 1.667 0 002.592-1.388V52.79l18.363 9.888 1.157 3.035-29.889 11.624z" fill="#1782E9"/></g></svg>