<svg width="96" height="96" viewBox="0 0 96 96" xmlns="http://www.w3.org/2000/svg"><g fill="none"><path d="M90.334 24.82H78.29L53.444 4.06A5.817 5.817 0 0047.906 0a5.817 5.817 0 00-5.537 4.06L17.522 24.82H5.666a5.626 5.626 0 00-5.62 5.62v59.94c0 3.1 2.522 5.62 5.62 5.62h84.668c3.098 0 5.62-2.52 5.62-5.62V30.44c0-3.1-2.522-5.62-5.62-5.62zM47.906 3.746c1.137 0 2.061.925 2.061 2.06a2.062 2.062 0 01-2.06 2.061 2.063 2.063 0 01-2.06-2.06 2.06 2.06 0 012.06-2.06zm-5.102 4.831a5.811 5.811 0 005.102 3.037c2.2 0 4.118-1.23 5.103-3.037l19.44 16.243H23.364l19.44-16.243zm49.403 81.804c0 1.033-.84 1.873-1.873 1.873H5.666a1.875 1.875 0 01-1.873-1.873V30.439c0-1.033.84-1.873 1.873-1.873h84.668c1.032 0 1.873.84 1.873 1.873v59.942z" fill="#404142"/><path d="M87.524 32.876a.372.372 0 01.373.373h0v54.322a.372.372 0 01-.373.373h0H8.476a.372.372 0 01-.373-.373h0V66.172a.378.378 0 010-.494h0V33.25c0-.103.042-.196.11-.264h0z" stroke="#404142" stroke-width="3" fill="#FFF"/><path d="M60.008 67.004a.75.75 0 00-.57-.235h-4.016a.75.75 0 00-.57.235.785.785 0 00-.224.558v4.488H44.364v-9.397h7.562c.215 0 .4-.078.558-.235a.762.762 0 00.235-.558v-3.248a.75.75 0 00-.235-.57.785.785 0 00-.558-.224h-7.562v-5.33c0-1.256.43-2.272 1.29-3.05.859-.777 1.991-1.165 3.396-1.165.744 0 1.512.15 2.306.447.793.297 1.363.561 1.71.793.348.231.563.389.645.471a.665.665 0 00.57.174.761.761 0 00.546-.298l2.553-3.15a.763.763 0 00.174-.557.733.733 0 00-.248-.508c-2.479-2.066-5.248-3.1-8.306-3.1-3.156 0-5.756.918-7.797 2.753-2.041 1.835-3.062 4.165-3.062 6.991v5.53h-2.355a.774.774 0 00-.57.222.771.771 0 00-.224.57v3.248c0 .215.075.4.224.558a.75.75 0 00.57.235h2.355v9.496h-2.405c-.215 0-.4.078-.558.235a.763.763 0 00-.235.558v3.72c0 .23.074.42.223.57a.774.774 0 00.57.222h23.702a.772.772 0 00.57-.222.773.773 0 00.223-.57v-9.1a.78.78 0 00-.223-.557z" fill="#F44436"/></g></svg>