<svg width="121" height="93" viewBox="0 0 121 93" xmlns="http://www.w3.org/2000/svg"><g fill="none"><path d="M30.132 38.595l-4.09-4.039-.065-10.123a1.758 1.758 0 00-1.758-1.746h-.012a1.758 1.758 0 00-1.746 1.77l.07 10.85c.004.466.192.912.523 1.24l4.607 4.549c.343.338.789.507 1.235.507a1.758 1.758 0 001.235-3.008z" fill="#1782E9"/><path d="M77.501 52.166l-.007-.044a1.679 1.679 0 00-.024-.143l-.013-.049a1.749 1.749 0 00-.037-.131l-.019-.052a1.815 1.815 0 00-.05-.12c-.007-.018-.016-.036-.025-.054a1.836 1.836 0 00-.163-.265l-.037-.05a1.793 1.793 0 00-.09-.102c-.011-.012-.02-.024-.032-.035a1.707 1.707 0 00-.138-.126l-.002-.002-10.714-8.735a1.758 1.758 0 10-2.222 2.724l6.888 5.616h-22.77a1.757 1.757 0 10.001 3.515h22.77l-6.888 5.616a1.758 1.758 0 102.221 2.724l10.715-8.735.002-.002c.048-.04.094-.081.137-.125l.032-.035c.031-.033.062-.067.09-.103l.037-.05a1.775 1.775 0 00.189-.318c.018-.04.034-.08.05-.12.005-.018.012-.035.018-.052.014-.043.026-.087.037-.131.005-.017.01-.033.013-.05.01-.046.018-.094.024-.142l.007-.044a1.758 1.758 0 000-.38z" fill="#404142"/><path d="M41.382 18.038a24.65 24.65 0 00-2.591-2.232l2.504-3.035a1.758 1.758 0 10-2.712-2.237l-2.776 3.365a24.082 24.082 0 00-9.76-2.83V9.484h3.536a3.263 3.263 0 003.259-3.26V3.447a3.263 3.263 0 00-3.26-3.259H18.855a3.263 3.263 0 00-3.259 3.26v2.778a3.263 3.263 0 003.26 3.259h3.677v1.586a24.09 24.09 0 00-9.858 2.882l-2.82-3.418a1.758 1.758 0 10-2.712 2.237l2.558 3.1a24.65 24.65 0 00-2.668 2.332A24.13 24.13 0 000 35.413a24.132 24.132 0 007.197 17.14c4.581 4.537 10.645 7.032 17.088 7.032h.12a24.132 24.132 0 0017.142-7.197 24.13 24.13 0 007.032-17.209 24.133 24.133 0 00-7.197-17.14zM19.111 5.968V3.703h10.215v2.265H19.111zm19.938 43.946a20.638 20.638 0 01-14.66 6.155h-.103a20.637 20.637 0 01-14.615-6.014 20.639 20.639 0 01-6.155-14.66A20.64 20.64 0 019.53 20.677a20.638 20.638 0 0114.66-6.155h.102c5.51 0 10.698 2.133 14.616 6.014a20.638 20.638 0 016.155 14.66 20.64 20.64 0 01-6.014 14.718z" fill="#1782E9"/><path d="M24.29 16.648h-.09a18.529 18.529 0 00-13.16 5.526 18.526 18.526 0 00-5.398 13.211 18.527 18.527 0 005.525 13.16 18.524 18.524 0 0013.12 5.398h.092a18.528 18.528 0 0013.16-5.525 18.525 18.525 0 005.398-13.212c-.05-10.251-8.406-18.558-18.647-18.558zm10.75 29.296a15.034 15.034 0 01-10.678 4.483h-.075a15.033 15.033 0 01-10.646-4.38 15.033 15.033 0 01-4.483-10.679 15.034 15.034 0 014.38-10.72 15.034 15.034 0 0110.679-4.484h.073c8.31 0 15.09 6.74 15.131 15.059a15.033 15.033 0 01-4.38 10.72z" fill="#1782E9"/><path d="M32.947 75.148c-1.404-.532-2.938-.437-4.322.267-1.326.675-2.357 1.838-2.902 3.276-1.147 3.028.227 6.365 3.062 7.44a5.2 5.2 0 001.848.34 5.45 5.45 0 002.474-.607c1.326-.675 2.357-1.839 2.902-3.276 1.147-3.028-.227-6.365-3.062-7.44zm-.226 6.194c-.234.618-.663 1.11-1.208 1.388-.49.25-1.016.29-1.482.113-1.022-.388-1.48-1.692-1.02-2.907.234-.617.663-1.11 1.209-1.388.288-.147.59-.22.883-.22.205 0 .407.035.598.108 1.023.387 1.48 1.691 1.02 2.906zm67.947-6.194c-2.835-1.074-6.076.515-7.223 3.543-1.147 3.028.226 6.365 3.062 7.44a5.2 5.2 0 001.847.34c.84 0 1.681-.204 2.474-.607 1.327-.675 2.358-1.839 2.902-3.277 1.147-3.027-.226-6.365-3.062-7.439zm-.225 6.194c-.234.618-.664 1.11-1.21 1.388-.488.25-1.014.29-1.48.113-1.023-.388-1.48-1.692-1.02-2.907.371-.982 1.231-1.61 2.087-1.61.203 0 .406.035.602.11 1.023.387 1.48 1.691 1.02 2.906z" fill="#404142"/><path d="M118.878 50.32v-.001a1342.27 1342.27 0 01-8.126-9.293c-.86-.994-2.146-1.565-3.525-1.567l-14.775-.02c.449-2.78.882-5.547 1.281-8.256.161-1.13-.158-2.252-.876-3.08-.72-.83-1.787-1.305-2.93-1.306-12.304-.003-18.869-.007-29.294-.014l-6.637-.005h-.002a1.758 1.758 0 000 3.516l6.636.004c10.426.007 16.991.011 29.296.015.125 0 .223.033.275.093.065.076.064.194.053.273-.853 5.801-1.869 11.884-2.862 17.803-1.449 8.542-2.93 17.303-4.048 25.847l-.014.104h-1.634l-2.07-.001-2.662-.002-1.637-.002-3.094-.004-1.217-.001-3.602-.006-.735-.001-8.443-.016h-.358l-8.724-.02-8.9-.02a10.214 10.214 0 00-3.574-3.75l-.14-.085a10.522 10.522 0 00-.93-.485c-.056-.026-.112-.053-.169-.077a10.054 10.054 0 00-.939-.356c-.088-.028-.177-.053-.265-.079l-.208-.06a9.583 9.583 0 00-.369-.09l-.097-.023a9.969 9.969 0 00-.445-.086l-.014-.002a10.187 10.187 0 00-4.814.35l-.012.005c-.127.04-.253.084-.378.13l-.146.052a14.74 14.74 0 00-.292.115l-.124.049-.12.053a13.124 13.124 0 00-.526.246c-.027.013-.055.025-.082.04l-.022.01c-.143.074-.285.15-.426.23l-.174.103a11.801 11.801 0 00-.605.382 11.936 11.936 0 00-3.264 3.302l-1.858-.002-4.157-.005 1.506-9.3a1.758 1.758 0 10-3.47-.561l-1.836 11.337-.002.013-.002.013-.352 2.391a4.526 4.526 0 004.477 5.187l3.79.001c.136.733.34 1.453.616 2.15 1.108 2.808 3.21 4.92 5.92 5.946a9.942 9.942 0 003.532.646c4.474 0 8.818-2.973 10.613-7.71.127-.335.238-.673.335-1.013 12.39.014 26.157.033 38.243.048l4.758.007h.004c1.132-.002 2.268.002 3.401.004h.315c.136.706.335 1.4.6 2.072 1.109 2.808 3.21 4.92 5.92 5.946 1.15.436 2.35.652 3.554.652 1.63 0 3.271-.396 4.818-1.183 2.635-1.34 4.685-3.66 5.774-6.534.116-.307.218-.617.309-.928h.095l2.096.002c2.488 0 4.731-1.906 5.108-4.34 1.3-8.449 2.658-17.353 3.73-25.188.183-1.346-.21-2.682-1.078-3.666zM20.49 77.89c-.02.07-.037.14-.056.211-.027.104-.055.207-.08.312l-.058.265c-.018.083-.036.166-.052.25-.021.11-.04.222-.058.333-.01.057-.02.114-.028.171-.02.137-.038.273-.054.41l-.007.05-3.67-.001a1 1 0 01-.766-.35 1.003 1.003 0 01-.235-.81l.13-.888 4.7.004h.245l-.011.043zm17.595 3.504c-.001.01-.001.02-.003.029a9.123 9.123 0 01-.473 1.771c-1.583 4.177-5.895 6.431-9.614 5.022-1.771-.67-3.154-2.073-3.894-3.948a8.17 8.17 0 01-.557-2.619c0-.022.002-.044.001-.066-.017-.444 0-.886.05-1.325v-.008a8.597 8.597 0 01.13-.794l.025-.123a7.25 7.25 0 01.07-.282l.036-.144c.026-.093.054-.186.083-.279l.042-.135a9.036 9.036 0 01.67-1.553l.02-.038c1.63-2.946 4.728-4.578 7.647-4.194.058.008.116.014.174.024a6.638 6.638 0 01.645.138c.034.009.067.02.1.03a6.498 6.498 0 01.818.294c.066.029.13.06.195.092.037.017.075.034.111.053.09.044.176.092.263.14.01.007.021.012.032.018 1.265.725 2.273 1.872 2.89 3.312.603 1.41.79 2.996.54 4.585zm44.575-1.43l-3.18-.004c-11.932-.016-25.505-.034-37.769-.048a11.866 11.866 0 00-.193-2.033l7.628.017c5.2.011 10.481.023 15.786.033l1.276.002 2.46.004 2.075.003 1.913.003 2.636.003 1.564.001 2.916.003h1.404l1.715.001c-.08.674-.157 1.345-.231 2.015zm23.136 1.5l-.003.02a9.14 9.14 0 01-.463 1.71c-.778 2.053-2.227 3.703-4.08 4.645-1.797.914-3.761 1.048-5.533.377-1.771-.67-3.154-2.073-3.894-3.949a8.163 8.163 0 01-.555-2.581v-.038a8.71 8.71 0 01.04-1.33l.008-.066a8.421 8.421 0 01.12-.752l.035-.164c.019-.085.04-.169.061-.253l.044-.171c.025-.089.052-.177.08-.266l.045-.15c.045-.137.092-.275.144-.411.778-2.053 2.227-3.703 4.08-4.646.122-.062.245-.12.369-.175.04-.018.08-.033.12-.05.085-.036.169-.071.254-.104.047-.018.094-.034.142-.051a7.46 7.46 0 01.623-.193l.144-.037a7.85 7.85 0 01.257-.055l.126-.025a6.41 6.41 0 01.338-.052l.044-.007c.128-.015.257-.027.385-.035l.104-.004c.093-.005.186-.008.279-.009l.097.001c.175.002.348.008.522.024h.014c.175.017.35.042.523.072l.094.016c.167.032.334.07.499.115l.09.026a6.577 6.577 0 01.812.29l.182.085.1.048c2.764 1.382 4.325 4.697 3.753 8.144zm10.677-27.953c-1.07 7.806-2.424 16.694-3.721 25.127-.11.711-.89 1.36-1.634 1.36l-1.684-.002a11.713 11.713 0 00-.811-4.275c-.992-2.513-2.78-4.465-5.086-5.584a10.216 10.216 0 00-.205-.097l-.191-.086a9.936 9.936 0 00-.437-.179c-2.37-.898-4.944-.866-7.352.073-.344.135-.685.287-1.021.458-2.635 1.34-4.685 3.66-5.774 6.534a12.72 12.72 0 00-.234.684c-.022.066-.041.133-.061.2-.055.185-.106.37-.153.558-.012.049-.026.098-.037.147-.055.231-.102.464-.143.697-.009.048-.016.097-.024.146-.035.213-.064.427-.088.64l-.008.059h-.166l-1.444-.002c.136-1.193.28-2.397.36-3.067l.087-.697c1.089-8.521 2.596-17.506 4.055-26.2.05-.29.098-.583.147-.875l.05-.293c.336-1.979.668-3.942.993-5.882l15.331.02c.366 0 .676.126.874.354a1329.4 1329.4 0 008.146 9.317c.195.22.276.528.23.865z" fill="#404142"/><path d="M113.284 53.554c-2.118-2.414-4.215-4.82-6.23-7.153a2.956 2.956 0 00-2.24-1.006l-8.37-.011h-.003c-1.604 0-3.06 1.232-3.315 2.805l-.252 1.55c-.57 3.503-1.16 7.125-1.723 10.692v.001a2.907 2.907 0 00.647 2.346 2.967 2.967 0 002.266 1.02l15.851.012h.002c1.63 0 3.088-1.246 3.319-2.837.295-2.03.441-3.045.731-5.074a2.92 2.92 0 00-.683-2.345zm-3.502 6.74l-15.048-.01c.528-3.334 1.078-6.709 1.61-9.98l.229-1.404 8.003.01c1.905 2.203 3.88 4.47 5.875 6.745-.258 1.804-.403 2.81-.669 4.64z" fill="#404142"/></g></svg>