<svg width="100" height="98" viewBox="0 0 100 98" xmlns="http://www.w3.org/2000/svg"><g fill="none" fill-rule="evenodd"><path d="M49.953 0a5.332 5.332 0 015.076 3.72L76.906 22H71.55L54.63 7.863a5.33 5.33 0 01-4.436 2.777l-.24.006a5.327 5.327 0 01-4.678-2.784L28.355 22H23L44.877 3.72a5.334 5.334 0 014.84-3.715zm0 3.434a1.89 1.89 0 00-1.888 1.889 1.89 1.89 0 001.888 1.889 1.891 1.891 0 001.89-1.89 1.891 1.891 0 00-1.89-1.888z" fill="#404142" fill-rule="nonzero"/><rect stroke="#404142" stroke-width="3" fill="#FFF" x="1.5" y="23.5" width="97" height="73" rx="4"/><g transform="translate(4.5 33)" fill="#404142"><rect transform="rotate(90 1 2.5)" x="-1" y="2" width="4" height="1" rx=".5"/><rect transform="rotate(90 1 18.5)" x="-1" y="18" width="4" height="1" rx=".5"/><rect transform="rotate(90 1 34.5)" x="-1" y="34" width="4" height="1" rx=".5"/><rect transform="rotate(90 1 50.5)" x="-1" y="50" width="4" height="1" rx=".5"/></g><g transform="translate(93.5 33)" fill="#404142"><rect transform="rotate(90 1 2.5)" x="-1" y="2" width="4" height="1" rx=".5"/><rect transform="rotate(90 1 18.5)" x="-1" y="18" width="4" height="1" rx=".5"/><rect transform="rotate(90 1 34.5)" x="-1" y="34" width="4" height="1" rx=".5"/><rect transform="rotate(90 1 50.5)" x="-1" y="50" width="4" height="1" rx=".5"/></g><g transform="translate(16 27)" fill="#404142"><rect width="4" height="1" rx=".5"/><rect x="16" width="4" height="1" rx=".5"/><rect x="32" width="4" height="1" rx=".5"/><rect x="48" width="4" height="1" rx=".5"/><rect x="64" width="4" height="1" rx=".5"/></g><g transform="translate(16 92)" fill="#404142"><rect width="4" height="1" rx=".5"/><rect x="16" width="4" height="1" rx=".5"/><rect x="32" width="4" height="1" rx=".5"/><rect x="48" width="4" height="1" rx=".5"/><rect x="64" width="4" height="1" rx=".5"/></g><rect stroke="#404142" stroke-width="2" fill="#FFC31A" x="9" y="31" width="82" height="58" rx="2"/><rect stroke="#404142" stroke-width="2" fill="#FFF" x="15" y="37" width="70" height="46" rx="2"/><path stroke="#404142" stroke-width="2" stroke-linecap="round" stroke-linejoin="round" d="M2.957 25.429l12.155 11.905m82.043-11.905L85 37.334m-82.043 58l12.155-11.905m82.043 11.905L85 83.429"/></g></svg>