<svg width="32" height="32" viewBox="0 0 32 32" xmlns="http://www.w3.org/2000/svg"><g fill="none" fill-rule="evenodd"><path d="M0 0h32v32H0z"/><path d="M27.063 4.76H7.72v.17l-.242-.83a2.373 2.373 0 00-2.266-1.7H3.59a.59.59 0 100 1.18h1.623c.521 0 .987.35 1.133.85l3.673 12.593-1.882 2.352a1.902 1.902 0 001.484 3.087h16.392a.59.59 0 100-1.18H9.62a.721.721 0 01-.562-1.17l1.896-2.37h11.574a2.37 2.37 0 002.136-1.355l4.118-8.75c.118-.253.18-.532.18-.81v-.166c0-1.048-.852-1.9-1.9-1.9zm.72 2.068a.722.722 0 01-.069.306l-4.117 8.75a1.186 1.186 0 01-1.068.678H11.113L8.015 5.94h19.048c.397 0 .72.324.72.72v.168z" stroke="#1782E9" stroke-width=".8" fill="#1782E9" fill-rule="nonzero"/><circle stroke="#1782E9" stroke-width="2" fill="#FFF" cx="10" cy="27" r="2"/><circle stroke="#1782E9" stroke-width="2" fill="#FFF" cx="24" cy="27" r="2"/></g></svg>