<svg width="190" height="48" viewBox="0 0 190 48" xmlns="http://www.w3.org/2000/svg"><g fill="none"><path d="M37.048 9.33c.072 3.996 2.706 5.141 5.197 5.093 2.569-.049 4.998-1.411 4.998-4.992 0-2.228-1.948-3.8-2.617-5.069-1.082-2.033.63-3.165 1.948-2.695 0-.649-1.185-1.972-3.459-1.602-3.238.522-6.067 4.972-6.067 9.266z" fill="#F44436"/><path d="M11.26 43.89a.462.462 0 01-.46-.46V17.082a.46.46 0 01.46-.46h12.667a16.26 16.26 0 016.626 1.248 9.35 9.35 0 015.804 8.968 9.356 9.356 0 01-5.804 8.97 16.299 16.299 0 01-6.616 1.246H20.1a.464.464 0 00-.461.46v5.916a.457.457 0 01-.458.46H11.26zm8.38-13.978a.46.46 0 00.461.461h3.248c1.338 0 2.364-.324 3.05-.924a3.335 3.335 0 001.049-2.595 3.341 3.341 0 00-1.05-2.595c-.685-.613-1.711-.924-3.05-.924h-3.247a.464.464 0 00-.461.46v6.117zm18.204 13.492l1.569-26.351a.458.458 0 01.458-.431h4.725a.46.46 0 01.462.431l1.568 26.351c0 6.081-8.782 6.081-8.782 0zm25.873 1.122a16.75 16.75 0 01-7.834-1.816 13.633 13.633 0 01-5.444-5.066 14.05 14.05 0 01-1.968-7.388 14.05 14.05 0 011.968-7.388 13.633 13.633 0 015.444-5.066 16.75 16.75 0 017.834-1.816c2.449-.041 4.88.438 7.129 1.408a13.282 13.282 0 014.706 3.499.46.46 0 01-.046.649l-4.842 4.31a.462.462 0 01-.65-.036c-1.67-1.852-3.624-2.789-5.82-2.789-2.033 0-3.693.649-4.937 1.972-1.244 1.323-1.867 3.075-1.867 5.257 0 2.183.63 3.954 1.867 5.258 1.238 1.303 2.904 1.975 4.937 1.975 2.196 0 4.15-.938 5.82-2.793a.462.462 0 01.65-.035l4.842 4.316a.46.46 0 01.046.649 13.289 13.289 0 01-4.706 3.51 17.336 17.336 0 01-7.13 1.39zm35.469-.636a.461.461 0 01-.431-.294l-1.644-4.259a.458.458 0 00-.429-.295H86.348a.458.458 0 00-.429.295l-1.643 4.259a.461.461 0 01-.43.295h-7.92a.458.458 0 01-.423-.649l11.54-26.345a.455.455 0 01.419-.275h8.272a.46.46 0 01.422.275L107.69 43.25a.457.457 0 01-.422.648l-8.08-.006zM88.647 32.216a.463.463 0 00.429.626h4.872a.461.461 0 00.428-.626l-2.439-6.301a.461.461 0 00-.857 0l-2.433 6.301zm31.595 12.311a29.159 29.159 0 01-6.684-.766 19.248 19.248 0 01-4.738-1.719.463.463 0 01-.198-.59l2.432-5.514a.459.459 0 01.633-.224 20.28 20.28 0 003.823 1.492c1.564.454 3.182.692 4.81.708 1.355 0 2.303-.133 2.9-.403.826-.373 1.001-.973 1.001-1.385 0-.703-.429-1.232-1.27-1.57a24.387 24.387 0 00-3.647-.972 40.778 40.778 0 01-5.336-1.44 8.948 8.948 0 01-3.632-2.468c-1.006-1.122-1.52-2.67-1.52-4.606a8.019 8.019 0 011.426-4.615c.945-1.378 2.384-2.48 4.278-3.279 1.893-.798 4.26-1.21 6.996-1.21a25.651 25.651 0 015.573.61c1.457.312 2.87.804 4.206 1.463a.46.46 0 01.217.587l-2.273 5.458a.464.464 0 01-.62.244c-2.508-1.168-4.924-1.758-7.185-1.758-2.598 0-3.897.68-3.897 2.024 0 .677.422 1.187 1.25 1.508 1.171.4 2.372.703 3.592.908 1.81.317 3.593.772 5.333 1.362a9.134 9.134 0 013.69 2.449c1.02 1.109 1.54 2.65 1.54 4.582a7.933 7.933 0 01-1.423 4.593c-.948 1.368-2.387 2.471-4.28 3.282-1.894.81-4.262 1.249-6.997 1.249zm24.801 0a29.159 29.159 0 01-6.684-.766 19.248 19.248 0 01-4.739-1.719.463.463 0 01-.198-.59l2.436-5.514a.448.448 0 01.266-.25.468.468 0 01.367.027 20.154 20.154 0 003.82 1.491 17.82 17.82 0 004.813.708c1.351 0 2.3-.133 2.9-.403.826-.373.998-.973.998-1.385 0-.703-.429-1.232-1.27-1.57a24.146 24.146 0 00-3.648-.972 40.778 40.778 0 01-5.336-1.44 8.916 8.916 0 01-3.628-2.468c-1.01-1.122-1.523-2.67-1.523-4.606a8.019 8.019 0 011.426-4.615c.945-1.359 2.384-2.461 4.29-3.266 1.907-.804 4.262-1.21 6.996-1.21a25.651 25.651 0 015.574.61 18.01 18.01 0 014.206 1.463.457.457 0 01.217.587l-2.273 5.458a.464.464 0 01-.62.244c-2.508-1.168-4.924-1.758-7.185-1.758-2.598 0-3.897.68-3.897 2.023 0 .678.422 1.188 1.253 1.509 1.17.4 2.37.704 3.59.908a35.84 35.84 0 015.332 1.362 9.134 9.134 0 013.69 2.449c1.023 1.109 1.54 2.65 1.54 4.582a7.909 7.909 0 01-1.423 4.593c-.949 1.368-2.388 2.471-4.281 3.282-1.894.81-4.274 1.236-7.009 1.236zm29.182-.001c-2.755.04-5.478-.59-7.934-1.835a13.645 13.645 0 01-7.493-12.435 13.645 13.645 0 017.493-12.418 18.143 18.143 0 0115.914 0 13.661 13.661 0 017.47 12.418 13.661 13.661 0 01-7.493 12.435 17.02 17.02 0 01-7.957 1.835zm0-21.499a6.291 6.291 0 00-3.306.892 6.432 6.432 0 00-2.355 2.533 8.02 8.02 0 00-.867 3.804 8.044 8.044 0 00.867 3.798 6.422 6.422 0 002.352 2.53 6.552 6.552 0 006.612 0 6.419 6.419 0 002.352-2.53 8.044 8.044 0 00.867-3.808 8.02 8.02 0 00-.867-3.804 6.428 6.428 0 00-2.352-2.533 6.285 6.285 0 00-3.303-.882zM.67 25.839a.732.732 0 01.736-.736h4.015a.738.738 0 01.75.736V43.27c0 .407-.33.737-.737.737H1.406a.737.737 0 01-.737-.737V25.84zm.282-4.249a2.972 2.972 0 010-4.359 3.488 3.488 0 012.462-.879 3.576 3.576 0 012.461.837c.617.528.963 1.304.946 2.115a2.982 2.982 0 01-.952 2.27c-.67.61-1.555.932-2.462.895a3.485 3.485 0 01-2.455-.879z" fill="#09114A"/></g></svg>