<?xml version="1.0" encoding="UTF-8"?>
<svg width="16px" height="16px" viewBox="0 0 16 16" version="1.1" xmlns="http://www.w3.org/2000/svg" xmlns:xlink="http://www.w3.org/1999/xlink">
    <title>ic/brush-fill copy 7</title>
    <g id="Home" stroke="none" stroke-width="1" fill="none" fill-rule="evenodd">
        <g id="2-0-0-Home-TopMenu-paints-1" transform="translate(-410.000000, -437.000000)" fill="#404142">
            <g id="Group-12" transform="translate(410.000000, 397.000000)">
                <g id="ic/brush-fill" transform="translate(0.000000, 40.000000)">
                    <path d="M1.63953125,10.2167812 C2.7973125,8.769625 5.0938125,8.41671875 6.46284375,9.785875 C7.88334375,11.2064687 7.521125,13.3323437 6.35028125,14.566875 C5.105,15.8799062 2.41803125,16.4730312 0.284375,15.5595937 C-0.0155625,15.4311875 -0.09559375,15.0425937 0.12875,14.8060625 C1.41709375,13.447625 0.27371875,11.9240625 1.63953125,10.2167812 Z M6.46196875,6.78834375 L9.41571875,9.74225 C8.93446875,10.1454062 8.49821875,10.4991562 8.14165625,10.7835625 C7.76940625,9.59046875 6.79515625,8.517 5.43540625,8.13590625 C5.71446875,7.75965625 6.06353125,7.2980625 6.46196875,6.78834375 L6.46196875,6.78834375 Z M14.1141562,0.01109375 C15.2047187,-0.1038125 16.0558437,0.68609375 15.9969687,1.77865625 C15.8757187,4.0543125 11.8681875,7.6361875 10.1322812,9.133125 L10.1322812,9.133125 L7.04884375,6.04953125 C8.47528125,4.2801875 11.8455312,0.24959375 14.1141562,0.01109375 Z" id="Combined-Shape"></path>
                </g>
            </g>
        </g>
    </g>
</svg>