<?xml version="1.0" encoding="UTF-8"?>
<svg width="16px" height="16px" viewBox="0 0 16 16" version="1.1" xmlns="http://www.w3.org/2000/svg" xmlns:xlink="http://www.w3.org/1999/xlink">
    <title>ic/brush-outline copy 11</title>
    <g id="Home" stroke="none" stroke-width="1" fill="none" fill-rule="evenodd">
        <g id="2-0-0-Home-TopMenu-paints-1" transform="translate(-442.000000, -437.000000)" fill="#8A8B8C">
            <g id="Group-12" transform="translate(410.000000, 397.000000)">
                <g id="Group-5" transform="translate(0.000000, 40.000000)">
                    <g id="ic/brush-outline" transform="translate(32.000000, 0.000000)">
                        <path d="M14.114,0.011125 C13.3084687,0.095875 12.3393125,0.632125 11.1511562,1.6505 C9.00159375,3.4929375 6.4659375,6.674125 4.832875,8.963 C3.6404375,8.77703125 2.38365625,9.287 1.63953125,10.2171562 C0.2736875,11.9245 1.41709375,13.448125 0.12875,14.8065937 C-0.09559375,15.043125 -0.0155625,15.43175 0.284375,15.5601562 C2.39209375,16.4625312 5.086375,15.900125 6.35028125,14.5674062 C7.12271875,13.7529375 7.543,12.5505312 7.331875,11.4185937 C9.59065625,9.68540625 12.7114687,7.01371875 14.47875,4.7971875 C15.457375,3.56978125 15.954,2.5824375 15.997,1.77875 C16.0549687,0.69603125 15.2146875,-0.1045625 14.114,0.011125 Z M5.67009375,13.9222187 C4.81503125,14.8237812 2.92325,15.3489062 1.239875,14.8999375 C2.181125,13.3985937 1.37203125,12.0523125 2.3715625,10.802875 C3.19175,9.777625 4.841375,9.49059375 5.79996875,10.4492187 C6.9199375,11.5693125 6.39825,13.1544062 5.67009375,13.9222187 Z M5.76603125,9.2709375 C5.99584375,8.95321875 6.35625,8.46265625 6.80634375,7.87534375 L8.34446875,9.41359375 C7.7780625,9.87940625 7.305,10.2529687 6.9983125,10.4915312 C6.722,9.9953125 6.294375,9.55065625 5.76603125,9.2709375 Z M15.060875,1.728625 C14.955625,3.6975 10.5658125,7.54178125 9.06721875,8.81053125 L7.3864375,7.12959375 C8.6195,5.56834375 12.2383438,1.15109375 14.212125,0.94353125 C14.7387188,0.8880625 15.0880625,1.22034375 15.060875,1.728625 L15.060875,1.728625 Z" id="Shape"></path>
                    </g>
                </g>
            </g>
        </g>
    </g>
</svg>