<?xml version="1.0" encoding="UTF-8"?>
<svg width="40px" height="40px" viewBox="0 0 40 40" version="1.1" xmlns="http://www.w3.org/2000/svg" xmlns:xlink="http://www.w3.org/1999/xlink">
    <title>ic-add-photo-active</title>
    <g id="Page-2" stroke="none" stroke-width="1" fill="none" fill-rule="evenodd">
        <g id="Product-page-3" transform="translate(-720.000000, -1926.000000)">
            <g id="ic-add-photo-active" transform="translate(720.000000, 1926.000000)">
                <polygon id="Path" points="0 0 40 0 40 40 0 40"></polygon>
                <path d="M30,33.3333333 L6.66666667,33.3333333 L6.66666667,10 L21.6666667,10 L21.6666667,6.66666667 L6.66666667,6.66666667 C4.83333333,6.66666667 3.33333333,8.16666667 3.33333333,10 L3.33333333,33.3333333 C3.33333333,35.1666667 4.83333333,36.6666667 6.66666667,36.6666667 L30,36.6666667 C31.8333333,36.6666667 33.3333333,35.1666667 33.3333333,33.3333333 L33.3333333,18.3333333 L30,18.3333333 L30,33.3333333 Z M17.0166667,28.05 L13.75,24.1166667 L9.16666667,30 L27.5,30 L21.6,22.15 L17.0166667,28.05 Z M33.3333333,6.66666667 L33.3333333,1.66666667 L30,1.66666667 L30,6.66666667 L25,6.66666667 C25.0166667,6.68333333 25,10 25,10 L30,10 L30,14.9833333 C30.0166667,15 33.3333333,14.9833333 33.3333333,14.9833333 L33.3333333,10 L38.3333333,10 L38.3333333,6.66666667 L33.3333333,6.66666667 Z" id="Shape" fill="#1782E9" fill-rule="nonzero"></path>
            </g>
        </g>
    </g>
</svg>