<?xml version="1.0" encoding="UTF-8"?>
<svg width="39px" height="40px" viewBox="0 0 39 40" version="1.1" xmlns="http://www.w3.org/2000/svg" xmlns:xlink="http://www.w3.org/1999/xlink">
    <title>ic-dispatch</title>
    <g id="Page-2" stroke="none" stroke-width="1" fill="none" fill-rule="evenodd">
        <g id="Product-page-1" transform="translate(-1294.000000, -406.000000)" fill-rule="nonzero">
            <g id="Group-25" transform="translate(1285.000000, 404.000000)">
                <g id="ic-dispatch" transform="translate(9.113661, 2.623258)">
                    <path d="M28.3381763,19.0270612 C28.9616162,19.0270612 29.5704821,19.0918342 30.1599162,19.2084255 C25.8897579,20.0553322 22.670541,23.8202613 22.670541,28.3381763 C22.670541,32.8560912 25.8897579,36.6210204 30.1599162,37.467927 C29.5704821,37.5861377 28.9616162,37.6492913 28.3381763,37.6492913 C23.1952021,37.6492913 19.0270612,33.4811504 19.0270612,28.3381763 C19.0270612,23.1952021 23.1952021,19.0270612 28.3381763,19.0270612 Z M1.21449327,8.50145289 L4.85797308,10.2746131 L4.85797308,23.4802032 L18.0149835,30.7704015 L16.1932436,31.7792405 L1.21449327,23.4802032 L1.21449327,8.50145289 Z M31.1719939,8.50145289 L31.1719939,10.2746131 L19.8464393,15.7884125 L19.8270075,15.7884125 L18.0149835,14.9058807 L31.1719939,8.50145289 Z M16.1835276,1.21449327 L19.6262112,2.88887466 L8.0966218,8.50145289 L19.6262112,14.1140311 L16.1835276,15.7884125 L1.21449327,8.50145289 L16.1835276,1.21449327 Z" id="Shape" fill="#D5DBE1"></path>
                    <path d="M28.3381763,17.8125679 C34.1418348,17.8125679 38.8637846,22.5345178 38.8637846,28.3381763 C38.8637846,34.1418348 34.1418348,38.8637846 28.3381763,38.8637846 C22.5345178,38.8637846 17.8125679,34.1418348 17.8125679,28.3381763 C17.8125679,22.5345178 22.5345178,17.8125679 28.3381763,17.8125679 Z M28.3381763,20.2415545 C23.873699,20.2415545 20.2415545,23.873699 20.2415545,28.3381763 C20.2415545,32.8026535 23.873699,36.4347981 28.3381763,36.4347981 C32.8026535,36.4347981 36.4347981,32.8026535 36.4347981,28.3381763 C36.4347981,23.873699 32.8026535,20.2415545 28.3381763,20.2415545 Z M25.4013718,24.3892941 C26.8524021,24.3892941 28.0327739,25.5333468 28.0327739,26.93973 C28.0327739,28.3461132 26.8524021,29.4901658 25.4013718,29.4901658 C25.193867,29.4901658 25.0254573,29.6533937 25.0254573,29.8545138 L25.0254573,30.2188618 L28.0327739,30.2188618 L28.0327739,32.4049497 L23.8977135,32.4049497 C23.275199,32.4049497 22.7699698,31.915266 22.7699698,31.3119058 L22.7699698,29.8545138 C22.7699698,28.4481306 23.9503415,27.304078 25.4013718,27.304078 C25.6088767,27.304078 25.7772864,27.1408501 25.7772864,26.93973 C25.7772864,26.7386099 25.6088767,26.575382 25.4013718,26.575382 L22.7699698,26.575382 L22.7699698,24.3892941 L25.4013718,24.3892941 Z M31.0400906,24.3892941 L31.0400906,26.93973 C31.0400906,27.1408501 31.2085003,27.304078 31.4160052,27.304078 L31.7909698,27.3032941 L31.7919198,24.3892941 L34.0474073,24.3892941 L34.0474073,32.4049497 L31.7919198,32.4049497 L31.7909698,29.4892941 L31.4160052,29.4901658 C29.9649749,29.4901658 28.7846031,28.3461132 28.7846031,26.93973 L28.7846031,24.3892941 L31.0400906,24.3892941 Z M16.714666,0.121449327 L31.7031323,7.40840894 C31.741261,7.42731564 31.779361,7.44833889 31.816485,7.47156259 C32.171117,7.69341003 32.3864872,8.08204788 32.3864872,8.50145289 L32.3864872,14.9787503 L29.9575006,14.9787503 L29.9575006,10.4430228 L16.7340979,16.8814564 C16.4037558,17.0433889 15.9811121,17.0433889 15.6507699,16.8814564 L9.715,13.991 L9.71594615,18.2012058 L7.28695962,18.2012058 L7.286,12.808 L2.42898654,10.4430228 L2.42898654,22.7660812 L15.571423,30.1113365 L14.3860776,32.231032 L0.621820554,24.5392413 C0.238040681,24.3254905 0,23.9190401 0,23.4802032 L0,8.50145289 C0,8.08204788 0.21537014,7.69341003 0.571621499,7.47156259 L0.68335488,7.40840894 L15.6523893,0.121449327 C15.9875894,-0.040483109 16.3794659,-0.040483109 16.714666,0.121449327 Z M23.226,5.989 L11.236,12.029 L16.1932436,14.442754 L28.394,8.502 L23.226,5.989 Z M16.1835276,2.56500978 L3.991,8.501 L8.491,10.692 L20.478,4.653 L16.1835276,2.56500978 Z" id="Shape" fill="#404142"></path>
                </g>
            </g>
        </g>
    </g>
</svg>