<?xml version="1.0" encoding="UTF-8"?>
<svg width="32px" height="32px" viewBox="0 0 32 32" version="1.1" xmlns="http://www.w3.org/2000/svg" xmlns:xlink="http://www.w3.org/1999/xlink">
    <title>ic-heartbig-focused</title>
    <g id="Page-2" stroke="none" stroke-width="1" fill="none" fill-rule="evenodd">
        <g id="Product-page-1" transform="translate(-1702.000000, -300.000000)">
            <g id="ic-heartbig-focused" transform="translate(1702.000000, 300.000000)">
                <rect id="Rectangle" x="0" y="0" width="32" height="32"></rect>
                <path d="M22.7083516,3.417918 C19.6025391,3.417918 17.0373672,6.25635314 16,7.59598691 C14.9626328,6.25635314 12.3974609,3.417918 9.29164844,3.417918 C5.27102344,3.417918 2,7.05509686 2,11.5251883 C2,13.9639825 2.98382813,16.2368292 4.70588281,17.7922916 C4.73092969,17.8349085 4.76171875,17.8741354 4.79759375,17.9094343 L15.5881484,28.504788 C15.7020625,28.6163345 15.8507578,28.6724037 16,28.6724037 C16.1492422,28.6724037 16.2984844,28.6163345 16.4124531,28.5042499 L27.5618672,17.537828 L27.6769297,17.4279496 C27.7680937,17.3433077 27.8581094,17.2575358 27.9588984,17.1477113 C28.0010625,17.1068163 28.0357891,17.0608094 28.0625859,17.0109283 C29.3130156,15.5042708 30,13.5609516 30,11.5251883 C30,7.05509686 26.7290312,3.417918 22.7083516,3.417918 Z M27.0918828,16.3652179 C27.0759141,16.3837283 27.0610937,16.4033148 27.0480234,16.4234933 C26.9933359,16.4851586 26.9335078,16.5395059 26.8742812,16.595037 L15.9994531,27.2873549 L5.75522656,17.2278332 C5.72219531,17.1639078 5.67603906,17.1056325 5.61965625,17.0568813 C4.06046094,15.7172476 3.16664844,13.7010708 3.16664844,11.5251883 C3.16664844,7.68789302 5.91414844,4.56588341 9.29164844,4.56588341 C12.6310312,4.56588341 15.4810156,8.85157071 15.5095078,8.89472569 C15.7248672,9.22204703 16.2751328,9.22204703 16.4904922,8.89472569 C16.5189844,8.85157071 19.3689687,4.56588341 22.7083516,4.56588341 C26.0858516,4.56588341 28.8333516,7.68794683 28.8333516,11.5251883 C28.8333516,13.3333925 28.2146719,15.0524888 27.0918828,16.3652179 Z" id="Shape" stroke="#F44436" stroke-width="0.8" fill="#F44436" fill-rule="nonzero"></path>
            </g>
        </g>
    </g>
</svg>