<?xml version="1.0" encoding="UTF-8"?>
<svg width="47px" height="33px" viewBox="0 0 47 33" version="1.1" xmlns="http://www.w3.org/2000/svg" xmlns:xlink="http://www.w3.org/1999/xlink">
    <title>ic-internat</title>
    <g id="Page-2" stroke="none" stroke-width="1" fill="none" fill-rule="evenodd">
        <g id="Product-page-1" transform="translate(-1291.000000, -718.000000)" fill-rule="nonzero">
            <g id="Group-25" transform="translate(1285.467130, 404.000000)">
                <g id="ic-internat" transform="translate(5.532870, 314.437486)">
                    <path d="M38.2968037,24.8019135 C39.0645253,24.8019135 39.7574342,25.0904771 40.3007175,25.5500413 C39.6256212,26.1218247 39.1874321,26.9643592 39.1874321,27.9191129 C39.1874321,28.8738665 39.6256212,29.716401 40.3007175,30.2881844 C39.7574342,30.7477486 39.0645253,31.0363122 38.2968037,31.0363122 C36.5743283,31.0363122 35.1796043,29.6398069 35.1796043,27.9191129 C35.1796043,26.1984188 36.5743283,24.8019135 38.2968037,24.8019135 Z M18.7029789,24.8019135 C19.4707006,24.8019135 20.1636095,25.0904771 20.7068928,25.5500413 C20.0317965,26.1218247 19.5936073,26.9643592 19.5936073,27.9191129 C19.5936073,28.8738665 20.0317965,29.716401 20.7068928,30.2881844 C20.1636095,30.7477486 19.4707006,31.0363122 18.7029789,31.0363122 C16.9822848,31.0363122 15.5857795,29.6398069 15.5857795,27.9191129 C15.5857795,26.1984188 16.9822848,24.8019135 18.7029789,24.8019135 Z M11.5781692,1.3359426 C12.263953,1.3359426 12.9337056,1.40719287 13.5820831,1.53544336 C8.88490889,2.46704066 5.34377038,6.60846271 5.34377038,11.5781692 C5.34377038,16.5478756 8.88490889,20.6892977 13.5820831,21.620895 C13.0927657,21.7190273 12.5912743,21.7826666 12.0799058,21.8079849 L13.5219897,21.9433986 L12.4685801,27.4737987 L8.46075234,27.4737987 L9.57531885,21.6247221 C4.87716881,20.6936182 1.3359426,16.5499998 1.3359426,11.5781692 C1.3359426,5.92089759 5.92089759,1.3359426 11.5781692,1.3359426 Z M35.3701987,14.1143727 L32.5077191,27.4737987 L28.4998913,27.4737987 L31.362371,14.1143727 L35.3701987,14.1143727 Z" id="Shape" fill="#D5DBE1"></path>
                    <path d="M32.5077191,7.43465971 C32.9120644,7.43465971 33.2932533,7.61812916 33.5461918,7.9298491 C33.8009115,8.24513155 33.8988806,8.65482061 33.8133803,9.05025962 L33.0137523,12.7776597 L37.8514895,12.7784301 C42.516601,12.7784301 46.3124592,16.5742883 46.3124592,21.2393999 C46.3124592,21.3338065 46.3035529,21.4264318 46.2821779,21.5190572 L44.9462353,27.753456 C44.8144223,28.3697708 44.2711389,28.8097412 43.640574,28.8097412 L42.6603532,28.8104328 C42.2462923,30.840815 40.4464136,32.3722548 38.2968037,32.3722548 C36.1471937,32.3722548 34.347315,30.840815 33.9332541,28.8104328 L23.0665284,28.8104328 C22.6524676,30.840815 20.8525888,32.3722548 18.7029789,32.3722548 C16.553369,32.3722548 14.7534902,30.840815 14.3394294,28.8104328 L8.46075234,28.8097412 L8.46075234,26.1378561 L14.6213909,26.1384692 C15.3098514,24.5664522 16.880758,23.4659709 18.7029789,23.4659709 C20.5251998,23.4659709 22.0961064,24.5664522 22.7845669,26.1384692 L27.4204497,26.1378561 L30.856494,10.1065449 L25.0232659,10.1065449 L25.0232659,7.43465971 L32.5077191,7.43465971 Z M38.2968037,26.1378561 C37.3153312,26.1378561 36.5155469,26.9358591 36.5155469,27.9191129 C36.5155469,28.9023666 37.3153312,29.7003696 38.2968037,29.7003696 C39.2782761,29.7003696 40.0780604,28.9023666 40.0780604,27.9191129 C40.0780604,26.9358591 39.2782761,26.1378561 38.2968037,26.1378561 Z M18.7029789,26.1378561 C17.7215064,26.1378561 16.9217221,26.9358591 16.9217221,27.9191129 C16.9217221,28.9023666 17.7215064,29.7003696 18.7029789,29.7003696 C19.6844514,29.7003696 20.4842357,28.9023666 20.4842357,27.9191129 C20.4842357,26.9358591 19.6844514,26.1378561 18.7029789,26.1378561 Z M37.8514895,15.4503153 L32.4418126,15.4503153 L30.1511163,26.1378561 L34.2152157,26.1384692 C34.9036761,24.5664522 36.4745828,23.4659709 38.2968037,23.4659709 C40.1190245,23.4659709 41.6899312,24.5664522 42.3783916,26.1384692 L42.5611324,26.1378561 L43.6387928,21.1058056 C43.5675425,17.9743562 40.9989702,15.4503153 37.8514895,15.4503153 Z M11.5781692,0 C17.9621935,0 23.1563383,5.19414481 23.1563383,11.5781692 C23.1563383,17.9621935 17.9621935,23.1563383 11.5781692,23.1563383 C5.19414481,23.1563383 0,17.9621935 0,11.5781692 C0,5.19414481 5.19414481,0 11.5781692,0 Z M13.359,16.031 L9.796,16.031 L9.79647376,20.3054291 C10.3723118,20.4228111 10.9681776,20.4844531 11.5781692,20.4844531 C12.1881607,20.4844531 12.7840265,20.4228111 13.3598646,20.3054291 L13.359,16.031 Z M7.125,16.031 L3.86750944,16.0319487 C4.64975425,17.3809833 5.77581187,18.506969 7.12490306,19.2891266 L7.125,16.031 Z M16.031,16.031 L16.0319487,19.2888289 C17.3808122,18.5066833 18.5066833,17.3808122 19.2888289,16.0319487 L16.031,16.031 Z M7.125,9.796 L2.85090919,9.79647376 C2.73352721,10.3723118 2.67188519,10.9681776 2.67188519,11.5781692 C2.67188519,12.1881607 2.73352721,12.7840265 2.85090919,13.3598646 L7.125,13.359 L7.125,9.796 Z M13.359,9.796 L9.796,9.796 L9.796,13.359 L13.359,13.359 L13.359,9.796 Z M20.3054291,9.79647376 L16.031,9.796 L16.031,13.359 L20.3054291,13.3598646 C20.4228111,12.7840265 20.4844531,12.1881607 20.4844531,11.5781692 C20.4844531,11.0901759 20.4450023,10.6112232 20.3691223,10.1443327 L20.3054291,9.79647376 Z M7.12490306,3.86721172 C5.77564071,4.64946853 4.64946853,5.77564071 3.86721172,7.12490306 L7.125,7.125 L7.12490306,3.86721172 Z M11.5781692,2.67188519 C10.9681776,2.67188519 10.3723118,2.73352721 9.79647376,2.85090919 L9.796,7.125 L13.359,7.125 L13.3598646,2.85090919 C12.7840265,2.73352721 12.1881607,2.67188519 11.5781692,2.67188519 Z M16.0319487,3.86750944 L16.031,7.125 L19.2891266,7.12490306 C18.506969,5.77581187 17.3809833,4.64975425 16.0319487,3.86750944 Z" id="Shape" fill="#404142"></path>
                </g>
            </g>
        </g>
    </g>
</svg>