<?xml version="1.0" encoding="UTF-8"?>
<svg width="56px" height="34px" viewBox="0 0 56 34" version="1.1" xmlns="http://www.w3.org/2000/svg" xmlns:xlink="http://www.w3.org/1999/xlink">
    <title>ic-inpost</title>
    <g id="Page-2" stroke="none" stroke-width="1" fill="none" fill-rule="evenodd">
        <g id="Product-page-1" transform="translate(-1285.000000, -483.000000)">
            <g id="Group-25" transform="translate(1285.467130, 404.000000)">
                <g id="ic-inpost" transform="translate(0.000000, 79.157223)">
                    <path d="M48.9341486,13.5245283 C50.0931966,13.5245283 51.0818649,13.9016044 51.8991934,14.6545355 L50.9156007,15.6812843 C50.3206438,15.1635 49.6447497,14.9036581 48.8881927,14.9036581 C47.9199644,14.9036581 47.436399,15.1732695 47.436399,15.7109999 C47.436399,16.0234886 47.6578102,16.2390964 48.1021417,16.3564663 C48.7270042,16.4537543 49.3472026,16.5567413 49.962874,16.6640703 C51.4046534,16.9282542 52.1259547,17.6373581 52.1259547,18.7912463 C52.1259547,19.5348149 51.8334833,20.1458166 51.2479919,20.6252012 C50.663598,21.1048573 49.8914023,21.3433962 48.9341486,21.3433962 C47.440926,21.3433962 46.2865422,20.9036324 45.4693509,20.0232906 L46.7248376,18.9820232 C47.3503861,19.58909 48.0817016,19.8916735 48.9185099,19.8916735 C49.3831442,19.8916735 49.7510655,19.8011698 50.0235083,19.6202981 C50.2956767,19.4392908 50.4317609,19.2122852 50.4317609,18.9381961 C50.4317609,18.6254359 50.2752367,18.4099639 49.962874,18.2927297 L49.9058392,18.2734728 L49.9058392,18.2734728 L49.7467692,18.2313133 L49.7467692,18.2313133 L49.5276947,18.1842728 L49.5276947,18.1842728 L49.0865636,18.1045065 L49.0865636,18.1045065 L48.5103944,18.0136201 C47.5621946,17.877254 46.886712,17.6716871 46.4825748,17.3977336 C46.0087493,17.0655702 45.7725224,16.5665108 45.7725224,15.9017768 C45.7725224,15.2267305 46.0595065,14.662134 46.6342977,14.206766 C47.2089518,13.7523479 47.9756602,13.5245283 48.9341486,13.5245283 Z M27.328657,14.3698086 C28.0567997,14.3705298 28.638755,14.613641 29.0735069,15.0231605 C29.5085128,15.4325608 29.7264602,16.0030013 29.7264602,16.7343629 L29.7264602,21.1320755 L28.1940965,21.1320755 L28.1940965,16.9960832 C28.1940965,16.1251534 27.7852544,15.6563472 27.0427597,15.6021899 C26.5799389,15.5684311 25.8464618,15.6710197 25.314167,15.7831515 L25.314167,21.1320755 L23.7811682,21.1320755 L23.7811682,14.7588159 L24.2867912,14.6645588 L24.2867912,14.6645588 L24.6896146,14.5987689 L24.6896146,14.5987689 L25.175764,14.5289786 L25.175764,14.5289786 L25.7240423,14.4632914 L25.7240423,14.4632914 L26.1136095,14.4257812 C26.1797045,14.4201149 26.2462957,14.4147748 26.3132524,14.4098108 L26.7183315,14.3849401 C26.922017,14.3751616 27.1266365,14.3696685 27.328657,14.3698086 Z M54.0079327,11.8339623 L54.0079327,13.818679 L55.2062833,13.818679 L55.2062833,15.0467722 L54.0079327,15.0467722 L54.0079327,18.7571813 C54.0079327,19.1578358 54.0536003,19.4220356 54.1452756,19.549528 C54.2533821,19.7128698 54.4825135,19.794667 54.8327832,19.794667 C54.9327307,19.794667 55.0491096,19.7858309 55.1823729,19.7675275 L55.1823729,21.0365192 C54.9575476,21.1002655 54.7239968,21.1320755 54.4825135,21.1320755 C53.7120563,21.1320755 53.2027998,20.9410892 52.9548573,20.559243 C52.7568887,20.2590677 52.658301,19.6901484 52.658301,18.8527376 L52.658301,11.8339623 L54.0079327,11.8339623 Z M22.0825133,11.8339623 L22.0825133,21.1320755 L20.3838584,21.1320755 L20.3838584,11.8339623 L22.0825133,11.8339623 Z M33.9647986,11.8339623 C35.0617882,11.8339623 35.9041517,12.1184924 36.4907311,12.6865275 C37.0769245,13.2546907 37.3704071,14.037405 37.3704071,15.035055 C37.3704071,15.986565 37.0742225,16.7512078 36.4841692,17.3287272 C35.8924433,17.9059902 35.0904803,18.1944936 34.0782803,18.1944936 L32.1588701,18.1944936 L32.1588701,21.1320755 L30.5757877,21.1320755 L30.5757877,11.8339623 L33.9647986,11.8339623 Z M41.6167221,13.5245283 C42.6309329,13.5245283 43.4507576,13.8716422 44.0763251,14.5654769 C44.7015059,15.2599668 45.0143541,16.1787901 45.0143541,17.3211604 C45.0143541,18.4640549 44.6994434,19.3851058 44.0689776,20.0839199 C43.4381251,20.782996 42.6217807,21.1320755 41.6167221,21.1320755 C40.6130813,21.1320755 39.7949324,20.782996 39.1651111,20.0839199 C38.5343874,19.3851058 38.2197346,18.4640549 38.2197346,17.3211604 C38.2197346,16.1787901 38.5343874,15.2599668 39.1651111,14.5654769 C39.7949324,13.8716422 40.6130813,13.5245283 41.6167221,13.5245283 Z M41.6167221,14.9977641 C41.077133,14.9977641 40.6431158,15.2099111 40.3159593,15.6334189 C39.9898341,16.0574509 39.8263848,16.6219532 39.8263848,17.3284984 C39.8263848,18.043823 39.9898341,18.6110771 40.3159593,19.0301297 C40.6431158,19.4493133 41.077133,19.6588396 41.6167221,19.6588396 C42.1573423,19.6588396 42.5905862,19.4493133 42.9183871,19.0301297 C43.2445124,18.6110771 43.4083484,18.043823 43.4083484,17.3284984 C43.4083484,16.6126497 43.2445124,16.0455266 42.9183871,15.626474 C42.5905862,15.2076835 42.1573423,14.9977641 41.6167221,14.9977641 Z M34.1109609,13.3446637 L32.1588701,13.3446637 L32.1588701,16.6981468 L34.0818829,16.6981468 C34.6118501,16.6981468 35.0258909,16.5526775 35.3237482,16.2616108 C35.6214768,15.9705441 35.7707271,15.5618204 35.7707271,15.035055 C35.7707271,13.9079566 35.2170857,13.3446637 34.1109609,13.3446637 Z" id="Shape" fill="#343534"></path>
                    <path d="M13.3175725,26.4216912 L13.589239,26.2037736 L13.589239,26.2037736 L13.5310761,26.4484365 L13.5310761,26.4484365 L13.4541345,26.7325047 L13.4541345,26.7325047 L13.3415192,27.1050549 L13.3415192,27.1050549 L13.2452284,27.3954144 L13.2452284,27.3954144 L13.1309898,27.7143533 C13.1104078,27.7696526 13.0890432,27.8259636 13.0668784,27.8831968 L12.9241485,28.2369454 C12.6952324,28.782018 12.3986794,29.3872788 12.0217755,29.9874465 C11.6742346,30.5406875 11.2974352,31.027577 10.9392268,31.4388645 L10.6748039,31.7330102 C10.6315637,31.7796237 10.5888008,31.8250199 10.5466087,31.8691805 L10.3010544,32.1191741 L10.3010544,32.1191741 L10.0736864,32.3386488 L10.0736864,32.3386488 L9.77654669,32.6087411 L9.77654669,32.6087411 L9.54555944,32.805288 L9.54555944,32.805288 L9.34260179,32.9660377 L9.34260179,32.9660377 L9.40080494,32.7213774 L9.40080494,32.7213774 L9.47778615,32.4373153 L9.47778615,32.4373153 L9.54875372,32.1978916 L9.54875372,32.1978916 L9.68676276,31.7744299 L9.68676276,31.7744299 L9.80102497,31.4555072 C9.82161041,31.400211 9.84297831,31.3439033 9.86514607,31.2866736 L10.0078901,30.9329483 L10.0078901,30.9329483 L10.1706658,30.561395 C10.3725806,30.1191883 10.6170983,29.6493596 10.9101855,29.1826284 C11.2576908,28.6293093 11.6344651,28.1423649 11.9926559,27.7310387 L12.2570668,27.4368669 L12.2570668,27.4368669 L12.5100228,27.1719186 C12.5509783,27.130244 12.5912695,27.0898231 12.6308032,27.050674 L12.8581649,26.8311856 L12.8581649,26.8311856 L13.0628562,26.6430872 L13.0628562,26.6430872 L13.3175725,26.4216912 L13.3175725,26.4216912 Z M20.5712,5.91688707 C21.0846031,5.91476644 21.5887894,5.95171634 22.0825133,6.02201126 C17.4271351,6.62196425 13.7083876,10.3492687 13.093101,15.0970083 C12.9681075,16.9380306 14.1862379,18.0027924 15.088679,18.5337236 L15.3364961,18.6711016 L15.3364961,18.6711016 L15.5585353,18.7806842 L15.5585353,18.7806842 L15.7461987,18.8637278 L15.7461987,18.8637278 L16.016958,18.9661901 L16.016958,18.9661901 L15.8093546,19.096254 L15.8093546,19.096254 L15.6267321,19.2020133 L15.6267321,19.2020133 L15.3994585,19.3244435 L15.3994585,19.3244435 L15.1357019,19.4541886 C14.7167889,19.6496143 14.2023137,19.8381508 13.7163311,19.8777027 L13.5555624,19.8851739 L13.5665511,19.9182103 C14.8311076,23.6368235 18.0936248,26.4281376 22.0797732,26.9431187 C21.6170627,27.0089075 21.1453845,27.0468874 20.6651121,27.049165 C14.906951,27.0752113 10.2178193,22.3660953 10.1918223,16.5309732 C10.1661302,10.6955935 14.8131634,5.94347664 20.5712,5.91688707 Z M9.1069071,22.0096496 L9.34260179,21.9773585 L9.34260179,21.9773585 L9.15703262,22.1670075 L9.15703262,22.1670075 L8.93236994,22.3805347 L8.93236994,22.3805347 L8.73705506,22.5561968 L8.73705506,22.5561968 L8.50699039,22.7530839 C8.46583056,22.7874089 8.42328289,22.8224246 8.37937742,22.8580341 L8.09989132,23.0780423 L8.09989132,23.0780423 L7.78925976,23.3076538 C7.35496149,23.6181385 6.8414533,23.9418352 6.26411369,24.2291575 C5.99606315,24.3625406 5.72875907,24.4808618 5.46745858,24.5857025 L5.0806677,24.7330507 L5.0806677,24.7330507 L4.70682507,24.8613641 L4.70682507,24.8613641 L4.34987356,24.9718285 L4.34987356,24.9718285 L4.01375603,25.06563 L4.01375603,25.06563 L3.70241534,25.1439545 L3.70241534,25.1439545 L3.29048589,25.2350162 L3.29048589,25.2350162 L2.86476559,25.3133312 L2.86476559,25.3133312 L2.54798231,25.3584906 L2.54798231,25.3584906 L2.73355297,25.1688158 L2.73355297,25.1688158 L2.95821921,24.9552693 L2.95821921,24.9552693 L3.15353827,24.7795978 L3.15353827,24.7795978 L3.38360894,24.582707 L3.38360894,24.582707 L3.64698984,24.3692482 C3.74017502,24.2958507 3.83867167,24.2204671 3.94223956,24.1438726 L4.26791669,23.9112315 C4.66506213,23.6373875 5.12138734,23.358206 5.62659233,23.1069243 C6.028642,22.9067999 6.42901776,22.7405752 6.80997553,22.6029113 L7.18380345,22.4745698 L7.18380345,22.4745698 L7.54074292,22.3640824 L7.54074292,22.3640824 L7.87685081,22.2702625 L7.87685081,22.2702625 L8.18818399,22.1919236 L8.18818399,22.1919236 L8.47079934,22.1278794 L8.47079934,22.1278794 L8.72075372,22.0769433 L8.72075372,22.0769433 L9.1069071,22.0096496 L9.1069071,22.0096496 Z M3.82197346,16.0603774 C4.52565577,16.0603774 5.18488026,16.1542891 5.75109855,16.2795047 L6.11426595,16.3669324 C6.17231981,16.3820476 6.22909225,16.3973775 6.28451669,16.4128362 L6.60035437,16.5064474 L6.60035437,16.5064474 L7.00645778,16.6436435 L7.00645778,16.6436435 L7.2274296,16.7269489 L7.2274296,16.7269489 L7.64394692,16.905583 L7.64394692,16.905583 L7.40486102,17.0122677 L7.40486102,17.0122677 L7.2274296,17.0842498 L7.2274296,17.0842498 L6.88064316,17.2121942 C6.83706836,17.2273121 6.79187916,17.2426448 6.74514216,17.2581064 L6.44667935,17.3517347 C6.34135573,17.3830014 6.23037367,17.4140963 6.11426595,17.4443322 L5.75109855,17.5317759 C5.18488026,17.6570145 4.52565577,17.7509434 3.82197346,17.7509434 C3.11833151,17.7509434 2.45912048,17.6570145 1.89290219,17.5317759 L1.52973295,17.4443322 C1.4716785,17.4292142 1.41490533,17.4138815 1.35948007,17.39842 L1.04363622,17.3047917 C0.99386902,17.2891583 0.94558295,17.273568 0.898844624,17.2581064 L0.637520517,17.1675704 L0.637520517,17.1675704 L0.416539762,17.0842498 L0.416539762,17.0842498 L0,16.905583 L0,16.905583 L0.239099846,16.7989178 L0.239099846,16.7989178 L0.416539762,16.7269489 L0.416539762,16.7269489 L0.637520517,16.6436435 L0.637520517,16.6436435 L0.898844624,16.5531241 L0.898844624,16.5531241 L1.1973146,16.459513 C1.30264029,16.428252 1.41362404,16.3971628 1.52973295,16.3669324 L1.89290219,16.2795047 C2.45912048,16.1542891 3.11833151,16.0603774 3.82197346,16.0603774 Z M2.68434941,6.90315254 L2.54798231,6.76226415 L2.78367819,6.79455413 L2.78367819,6.79455413 L3.05833731,6.8409218 L3.05833731,6.8409218 L3.41979435,6.91277588 L3.41979435,6.91277588 L3.70241534,6.97681473 L3.70241534,6.97681473 L4.01375603,7.05514641 L4.01375603,7.05514641 L4.34987356,7.14895711 L4.34987356,7.14895711 L4.70682507,7.25943307 L4.70682507,7.25943307 L5.0806677,7.38776048 C5.4616416,7.52540902 5.86203788,7.69161407 6.26411369,7.89171357 C6.91362075,8.21491094 7.48234117,8.5841585 7.94837861,8.92884903 L8.24361766,9.1542298 C8.29020869,9.19092864 8.33547196,9.22713059 8.37937742,9.26273881 L8.62627634,9.4684884 L8.62627634,9.4684884 L8.83914633,9.65533926 L8.83914633,9.65533926 L9.01654567,9.81864234 L9.01654567,9.81864234 L9.15703262,9.95374862 L9.15703262,9.95374862 L9.34260179,10.1433962 L9.34260179,10.1433962 L9.1069071,10.1111188 L9.1069071,10.1111188 L8.72075372,10.0438454 L8.72075372,10.0438454 L8.33332784,9.96261786 L8.33332784,9.96261786 L8.03586068,9.89158708 L8.03586068,9.89158708 L7.71164726,9.8056682 L7.71164726,9.8056682 L7.36463069,9.70367426 C7.2455961,9.66686522 7.12341818,9.62717916 6.9987541,9.58441828 L6.61796063,9.44671328 C6.29551268,9.32394231 5.96163372,9.18071718 5.62659233,9.01394681 C4.87349173,8.63927193 4.22900865,8.20265635 3.72726189,7.81416799 L3.44361515,7.58773079 L3.44361515,7.58773079 L3.19586282,7.37812738 L3.19586282,7.37812738 L2.98564262,7.19064103 L2.98564262,7.19064103 L2.68434941,6.90315254 L2.68434941,6.90315254 Z M9.42267516,0.328603547 L9.34260179,0 L9.34260179,0 L9.54555944,0.16074107 L9.84107133,0.414318867 C9.87974056,0.448772587 9.92017849,0.485285064 9.96220894,0.523822252 L10.2320927,0.779069543 C10.7567477,1.29056786 11.431467,2.03881706 12.0217755,2.9785018 C12.3986794,3.57878934 12.6952324,4.18410217 12.9241485,4.72919025 L13.0668784,5.08294406 L13.0668784,5.08294406 L13.1904049,5.41455721 L13.1904049,5.41455721 L13.295565,5.71973338 L13.295565,5.71973338 L13.3831958,5.99417628 L13.3831958,5.99417628 L13.4541345,6.23358962 L13.4541345,6.23358962 L13.5492841,6.59014237 L13.5492841,6.59014237 L13.589239,6.76226415 L13.589239,6.76226415 L13.4459605,6.65018603 L13.4459605,6.65018603 L13.2403909,6.4788107 L13.2403909,6.4788107 L13.0628562,6.32297912 L13.0628562,6.32297912 L12.7470375,6.02902628 C12.7091127,5.99244143 12.6703368,5.95456682 12.6308032,5.91542052 L12.3852571,5.66542678 C12.3430666,5.62126591 12.3003054,5.57586945 12.2570668,5.52925545 L11.9926559,5.23510553 C11.6344651,4.82381026 11.2576908,4.3369039 10.9101855,3.78363054 C10.6170983,3.31680614 10.3725806,2.84691703 10.1706658,2.40467209 L10.0078901,2.03309125 L10.0078901,2.03309125 L9.86514607,1.67934785 L9.86514607,1.67934785 L9.74159866,1.34773937 L9.74159866,1.34773937 L9.63641288,1.04256324 L9.63641288,1.04256324 L9.54875372,0.768116929 L9.54875372,0.768116929 L9.42267516,0.328603547 L9.42267516,0.328603547 Z" id="Shape" fill="#F9C723"></path>
                </g>
            </g>
        </g>
    </g>
</svg>