<?xml version="1.0" encoding="UTF-8"?>
<svg width="24px" height="24px" viewBox="0 0 24 24" version="1.1" xmlns="http://www.w3.org/2000/svg" xmlns:xlink="http://www.w3.org/1999/xlink">
    <title>ic-like-normal</title>
    <g id="Page-2" stroke="none" stroke-width="1" fill="none" fill-rule="evenodd">
        <g id="Product-page-2" transform="translate(-270.000000, -1762.000000)">
            <g id="ic-like-normal" transform="translate(270.000000, 1762.000000)">
                <polygon id="Path" opacity="0.87" points="0 0 24 0 24 24 0 24"></polygon>
                <path d="M21,8 L14.69,8 L15.64,3.43 L15.67,3.11 C15.67,2.7 15.5,2.32 15.23,2.05 L14.17,1 L7.59,7.59 C7.22,7.95 7,8.45 7,9 L7,19 C7,20.1 7.9,21 9,21 L18,21 C18.83,21 19.54,20.5 19.84,19.78 L22.86,12.73 C22.95,12.5 23,12.26 23,12 L23,10 C23,8.9 22.1,8 21,8 Z M21,12 L18,19 L9,19 L9,9 L13.34,4.66 L12.23,10 L21,10 L21,12 Z M1,9 L5,9 L5,21 L1,21 L1,9 Z" id="Shape" fill="#404142" fill-rule="nonzero"></path>
            </g>
        </g>
    </g>
</svg>