<?xml version="1.0" encoding="UTF-8"?>
<svg width="40px" height="40px" viewBox="0 0 40 40" version="1.1" xmlns="http://www.w3.org/2000/svg" xmlns:xlink="http://www.w3.org/1999/xlink">
    <title>ic-pickup</title>
    <g id="Page-2" stroke="none" stroke-width="1" fill="none" fill-rule="evenodd">
        <g id="Product-page-1" transform="translate(-1294.000000, -640.000000)" fill-rule="nonzero">
            <g id="Group-25" transform="translate(1285.467130, 404.000000)">
                <g id="ic-pickup" transform="translate(8.646531, 236.000000)">
                    <path d="M33.2089196,12.9032258 C30.4312631,12.9032258 28.1664735,15.0261699 28.0521567,17.6871762 L28.0476293,17.8983446 L28.0476293,24.3620284 C28.0476293,24.9445361 28.361338,25.4802256 28.8683237,25.7818244 L28.9990271,25.8522388 L30.5370916,26.5965115 C31.0754539,26.8562577 31.4305751,27.3671194 31.4820236,27.9405145 L31.4884895,28.0850569 L31.4884895,37.0463001 C31.4884895,37.9170282 32.1802453,38.6323402 33.0605437,38.7038109 L33.2089196,38.7096774 L29.3379518,38.7096774 C28.4382574,38.7096774 27.6991492,38.0401906 27.6238406,37.1882339 L27.6175217,37.044635 L27.6175217,28.0833919 C27.6175217,27.5024211 27.303813,26.9654311 26.7968272,26.6649327 L26.6661239,26.5948465 L25.1280594,25.8505738 C24.5896971,25.5908276 24.2345759,25.0799659 24.1831274,24.5065708 L24.1766615,24.3620284 L24.1766615,17.8983446 C24.1766615,15.2101168 26.3702291,13.0182438 29.1197585,12.9076075 L29.3379518,12.9032258 L33.2089196,12.9032258 Z M16.1835276,2.83775129 L19.6262112,4.51213268 L8.0966218,10.1247109 L19.6262112,15.7372891 L16.1835276,17.4116705 L4.85749327,11.8973226 L4.85797308,25.1034612 L18.0149835,32.3936595 L16.1932436,33.4024986 L1.21449327,25.1034612 L1.21449327,10.1247109 L16.1835276,2.83775129 Z M31.2734357,1.29032258 C31.9822529,1.29032258 32.6377368,1.49505376 33.2089196,1.82709677 C32.0562314,2.49806452 31.2734357,3.7316129 31.2734357,5.16129032 C31.2734357,6.59096774 32.0562314,7.82451613 33.2089196,8.49548387 C32.6377368,8.82752688 31.9822529,9.03225806 31.2734357,9.03225806 C29.1349411,9.03225806 27.402468,7.29978495 27.402468,5.16129032 C27.402468,3.0227957 29.1349411,1.29032258 31.2734357,1.29032258 Z" id="Shape" fill="#D5DBE1"></path>
                    <path d="M33.3702099,11.6129032 C36.8374357,11.6129032 39.6605325,14.421556 39.6605325,17.8747628 L39.6605325,24.3570398 C39.6605325,25.4708159 39.0382099,26.4727135 38.0367905,26.9703226 L36.5355002,27.7167362 C36.394597,27.7885389 36.3056938,27.9321442 36.3056938,28.090778 L36.3056938,37.0777989 C36.3056938,38.6891841 34.9889196,40 33.3702099,40 L29.1766615,40 C27.5579518,40 26.2411776,38.6891841 26.2411776,37.0777989 L26.2411776,28.090778 C26.2411776,27.9321442 26.1522744,27.7885389 26.0096938,27.7167362 L24.5084034,26.9703226 C23.5086615,26.4727135 22.8863389,25.4708159 22.8863389,24.3570398 L22.8863389,17.8747628 C22.8863389,14.421556 25.7094357,11.6129032 29.1766615,11.6129032 L33.3702099,11.6129032 Z M33.3718873,14.1176471 L29.1766615,14.1176471 C27.0966615,14.1176471 25.402468,15.8025047 25.402468,17.8747628 L25.402468,24.3570398 C25.402468,24.5156736 25.4913712,24.6592789 25.6339518,24.7310816 L27.1352422,25.4774953 C28.1349841,25.9751044 28.7573067,26.9770019 28.7573067,28.090778 L28.7573067,37.0777989 C28.7573067,37.3082353 28.9451776,37.4952562 29.1766615,37.4952562 L33.3702099,37.4952562 C33.6016938,37.4952562 33.7895647,37.3082353 33.7895647,37.0777989 L33.7895647,28.090778 C33.7895647,26.9770019 34.4118873,25.9751044 35.4133067,25.4774953 L36.914597,24.7310816 C37.0571776,24.6609488 37.1460809,24.5173435 37.1460809,24.3570398 L37.1460809,17.8747628 C37.1460809,15.8025047 35.4518873,14.1176471 33.3718873,14.1176471 Z M16.714666,1.74470735 L23.7642959,5.17185891 C23.8105366,6.27193623 24.0846794,7.31414577 24.5407417,8.25207673 L23.226,7.61225802 L11.236,13.652258 L16.1932436,16.066012 L20.4909436,13.9724016 C20.1442719,14.8367992 19.9361931,15.7706654 19.8942333,16.7466619 L19.888,16.9677901 L16.7340979,18.5047145 C16.4037558,18.6666469 15.9811121,18.6666469 15.6507699,18.5047145 L9.715,15.614258 L9.71594615,19.8244638 L7.28695962,19.8244638 L7.286,14.431258 L2.42898654,12.0662808 L2.42898654,24.3893392 L15.571423,31.7345945 L14.3860776,33.8542901 L0.621820554,26.1624994 C0.238040681,25.9487485 0,25.5422981 0,25.1034612 L0,10.1247109 C0,9.7053059 0.21537014,9.31666805 0.571621499,9.09482061 L0.68335488,9.03166696 L15.6523893,1.74470735 C15.9875894,1.58277491 16.3794659,1.58277491 16.714666,1.74470735 Z M16.1835276,4.18826781 L3.991,10.124258 L8.491,12.315258 L20.478,6.27625802 L16.1835276,4.18826781 Z M31.5960163,0 C34.2637583,0 36.434726,2.17096774 36.434726,4.83870968 C36.434726,7.50645161 34.2637583,9.67741935 31.5960163,9.67741935 C28.9282744,9.67741935 26.7573067,7.50645161 26.7573067,4.83870968 C26.7573067,2.17096774 28.9282744,0 31.5960163,0 Z M31.5960163,2.41935484 C30.2621454,2.41935484 29.1766615,3.50483871 29.1766615,4.83870968 C29.1766615,6.17258065 30.2621454,7.25806452 31.5960163,7.25806452 C32.9298873,7.25806452 34.0153712,6.17258065 34.0153712,4.83870968 C34.0153712,3.50483871 32.9298873,2.41935484 31.5960163,2.41935484 Z" id="Shape" fill="#404142"></path>
                </g>
            </g>
        </g>
    </g>
</svg>