<?xml version="1.0" encoding="UTF-8"?>
<svg width="43px" height="26px" viewBox="0 0 43 26" version="1.1" xmlns="http://www.w3.org/2000/svg" xmlns:xlink="http://www.w3.org/1999/xlink">
    <title>ic-ukdelivery</title>
    <g id="Page-2" stroke="none" stroke-width="1" fill="none" fill-rule="evenodd">
        <g id="Product-page-1" transform="translate(-1293.000000, -567.000000)" fill-rule="nonzero">
            <g id="Group-25" transform="translate(1285.467130, 404.000000)">
                <g id="ic-ukdelivery" transform="translate(8.431109, 163.872146)">
                    <path d="M33.3985649,17.3672538 C34.1662866,17.3672538 34.8591955,17.6558174 35.4024788,18.1153816 C34.7273825,18.687165 34.2891933,19.5296995 34.2891933,20.4844531 C34.2891933,21.4392068 34.7273825,22.2817412 35.4024788,22.8535247 C34.8591955,23.3130889 34.1662866,23.6016525 33.3985649,23.6016525 C31.6760896,23.6016525 30.2813655,22.2051472 30.2813655,20.4844531 C30.2813655,18.7637591 31.6760896,17.3672538 33.3985649,17.3672538 Z M13.8047402,17.3672538 C14.5724618,17.3672538 15.2653707,17.6558174 15.8086541,18.1153816 C15.1335577,18.687165 14.6953686,19.5296995 14.6953686,20.4844531 C14.6953686,21.4392068 15.1335577,22.2817412 15.8086541,22.8535247 C15.2653707,23.3130889 14.5724618,23.6016525 13.8047402,23.6016525 C12.0840461,23.6016525 10.6875408,22.2051472 10.6875408,20.4844531 C10.6875408,18.7637591 12.0840461,17.3672538 13.8047402,17.3672538 Z M11.132855,1.3359426 L7.57034138,20.0391389 L3.56251359,20.0391389 L7.12502718,1.3359426 L11.132855,1.3359426 Z M30.47196,6.67971298 L27.6094803,20.0391389 L23.6016525,20.0391389 L26.4641322,6.67971298 L30.47196,6.67971298 Z" id="Shape" fill="#D5DBE1"></path>
                    <path d="M27.6094803,0 C28.0138256,0 28.3950146,0.18346945 28.647953,0.495189389 C28.9026728,0.810471842 29.0006419,1.2201609 28.9151416,1.61559991 L28.116,5.343 L32.9532507,5.34377038 C37.6183623,5.34377038 41.4142205,9.13962861 41.4142205,13.8047402 C41.4142205,13.8991468 41.4053142,13.9917721 41.3839391,14.0843975 L40.0479965,20.3187963 C39.9161835,20.9351111 39.3729002,21.3750815 38.7423353,21.3750815 L37.7621144,21.3757731 C37.3480536,23.4061552 35.5481748,24.9375951 33.3985649,24.9375951 C31.248955,24.9375951 29.4490762,23.4061552 29.0350154,21.3757731 L18.1682897,21.3757731 C17.7542288,23.4061552 15.9543501,24.9375951 13.8047402,24.9375951 C11.6551303,24.9375951 9.85525149,23.4061552 9.44119066,21.3757731 L3.56251359,21.3750815 L3.56251359,18.7031963 L9.72315218,18.7038095 C10.4116126,17.1317925 11.9825193,16.0313112 13.8047402,16.0313112 C15.626961,16.0313112 17.1978677,17.1317925 17.8863281,18.7038095 L22.521,18.703 L25.9582553,2.67188519 L7.12502718,2.67188519 L7.12502718,0 L27.6094803,0 Z M33.3985649,18.7031963 C32.4170924,18.7031963 31.6173081,19.5011994 31.6173081,20.4844531 C31.6173081,21.4677069 32.4170924,22.2657099 33.3985649,22.2657099 C34.3800374,22.2657099 35.1798217,21.4677069 35.1798217,20.4844531 C35.1798217,19.5011994 34.3800374,18.7031963 33.3985649,18.7031963 Z M13.8047402,18.7031963 C12.8232677,18.7031963 12.0234834,19.5011994 12.0234834,20.4844531 C12.0234834,21.4677069 12.8232677,22.2657099 13.8047402,22.2657099 C14.7862127,22.2657099 15.585997,21.4677069 15.585997,20.4844531 C15.585997,19.5011994 14.7862127,18.7031963 13.8047402,18.7031963 Z M32.9532507,8.01565558 L27.5435738,8.01565558 L25.253,18.703 L29.3169769,18.7038095 C30.0054374,17.1317925 31.576344,16.0313112 33.3985649,16.0313112 C35.2207858,16.0313112 36.7916924,17.1317925 37.4801529,18.7038095 L37.6628937,18.7031963 L38.740554,13.6711459 C38.6693038,10.5396965 36.1007315,8.01565558 32.9532507,8.01565558 Z M9.79691237,14.2500544 L9.79691237,16.9219396 L0,16.9219396 L0,14.2500544 L9.79691237,14.2500544 Z M9.79691237,8.90628397 L9.79691237,11.5781692 L1.78125679,11.5781692 L1.78125679,8.90628397 L9.79691237,8.90628397 Z M9.79691237,3.56251359 L9.79691237,6.23439878 L3.56251359,6.23439878 L3.56251359,3.56251359 L9.79691237,3.56251359 Z" id="Shape" fill="#404142"></path>
                </g>
            </g>
        </g>
    </g>
</svg>