<?xml version="1.0" encoding="UTF-8"?>
<svg width="94px" height="68px" viewBox="0 0 94 68" version="1.1" xmlns="http://www.w3.org/2000/svg" xmlns:xlink="http://www.w3.org/1999/xlink">
    <title>icon-freeship</title>
    <g id="Top-menu-responsive" stroke="none" stroke-width="1" fill="none" fill-rule="evenodd">
        <g id="Home-full" transform="translate(-270.000000, -8346.000000)" fill="#FFFFFF">
            <g id="Group-36" transform="translate(0.000000, 7948.000000)">
                <g id="Group-27" transform="translate(0.000000, 94.000000)">
                    <g id="icon-freeship" transform="translate(270.000000, 304.000000)">
                        <g id="fast" opacity="0.6" transform="translate(0.000000, 11.000000)" fill-rule="nonzero">
                            <path d="M18.341129,41.6435484 C17.133871,41.1858871 15.8141129,41.2675403 14.6239919,41.8729839 C13.4826613,42.453629 12.5959677,43.4544355 12.1274194,44.691129 C11.1407258,47.2957661 12.3225806,50.1665323 14.7616935,51.0907258 C15.2772177,51.2860887 15.8131048,51.3830645 16.3508065,51.3830645 C17.072379,51.3830645 17.7969758,51.2082661 18.4788306,50.8612903 C19.6201613,50.2806452 20.5068548,49.2798387 20.9754032,48.0431452 C21.9622984,45.4389113 20.7804435,42.5677419 18.341129,41.6435484 Z M18.147379,46.9717742 C17.9461694,47.5032258 17.5768145,47.9272177 17.1076613,48.1659274 C16.6868952,48.3800403 16.2342742,48.4145161 15.8334677,48.2625 C14.953629,47.9292339 14.559879,46.8074597 14.9556452,45.7625 C15.1568548,45.2310484 15.5262097,44.8070565 15.9953629,44.5683468 C16.2433468,44.4421371 16.502621,44.3784274 16.7556452,44.3784274 C16.9318548,44.3784274 17.1050403,44.4092742 17.2697581,44.4717742 C18.1495968,44.8050403 18.5433468,45.9266129 18.147379,46.9717742 Z" id="Shape"></path>
                            <path d="M76.5959677,41.6435484 C74.1572581,40.7199597 71.3691532,42.0864919 70.3824597,44.6909274 C69.3957661,47.2955645 70.577621,50.1663306 73.0167339,51.0905242 C73.5322581,51.2858871 74.0681452,51.3828629 74.6058468,51.3828629 C75.3274194,51.3828629 76.0520161,51.2080645 76.733871,50.8610887 C77.8752016,50.2804435 78.7618952,49.2796371 79.2304435,48.0429435 C80.2171371,45.4389113 79.0352823,42.5677419 76.5959677,41.6435484 Z M76.4022177,46.9717742 C76.2010081,47.5032258 75.8316532,47.9272177 75.3625,48.1659274 C74.9415323,48.3800403 74.4893145,48.4145161 74.0883065,48.2625 C73.2084677,47.9292339 72.8147177,46.8074597 73.2104839,45.7625 C73.5306452,44.9177419 74.2701613,44.3774194 75.0066532,44.3774194 C75.18125,44.3774194 75.3556452,44.4076613 75.5243952,44.4717742 C76.4044355,44.8050403 76.7981855,45.9266129 76.4022177,46.9717742 Z" id="Shape"></path>
                            <path d="M92.2608871,20.2852823 C92.2606855,20.2850806 92.2606855,20.2850806 92.2604839,20.284879 C90.0457661,17.7766129 87.7592742,15.1616935 85.2709677,12.291129 C84.5300403,11.4358871 83.4247984,10.9445565 82.2383065,10.9429435 L69.5284274,10.9258065 C69.9145161,8.53487903 70.2877016,6.15483871 70.6306452,3.82379032 C70.7693548,2.85262097 70.4943548,1.88709677 69.8768145,1.17459677 C69.2580645,0.461290323 68.3395161,0.052016129 67.3564516,0.0516129032 C56.7727823,0.0483870968 51.1252016,0.0447580645 42.1572581,0.0389112903 L36.4477823,0.0350806452 C36.447379,0.0350806452 36.4471774,0.0350806452 36.4467742,0.0350806452 C35.6120968,0.0350806452 34.9352823,0.711290323 34.9346774,1.54616935 C34.9340726,2.38145161 35.6108871,3.05866935 36.4457661,3.05927419 L42.1552419,3.06310484 C51.1235887,3.06875 56.7711694,3.07258065 67.3554435,3.07580645 C67.4631048,3.07580645 67.5471774,3.10443548 67.5919355,3.15584677 C67.6481855,3.22076613 67.647379,3.32258065 67.6379032,3.39012097 C66.9038306,8.38084677 66.0304435,13.6137097 65.1762097,18.7046371 C63.9298387,26.052621 62.6554435,33.5893145 61.69375,40.9391129 C61.6897177,40.96875 61.6854839,40.9987903 61.6816532,41.0284274 C61.2135081,41.0282258 60.7449597,41.0282258 60.2760081,41.0280242 C59.6824597,41.0278226 59.0893145,41.027621 58.4949597,41.0272177 C57.7324597,41.0268145 56.9691532,41.0260081 56.2058468,41.0254032 C55.7362903,41.025 55.2671371,41.0245968 54.797379,41.0241935 C53.9104839,41.0231855 53.0233871,41.0221774 52.1362903,41.0209677 C51.7870968,41.0205645 51.4381048,41.0201613 51.0889113,41.0195565 C50.0554435,41.0181452 49.0225806,41.0165323 47.9903226,41.0147177 C47.7796371,41.0143145 47.5685484,41.0141129 47.3578629,41.0137097 C44.9298387,41.0096774 42.5070565,41.0048387 40.0955645,40.9997984 C39.9929435,40.9995968 39.8897177,40.9993952 39.7872984,40.9991935 C37.2703629,40.9939516 34.7663306,40.9883065 32.2832661,40.9828629 L24.627621,40.966129 C23.875,39.6207661 22.8252016,38.5209677 21.5530242,37.7405242 C21.5127016,37.7157258 21.4725806,37.6905242 21.4316532,37.6663306 C21.3635081,37.6260081 21.2945565,37.5872984 21.2254032,37.5487903 C21.166129,37.5159274 21.1066532,37.4836694 21.0465726,37.4522177 C20.9866935,37.4209677 20.9268145,37.3897177 20.866129,37.359879 C20.7889113,37.3215726 20.7106855,37.2850806 20.6320565,37.2491935 C20.5836694,37.2270161 20.5358871,37.2042339 20.4870968,37.1828629 C20.3570565,37.1262097 20.2258065,37.0717742 20.0925403,37.021371 C19.9558468,36.9695565 19.8181452,36.9217742 19.6794355,36.8772177 C19.603629,36.8528226 19.5272177,36.8316532 19.4508065,36.8092742 C19.391129,36.7919355 19.3318548,36.7733871 19.2719758,36.7574597 C19.1667339,36.7290323 19.0610887,36.7042339 18.9550403,36.6800403 C18.9270161,36.6735887 18.8989919,36.6665323 18.8709677,36.6604839 C18.7439516,36.6326613 18.6165323,36.6084677 18.4887097,36.5864919 C18.4846774,36.5858871 18.4808468,36.5850806 18.4768145,36.5844758 C17.1064516,36.3512097 15.6977823,36.4532258 14.3358871,36.8862903 C14.3322581,36.8875 14.3284274,36.8885081 14.3247984,36.8897177 C14.216129,36.9243952 14.1078629,36.9620968 14,37.0010081 C13.9582661,37.0159274 13.9163306,37.0306452 13.8745968,37.046371 C13.7905242,37.0780242 13.7066532,37.1114919 13.6229839,37.1455645 C13.5875,37.159879 13.5518145,37.1727823 13.5165323,37.1875 C13.4820565,37.2020161 13.4483871,37.2181452 13.4141129,37.2328629 C13.3633065,37.2550403 13.3125,37.2774194 13.2618952,37.3004032 C13.1606855,37.3465726 13.0604839,37.3947581 12.9608871,37.4443548 C12.9372984,37.4560484 12.9133065,37.4663306 12.8899194,37.4784274 C12.8836694,37.4816532 12.877621,37.4852823 12.8715726,37.4883065 C12.7481855,37.5514113 12.6260081,37.6173387 12.5052419,37.6858871 C12.4546371,37.7145161 12.4052419,37.7447581 12.3552419,37.7741935 C12.2881048,37.8139113 12.2211694,37.853629 12.1548387,37.8949597 C12.0868952,37.9370968 12.0199597,37.9802419 11.9530242,38.0239919 C11.9133065,38.05 11.8739919,38.0766129 11.8346774,38.1032258 C10.728629,38.8502016 9.77600806,39.8137097 9.02681452,40.9433468 L7.42862903,40.9415323 C6.23669355,40.9399194 5.04475806,40.9383065 3.85302419,40.9375 C4.13306452,39.2100806 4.59778226,36.340121 5.1483871,32.9379032 C5.28185484,32.1135081 4.72177419,31.3370968 3.89737903,31.203629 C3.07016129,31.0679435 2.29657258,31.6304435 2.16310484,32.4546371 C1.25745968,38.0510081 0.583669355,42.2068548 0.583669355,42.2068548 C0.583064516,42.2104839 0.583064516,42.2141129 0.582459677,42.2179435 C0.581854839,42.2217742 0.580846774,42.2254032 0.580241935,42.2292339 L0.278024194,44.2860887 C0.113306452,45.4070565 0.443346774,46.5417339 1.18346774,47.3987903 C1.9233871,48.2556452 2.99697581,48.747379 4.12923387,48.7475806 L7.38991935,48.7491935 C7.50645161,49.3794355 7.68245968,49.9985887 7.91915323,50.5983871 C8.87258065,53.0137097 10.6806452,54.8300403 13.0108871,55.7129032 C14.0060484,56.0899194 15.0316532,56.26875 16.0495968,56.26875 C19.8983871,56.26875 23.6354839,53.7112903 25.1796371,49.6358871 C25.2887097,49.3481855 25.3836694,49.0574597 25.4673387,48.7653226 C36.1247984,48.7772177 47.9677419,48.7931452 58.3649194,48.8068548 L62.4574597,48.8122984 C62.4586694,48.8122984 62.459879,48.8125 62.4612903,48.8125 C63.4346774,48.8108871 64.4118952,48.8139113 65.3870968,48.8155242 L65.6576613,48.8159274 C65.7741935,49.4231855 65.9455645,50.0197581 66.1739919,50.5983871 C67.1274194,53.0137097 68.9354839,54.8300403 71.2657258,55.7129032 C72.2558468,56.0879032 73.2870968,56.2743952 74.3235887,56.2743952 C75.7258065,56.2743952 77.1372984,55.9330645 78.4683468,55.2560484 C80.7344758,54.1030242 82.4981855,52.1072581 83.4346774,49.6358871 C83.5346774,49.3717742 83.6219758,49.1050403 83.7006048,48.8370968 L83.7824597,48.8370968 C84.3832661,48.8381048 84.9844758,48.8391129 85.5854839,48.8391129 C87.7254032,48.8387097 89.6554435,47.1997984 89.9796371,45.10625 C91.0971774,37.8381048 92.2655242,30.1782258 93.1881048,23.4387097 C93.3449597,22.2806452 93.0070565,21.13125 92.2608871,20.2852823 Z M7.62560484,44.0018145 C7.60846774,44.0622984 7.59354839,44.1231855 7.57762097,44.1836694 C7.55403226,44.2729839 7.53024194,44.3620968 7.50907258,44.4518145 C7.49112903,44.5278226 7.47540323,44.6040323 7.45907258,44.6800403 C7.44375,44.7516129 7.42802419,44.8231855 7.41431452,44.8947581 C7.39576613,44.990121 7.37983871,45.0856855 7.36391129,45.18125 C7.35584677,45.2304435 7.34737903,45.2794355 7.34012097,45.328629 C7.32237903,45.4461694 7.30725806,45.5637097 7.29354839,45.68125 C7.29193548,45.6957661 7.28931452,45.7102823 7.28770161,45.7247984 L4.13004032,45.7231855 C3.78366935,45.7229839 3.56935484,45.5342742 3.47217742,45.4221774 C3.375,45.3092742 3.21915323,45.0691532 3.26955645,44.7254032 L3.38185484,43.9618952 C4.72923387,43.9627016 6.07681452,43.9635081 7.42439516,43.9653226 L7.63487903,43.9655242 C7.63165323,43.9778226 7.62903226,43.9899194 7.62560484,44.0018145 Z M22.7614919,47.016129 C22.7600806,47.0243952 22.7600806,47.0328629 22.758871,47.041129 C22.6756048,47.553629 22.541129,48.0641129 22.3514113,48.5647177 C20.9897177,52.1582661 17.2806452,54.0969758 14.0820565,52.8850806 C12.5582661,52.3078629 11.3685484,51.1014113 10.7318548,49.4883065 C10.4485887,48.7701613 10.2895161,48.0100806 10.2532258,47.2358871 C10.2532258,47.2169355 10.2546371,47.1979839 10.2538306,47.1790323 C10.2389113,46.797379 10.2532258,46.4167339 10.2959677,46.0389113 C10.2961694,46.0364919 10.2965726,46.0340726 10.2967742,46.0318548 C10.3096774,45.9189516 10.3258065,45.8064516 10.3439516,45.6939516 C10.3475806,45.6711694 10.3512097,45.6483871 10.3552419,45.6256048 C10.3709677,45.5334677 10.3889113,45.4415323 10.4080645,45.3495968 C10.4155242,45.3143145 10.422379,45.2788306 10.4304435,45.2435484 C10.4485887,45.1622984 10.4689516,45.0814516 10.4897177,45.0006048 C10.5004032,44.9596774 10.5100806,44.9185484 10.521371,44.8774194 C10.5433468,44.7971774 10.5679435,44.7171371 10.5927419,44.6372984 C10.6048387,44.5983871 10.6157258,44.5592742 10.6284274,44.5205645 C10.6667339,44.4032258 10.7074597,44.2862903 10.7516129,44.1701613 C10.7524194,44.1683468 10.7532258,44.1663306 10.7538306,44.1645161 C10.8110887,44.0139113 10.8743952,43.8653226 10.9405242,43.7185484 C10.9546371,43.6872984 10.96875,43.65625 10.9830645,43.6252016 C11.0528226,43.4758065 11.1260081,43.3282258 11.2044355,43.184879 C11.2104839,43.1739919 11.2169355,43.1633065 11.2229839,43.1524194 C12.6239919,40.6177419 15.2893145,39.2143145 17.8004032,39.5447581 C17.8502016,39.5516129 17.9002016,39.5568548 17.95,39.565121 C18.0137097,39.5752016 18.0770161,39.5877016 18.1403226,39.6002016 C18.2625,39.6247984 18.3842742,39.6512097 18.5050403,39.683871 C18.533871,39.6915323 18.5625,39.7008065 18.5913306,39.7090726 C18.7356855,39.7508065 18.8792339,39.7961694 19.0207661,39.8497984 C19.1135081,39.884879 19.2048387,39.9225806 19.2949597,39.9622984 C19.3514113,39.9872984 19.4066532,40.0145161 19.4622984,40.0413306 C19.4941532,40.0566532 19.5266129,40.0709677 19.5582661,40.0868952 C19.6344758,40.1254032 19.7094758,40.1663306 19.783871,40.2082661 C19.7929435,40.2135081 19.8024194,40.2181452 19.8114919,40.2231855 C20.9,40.8467742 21.7667339,41.833871 22.2969758,43.0719758 C22.8165323,44.2858871 22.9772177,45.6497984 22.7614919,47.016129 Z M61.1050403,45.7864919 L58.3691532,45.7826613 C48.1060484,45.7691532 36.4304435,45.7532258 25.8806452,45.7415323 C25.875,45.1534274 25.8203629,44.5685484 25.7145161,43.9929435 L32.2764113,44.0072581 C36.7497984,44.0171371 41.2921371,44.0272177 45.8552419,44.0354839 C46.2211694,44.0360887 46.5866935,44.0368952 46.9528226,44.0375 C47.6578629,44.0387097 48.3633065,44.0397177 49.0689516,44.0409274 C49.6641129,44.0419355 50.2590726,44.0427419 50.8544355,44.04375 C51.4028226,44.0445565 51.9510081,44.0451613 52.4995968,44.0459677 C53.2556452,44.0469758 54.0110887,44.0479839 54.7669355,44.0485887 C55.2155242,44.0489919 55.6637097,44.0493952 56.1122984,44.0497984 C56.9491935,44.0506048 57.7854839,44.0512097 58.621371,44.0518145 C59.0241935,44.0520161 59.4264113,44.0522177 59.8290323,44.0524194 C60.3207661,44.052621 60.8133065,44.0530242 61.3042339,44.0532258 C61.2354839,44.6324597 61.1689516,45.2102823 61.1050403,45.7864919 Z M81.0070565,47.0760081 C81.0060484,47.0820565 81.0060484,47.0881048 81.0050403,47.0941532 C80.9211694,47.5887097 80.7895161,48.08125 80.6064516,48.5647177 C79.9375,50.3308468 78.6909274,51.75 77.0969758,52.5606855 C75.5512097,53.3469758 73.8610887,53.4622984 72.3372984,52.884879 C70.8135081,52.3076613 69.6237903,51.1012097 68.9870968,49.4881048 C68.7076613,48.7798387 68.5495968,48.0306452 68.5104839,47.2675403 C68.5102823,47.2566532 68.5110887,47.2457661 68.5106855,47.234879 C68.4927419,46.8524194 68.5046371,46.4705645 68.5449597,46.091129 C68.5469758,46.0719758 68.5495968,46.0530242 68.5518145,46.033871 C68.5631048,45.9356855 68.5764113,45.8377016 68.5917339,45.7399194 C68.5977823,45.7016129 68.6040323,45.6635081 68.6104839,45.6254032 C68.6239919,45.5459677 68.6391129,45.4665323 68.6552419,45.3872984 C68.6649194,45.340121 68.6743952,45.2931452 68.684879,45.2459677 C68.7010081,45.1731855 68.7191532,45.1008065 68.7375,45.0284274 C68.75,44.9794355 68.7618952,44.9302419 68.7754032,44.88125 C68.796371,44.8048387 68.8195565,44.728629 68.8431452,44.6524194 C68.8564516,44.6094758 68.8685484,44.5663306 68.8824597,44.5235887 C68.9211694,44.4052419 68.9620968,44.2872984 69.0066532,44.1697581 C69.6756048,42.403629 70.9221774,40.9842742 72.516129,40.1735887 C72.6211694,40.1201613 72.7272177,40.0703629 72.8334677,40.0229839 C72.8677419,40.0076613 72.9024194,39.9941532 72.9368952,39.9794355 C73.0094758,39.9485887 73.0820565,39.9185484 73.1550403,39.8907258 C73.1957661,39.8752016 73.2364919,39.8608871 73.2772177,39.8461694 C73.3451613,39.8217742 73.4131048,39.7983871 73.4814516,39.7764113 C73.5235887,39.7629032 73.5659274,39.7497984 73.6082661,39.7372984 C73.6766129,39.7169355 73.7451613,39.6981855 73.8137097,39.6802419 C73.8550403,39.6695565 73.8961694,39.6586694 73.9375,39.6487903 C74.0108871,39.63125 74.0844758,39.6159274 74.1580645,39.6014113 C74.1941532,39.5941532 74.2302419,39.5862903 74.2663306,39.5796371 C74.3633065,39.5622984 74.4604839,39.547379 74.5576613,39.534879 C74.5701613,39.5332661 74.5824597,39.5308468 74.5949597,39.5294355 C74.7054435,39.5159274 74.8159274,39.5060484 74.9264113,39.4989919 C74.95625,39.4971774 74.9860887,39.4967742 75.0157258,39.4953629 C75.0957661,39.4915323 75.1758065,39.4885081 75.2558468,39.4878767 C75.2836694,39.4877016 75.3114919,39.4887097 75.3395161,39.4889113 C75.4895161,39.490121 75.6391129,39.4957661 75.7881048,39.5090726 C75.7921371,39.5094758 75.796371,39.5094758 75.8004032,39.509879 C75.9512097,39.5235887 76.1010081,39.5449597 76.2502016,39.5709677 C76.2772177,39.5756048 76.3040323,39.5800403 76.3310484,39.5850806 C76.475,39.6122984 76.6181452,39.6449597 76.7602823,39.6836694 C76.7862903,39.6907258 76.8122984,39.6987903 76.8383065,39.70625 C76.9852823,39.7485887 77.1316532,39.7949597 77.2760081,39.8495968 C77.3641129,39.8830645 77.4508065,39.9189516 77.5366935,39.9564516 C77.5893145,39.9796371 77.6409274,40.0044355 77.6925403,40.0292339 C77.721371,40.0429435 77.7504032,40.05625 77.7790323,40.0703629 C80.1566532,41.2586694 81.4995968,44.1102823 81.0070565,47.0760081 Z M90.1915323,23.0308468 C89.2721774,29.7455645 88.10625,37.3913306 86.9907258,44.6453629 C86.8959677,45.2574597 86.2260081,45.815121 85.5852823,45.815121 C85.102621,45.815121 84.6197581,45.8145161 84.1370968,45.8137097 C84.133871,44.5542339 83.9016129,43.3084677 83.4389113,42.1360887 C82.5858871,39.9747984 81.0471774,38.2953629 79.0637097,37.3330645 C79.0054435,37.3046371 78.9467742,37.2770161 78.8877016,37.2497984 C78.8330645,37.2247984 78.778629,37.1993952 78.7233871,37.1756048 C78.5993952,37.1217742 78.4743952,37.0697581 78.3471774,37.0215726 C76.3082661,36.2489919 74.0949597,36.2766129 72.0229839,37.0846774 C71.7270161,37.2 71.433871,37.3314516 71.1445565,37.478629 C68.8784274,38.6314516 67.1147177,40.6274194 66.1782258,43.0987903 C66.1044355,43.2935484 66.0385081,43.4899194 65.9764113,43.6868952 C65.9582661,43.7441532 65.9413306,43.8014113 65.9241935,43.8586694 C65.8766129,44.0183468 65.8328629,44.1784274 65.7929435,44.3391129 C65.7824597,44.3814516 65.7705645,44.4233871 65.7604839,44.4657258 C65.7135081,44.6649194 65.6729839,44.8649194 65.6377016,45.065121 C65.6302419,45.1070565 65.6241935,45.1491935 65.6173387,45.1913306 C65.5872984,45.3745968 65.5618952,45.5580645 65.5415323,45.7417339 C65.5397177,45.7586694 65.5362903,45.7752016 65.5346774,45.7921371 L65.3917339,45.7919355 C64.9778226,45.791129 64.5637097,45.7905242 64.1493952,45.790121 C64.2669355,44.7641129 64.3907258,43.7288306 64.4600806,43.1520161 C64.484879,42.9520161 64.5086694,42.7528226 64.5340726,42.5524194 C65.4709677,35.222379 66.7675403,27.4933468 68.0227823,20.0155242 C68.0647177,19.7655242 68.1070565,19.5133065 68.1489919,19.2627016 C68.1633065,19.178629 68.177621,19.0941532 68.1917339,19.0100806 C68.4804435,17.3082661 68.7667339,15.6197581 69.046371,13.9502016 L82.2340726,13.9679435 C82.5487903,13.9683468 82.8155242,14.0764113 82.9854839,14.2725806 C85.4798387,17.1502016 87.7719758,19.7715726 89.9929435,22.2866935 C90.1604839,22.4758065 90.2308468,22.7409274 90.1915323,23.0308468 Z" id="Shape"></path>
                            <path d="M87.4489919,23.0679435 C85.6268145,20.991129 83.8231855,18.9209677 82.0891129,16.9145161 C81.6145161,16.3659274 80.9122984,16.0508065 80.1620968,16.0497984 L72.9629032,16.0399194 C72.9618952,16.0399194 72.9606855,16.0399194 72.9596774,16.0399194 C71.5804435,16.0399194 70.3284274,17.0995968 70.1086694,18.4532258 L69.8915323,19.7866935 C69.4010081,22.7995968 68.89375,25.9155242 68.409879,28.983871 C68.409879,28.9840726 68.4096774,28.9842742 68.4096774,28.9846774 C68.2945565,29.7181452 68.497379,30.4534274 68.9663306,31.0024194 C69.4423387,31.5596774 70.152621,31.8798387 70.915121,31.8802419 L84.5508065,31.8903226 C84.5514113,31.8903226 84.5520161,31.8903226 84.552621,31.8903226 C85.9546371,31.8903226 87.2084677,30.81875 87.4070565,29.4497984 C87.6606855,27.7034274 87.7868952,26.8306452 88.0364919,25.0850806 C88.1417339,24.3489919 87.9278226,23.6137097 87.4489919,23.0679435 Z M84.4360887,28.866129 L71.4919355,28.8564516 C71.9459677,25.9889113 72.4185484,23.0862903 72.8766129,20.2725806 L73.0733871,19.0643145 L79.9580645,19.0737903 C81.5967742,20.9685484 83.2953629,22.9183468 85.0116935,24.8754032 C84.7895161,26.4274194 84.6645161,27.2925403 84.4360887,28.866129 Z" id="Shape"></path>
                        </g>
                        <text id="0£" font-family="PTSans-Bold, PT Sans" font-size="40" font-weight="bold">
                            <tspan x="9" y="41">0</tspan>
                            <tspan x="31.68" y="41" font-size="24">£</tspan>
                        </text>
                    </g>
                </g>
            </g>
        </g>
    </g>
</svg>