<?xml version="1.0" encoding="UTF-8"?>
<svg width="96px" height="96px" viewBox="0 0 96 96" version="1.1" xmlns="http://www.w3.org/2000/svg" xmlns:xlink="http://www.w3.org/1999/xlink">
    <title>icon-afford</title>
    <g id="Top-menu-responsive" stroke="none" stroke-width="1" fill="none" fill-rule="evenodd">
        <g id="Home-full" transform="translate(-1472.000000, -2518.000000)" fill-rule="nonzero">
            <g id="Group-32" transform="translate(270.000000, 2355.000000)">
                <g id="icon-afford" transform="translate(1202.000000, 163.000000)">
                    <g id="frame">
                        <path d="M90.3335625,24.81975 L78.291,24.81975 L53.4440625,4.0591875 C52.700625,1.7086875 50.4995625,0 47.9064375,0 C45.3135,0 43.1124375,1.7086875 42.369,4.0591875 L17.521875,24.81975 L5.66625,24.81975 C2.567625,24.81975 0.046875,27.3406875 0.046875,30.4393125 L0.046875,90.380625 C0.046875,93.47925 2.567625,96 5.66625,96 L90.3335625,96 C93.4321875,96 95.953125,93.47925 95.953125,90.380625 L95.953125,30.439125 C95.953125,27.3405 93.4321875,24.81975 90.3335625,24.81975 Z M47.9064375,3.74625 C49.0426875,3.74625 49.9670625,4.670625 49.9670625,5.8066875 C49.9670625,6.94275 49.0426875,7.867125 47.9064375,7.867125 C46.770375,7.867125 45.8461875,6.94275 45.8461875,5.8066875 C45.846,4.6708125 46.770375,3.74625 47.9064375,3.74625 Z M42.804375,8.5771875 C43.7896875,10.3846875 45.70725,11.6135625 47.9064375,11.6135625 C50.106,11.6135625 52.0235625,10.3843125 53.0086875,8.577375 L72.448125,24.8195625 L23.36475,24.8195625 L42.804375,8.5771875 Z M92.2066875,90.380625 C92.2066875,91.4135625 91.3663125,92.2535625 90.3335625,92.2535625 L5.66625,92.2535625 C4.6333125,92.2535625 3.7933125,91.4131875 3.7933125,90.380625 L3.7933125,30.439125 C3.7933125,29.4061875 4.6336875,28.566 5.66625,28.566 L90.3335625,28.566 C91.3665,28.566 92.2066875,29.406375 92.2066875,30.439125 L92.2066875,90.380625 Z" id="Shape" fill="#404142"></path>
                        <path d="M87.523875,32.875875 C87.6268502,32.875875 87.7200836,32.9175925 87.7875652,32.9850808 C87.8550964,33.0526188 87.8968125,33.1459388 87.8968125,33.249 L87.8968125,33.249 L87.8968125,87.571125 C87.8968125,87.6741546 87.8550231,87.7674222 87.7875039,87.8349414 C87.7199847,87.9024606 87.6267171,87.94425 87.5236875,87.94425 L87.5236875,87.94425 L8.4759375,87.94425 C8.37289844,87.94425 8.27960438,87.902495 8.21207503,87.8349656 C8.14455628,87.7674469 8.1028125,87.6741637 8.1028125,87.571125 L8.1028125,87.571125 L8.1028125,66.1722342 C7.98010056,66.0299982 7.98010056,65.8203768 8.1028125,65.6781408 L8.1028125,65.6781408 L8.1028125,33.249 C8.1028125,33.1459609 8.14456752,33.0526669 8.21209687,32.9851375 L8.21209687,32.9851375 Z" id="Path" stroke="#404142" stroke-width="3" fill="#FFFFFF"></path>
                    </g>
                    <g id="pound" transform="translate(34.909091, 42.545455)" fill="#F44436">
                        <path d="M25.0993758,24.4590285 C24.9507951,24.3017639 24.7606187,24.2233487 24.5293677,24.2233487 L20.5127381,24.2233487 C20.2809661,24.2233487 20.0907897,24.3017639 19.942209,24.4590285 C19.7936282,24.6162931 19.7193813,24.8019539 19.7193813,25.0167924 L19.7193813,29.5041737 L9.45515332,29.5041737 L9.45515332,20.1075495 L17.0167924,20.1075495 C17.2317178,20.1075495 17.4176391,20.0290475 17.5746431,19.8721303 C17.7318209,19.715213 17.8102361,19.5292049 17.8102361,19.3142795 L17.8102361,16.066171 C17.8102361,15.8345726 17.7318209,15.6447436 17.5746431,15.4959023 C17.4176391,15.3474953 17.2317178,15.2729009 17.0167924,15.2729009 L9.45515332,15.2729009 L9.45515332,9.9423175 C9.45515332,8.68645862 9.88474355,7.67010041 10.7441845,6.89289552 C11.603886,6.11603799 12.7359132,5.72769607 14.1407001,5.72769607 C14.884559,5.72769607 15.6533406,5.87662415 16.4465237,6.17421981 C17.2400543,6.47155495 17.8102361,6.73589145 18.1573297,6.96757666 C18.5044233,7.19874084 18.7196961,7.3561791 18.8019322,7.43858887 C18.9671859,7.58716961 19.1571018,7.64500407 19.3722008,7.6121791 C19.5871262,7.59541927 19.7686187,7.49642334 19.91746,7.31449661 L22.4711208,4.16547083 C22.6038969,4.0002171 22.6612103,3.81420896 22.6446242,3.60770692 C22.628038,3.40103121 22.5453677,3.23186974 22.396787,3.09952782 C19.9180678,1.03337856 17.149308,0 14.0913758,0 C10.9346214,0 8.33519674,0.917535957 6.29397015,2.75217368 C4.25265672,4.58707191 3.23204342,6.91747083 3.23204342,9.74397829 L3.23204342,15.2726404 L0.876721845,15.2726404 C0.645383989,15.2726404 0.455207598,15.3472347 0.306453189,15.4956418 C0.157525102,15.6443094 0.0832781547,15.8342252 0.0832781547,16.0659104 L0.0832781547,19.3137585 C0.0832781547,19.5283365 0.157525102,19.7139973 0.306453189,19.8712619 C0.455207598,20.0284396 0.645383989,20.1068548 0.876721845,20.1068548 L3.23204342,20.1068548 L3.23204342,29.6023012 L0.827137042,29.6023012 C0.612298507,29.6023012 0.426203528,29.6809769 0.269373134,29.8378942 C0.112282225,29.9951588 0.0338670285,30.1811669 0.0338670285,30.3957449 L0.0338670285,34.1146052 C0.0338670285,34.3463772 0.108027137,34.5360326 0.256868385,34.6851343 C0.405622795,34.8334545 0.595799186,34.907962 0.827137042,34.907962 L24.5293677,34.907962 C24.7608792,34.907962 24.9510556,34.8334545 25.0993758,34.6851343 C25.2479566,34.5359457 25.3218581,34.3463772 25.3218581,34.1146052 L25.3218581,25.015924 C25.3222904,24.8016065 25.2479566,24.6150773 25.0993758,24.4590285 Z" id="Path"></path>
                    </g>
                </g>
            </g>
        </g>
    </g>
</svg>