<?xml version="1.0" encoding="UTF-8"?>
<svg width="27px" height="28px" viewBox="0 0 27 28" version="1.1" xmlns="http://www.w3.org/2000/svg" xmlns:xlink="http://www.w3.org/1999/xlink">
    <title>icon-gobeliny</title>
    <g id="Top-menu-responsive" stroke="none" stroke-width="1" fill="none" fill-rule="evenodd">
        <g id="mobile-home-full-copy" transform="translate(-197.000000, -222.000000)">
            <g id="icons/gobeliny" transform="translate(195.000000, 220.000000)">
                <rect id="Rectangle" x="0" y="0" width="32" height="32"></rect>
                <path d="M20.4174228,2 C21.5761342,2 22.6653781,2.45125727 23.4844564,3.27064877 L23.4844564,3.27064877 L23.7439732,3.53016555 L24.001736,3.24659508 C24.5131275,2.68402685 25.2132528,2.36068009 25.9731365,2.33612528 C26.7331454,2.31113199 27.4525638,2.58906488 27.9992215,3.11743177 C28.5458792,3.6458613 28.8476152,4.35557047 28.8489346,5.11582998 C28.8501834,5.87608949 28.5507651,6.58680089 28.0059239,7.11698434 L28.0059239,7.11698434 L27.6238837,7.48881432 C28.0551588,8.10111857 28.2884295,8.82924385 28.2884295,9.59363758 C28.2884295,10.5730738 27.9070157,11.4938166 27.2144698,12.1863624 L27.2144698,12.1863624 L27.0132081,12.3876868 C26.8908725,12.5100224 26.7305145,12.5712215 26.5702192,12.5712215 C26.4099239,12.5712215 26.2496913,12.510085 26.1273557,12.3878121 C25.8827472,12.1432036 25.8826846,11.7465682 26.1272931,11.5019597 L26.1272931,11.5019597 L26.3286174,11.3005727 C26.7846353,10.8445548 27.0356957,10.2383893 27.0356957,9.59363758 C27.0356957,9.16010738 26.9216286,8.74417897 26.7086532,8.37948993 L26.7086532,8.37948993 L22.3435973,12.6271588 L24.4809306,14.7644922 C25.5311499,15.8143356 26.1095034,17.210264 26.1095034,18.6952036 C26.1095034,20.1800805 25.5311499,21.5760716 24.480868,22.6259776 C23.4310872,23.6757584 22.0351588,24.2538613 20.5502192,24.2538613 C19.0652796,24.2538613 17.6693512,23.6756957 16.6195078,22.625915 L16.6195078,22.625915 L14.2702013,20.2766085 C12.8835436,21.5336018 11.4808501,22.7748725 10.0645011,23.9989172 L10.0645011,23.9989172 L11.9579776,25.8923937 C12.2025861,26.1370649 12.2025861,26.5337002 11.9579776,26.7783087 C11.8357047,26.9006443 11.6753468,26.9617808 11.5150515,26.9617808 C11.3547562,26.9617808 11.1944609,26.9006443 11.0721253,26.7783087 L11.0721253,26.7783087 L9.1116868,24.8178702 C7.10689933,26.5319463 5.07661745,28.2112573 3.02597763,29.8482864 C2.91122148,29.9399284 2.77303803,29.9851544 2.63529306,29.9851544 C2.47769128,29.9851544 2.32065324,29.9258971 2.19982103,29.8091365 C1.97337808,29.5903356 1.9446264,29.2374228 2.1326085,28.9847964 C3.70912752,26.8661298 5.32918121,24.766443 6.98531544,22.6914989 L6.98531544,22.6914989 L4.89327069,20.5993915 C4.12743624,19.833557 3.70568233,18.8149083 3.70568233,17.7310515 C3.70568233,16.6475705 4.12743624,15.6291723 4.89327069,14.8633378 C5.65929306,14.0973154 6.67775391,13.6754362 7.76098434,13.6754362 C8.84421477,13.6754362 9.86267562,14.0973154 10.628698,14.8633378 L10.628698,14.8633378 L12.1764653,16.4111051 C13.6917226,14.6410917 15.2305951,12.8955078 16.7902013,11.1798658 L16.7902013,11.1798658 L17.9021208,9.95669799 L17.3505145,9.40502908 C16.5314362,8.58588814 16.0803043,7.49651902 16.0803043,6.33749441 C16.0803043,5.17890828 16.5313736,4.08972707 17.3505145,3.27058613 C18.1694676,2.45125727 19.2587114,2 20.4174228,2 Z M21.4456555,13.5007964 L20.3223356,14.5939239 C18.6434004,16.2276957 16.9333333,17.8415481 15.1974586,19.4319732 L15.1974586,19.4319732 L17.5053602,21.7398747 C18.3185503,22.5530649 19.3999642,23.000877 20.5502192,23.000877 C21.7004743,23.000877 22.7818881,22.5530649 23.5950783,21.7398747 C24.4087069,20.9266219 24.8567069,19.8452707 24.8567069,18.6950783 C24.8567069,17.5448859 24.4086443,16.4635347 23.5951409,15.6502819 L23.5951409,15.6502819 L21.4456555,13.5007964 Z M7.76104698,14.9282327 C7.01243848,14.9282327 6.30855481,15.2197584 5.77918568,15.7491902 C5.24994183,16.2783714 4.95847875,16.9821924 4.95847875,17.7310515 C4.95847875,18.4802237 5.24994183,19.1842953 5.77912304,19.7134765 L5.77912304,19.7134765 L7.77420134,21.7085548 C8.95283221,20.2477942 10.1493154,18.8002506 11.3620224,17.3683043 L11.3620224,17.3683043 L9.74290828,15.7491902 C9.21353915,15.2197584 8.50965548,14.9282327 7.76104698,14.9282327 Z M20.4174228,3.25279642 C19.593396,3.25279642 18.8188546,3.57370022 18.2364295,4.15637584 C17.6538792,4.73892617 17.333038,5.5135302 17.333038,6.33749441 C17.333038,7.16189709 17.6538792,7.93668904 18.2363669,8.51917673 L18.2363669,8.51917673 L18.7457539,9.02856376 L22.9002774,4.45823714 L22.5984787,4.15643848 C22.0159911,3.57370022 21.2414497,3.25279642 20.4174228,3.25279642 Z" id="Combined-Shape-Copy" fill="#00A246" fill-rule="nonzero"></path>
                <path d="M28.0059239,7.11698434 C28.5507651,6.58680089 28.8501834,5.87608949 28.8491943,5.11582998 C28.8476152,4.35557047 28.5458792,3.6458613 27.9992215,3.11743177 C27.4525638,2.58906488 26.7331454,2.31113199 25.9731365,2.33612528 C25.2132528,2.36068009 24.5131275,2.68402685 24.001736,3.24659508 L23.7439732,3.53016555 L17.9021208,9.95669799 L16.7902013,11.1798658 C15.2305951,12.8955078 13.6917226,14.6410917 12.1764653,16.4111051 L6.98531544,22.6914989 C5.32918121,24.766443 3.70912752,26.8661298 2.1326085,28.9847964 C1.9446264,29.2374228 1.97337808,29.5903356 2.19982103,29.8091365 C2.32065324,29.9258971 2.47769128,29.9851544 2.63529306,29.9851544 C2.77303803,29.9851544 2.91122148,29.9399284 3.02597763,29.8482864 C5.07661745,28.2112573 7.10689933,26.5319463 9.1116868,24.8178702 L10.0645011,23.9989172 C11.4808501,22.7748725 12.8835436,21.5336018 14.2702013,20.2766085 L22.3435973,12.6271588 L26.7086532,8.37948993 C27.0460286,8.10655705 27.2992901,7.83449176 27.6238837,7.48881432 L28.0059239,7.11698434 Z" id="Combined-Shape" fill="#404142" fill-rule="nonzero"></path>
                <path d="M17.7172081,12.0225593 L23.787132,5.34515436 L24.3910425,5.94906488 L23.1198926,7.26412528 C22.879481,7.51286801 22.8862461,7.90944072 23.1349888,8.14985235 C23.2565727,8.26736465 23.4134855,8.32587025 23.5702729,8.32587025 C23.7341387,8.32587025 23.8978166,8.26191499 24.0207159,8.13481879 L26.6211454,5.44443848 C26.861557,5.19569575 26.8547919,4.79912304 26.6060492,4.55871141 C26.3573065,4.31829978 25.9607338,4.32506488 25.7203221,4.57374497 L25.2617987,5.04811633 L24.6307651,4.41708277 L24.9286801,4.08935123 C25.2101208,3.77978523 25.5953557,3.60188814 26.0135391,3.58835794 C26.0305772,3.58779418 26.0476152,3.58754362 26.0645906,3.58754362 C26.4637942,3.58754362 26.8398837,3.73938255 27.1284027,4.01825503 C27.4292617,4.30902908 27.5953199,4.69958837 27.5960111,5.11795973 C27.596698,5.5363311 27.4319553,5.9273915 27.1320984,6.21916779 L19.4486353,13.6961074 C17.765566,15.3338881 16.0510515,16.951311 14.310604,18.5451186 L13.0650738,17.2995884 C14.5925459,15.5138523 16.1442595,13.7529217 17.7172081,12.0225593 Z" id="Path" fill="#FFFFFF" fill-rule="nonzero"></path>
                <path d="M6.35710067,25.5079732 C8.27087248,23.0551857 10.2387025,20.634783 12.2506309,18.2569754 L13.3833468,19.3896913 C11.0818345,21.4749083 8.73647427,23.5177808 6.35710067,25.5079732 Z" id="Path" fill="#FFFFFF" fill-rule="nonzero"></path>
            </g>
        </g>
    </g>
</svg>