<?xml version="1.0" encoding="UTF-8"?>
<svg width="100px" height="100px" viewBox="0 0 100 100" version="1.1" xmlns="http://www.w3.org/2000/svg" xmlns:xlink="http://www.w3.org/1999/xlink">
    <title>icon-desigs</title>
    <g id="Top-menu-responsive" stroke="none" stroke-width="1" fill="none" fill-rule="evenodd">
        <g id="Home-full" transform="translate(-1190.000000, -2520.000000)" fill-rule="nonzero">
            <g id="Group-32" transform="translate(270.000000, 2355.000000)">
                <g id="icon-desigs" transform="translate(920.000000, 165.000000)">
                    <path d="M100.000208,51.6666667 L100.000208,1.66666667 C100.000208,0.74625 99.2539583,0 98.3335417,0 L21.666875,0 C20.7464583,0 20.0002083,0.74625 20.0002083,1.66666667 L20.0002083,20 L1.666875,20 C0.746458333,20 0.000208333333,20.74625 0.000208333333,21.6666667 L0.000208333333,71.6666667 C0.000208333333,72.5870833 0.746458333,73.3333333 1.666875,73.3333333 L15.0002083,73.3333333 C15.1270833,73.3229167 15.2525,73.2977083 15.3735417,73.2583333 L25.1085417,98.925 C25.4352083,99.785625 26.3977083,100.218333 27.2583333,99.8914583 C27.2639583,99.889375 27.2695833,99.8870833 27.2752083,99.885 L98.941875,71.5516667 C99.7983333,71.2145833 100.219375,70.246875 99.8822917,69.3904167 C99.8816667,69.3885417 99.8808333,69.386875 99.8802083,69.385 L93.576875,53.3333333 L98.3335417,53.3333333 C99.2541667,53.3333333 100.000208,52.5870833 100.000208,51.6666667 Z M3.33354167,70 L3.33354167,23.3333333 L75.221875,23.3333333 L66.2635417,26.6666667 L8.33354167,26.6666667 C7.413125,26.6666667 6.666875,27.4129167 6.666875,28.3333333 L6.666875,65 C6.666875,65.9204167 7.413125,66.6666667 8.33354167,66.6666667 L12.8735417,66.6666667 L14.136875,70 L3.33354167,70 Z M78.3335417,20 L30.0002083,20 L30.0002083,10 L90.0002083,10 L90.0002083,43.3333333 L89.6485417,43.3333333 L81.551875,22.7233333 C81.2972917,22.0902083 80.6825,21.67625 80.0002083,21.6783333 L80.0002083,21.6666667 C80.0002083,20.74625 79.2541667,20 78.3335417,20 Z M21.5558333,33.506875 C21.0460417,33.3877083 20.5239583,33.3295833 20.0004167,33.3333333 C16.32875,33.32375 13.3441667,36.2922917 13.3345833,39.9641667 C13.3289583,42.0914583 14.3416667,44.0927083 16.05875,45.3483333 L10.0004167,47.6016667 L10.0004167,30 L57.3054167,30 L26.5004167,41.465 C27.3325,37.9020833 25.11875,34.3389583 21.5558333,33.506875 Z M23.3335417,40 C23.3335417,41.8410417 21.84125,43.3333333 20.0002083,43.3333333 C18.1591667,43.3333333 16.666875,41.8410417 16.666875,40 C16.666875,38.1589583 18.1591667,36.6666667 20.0002083,36.6666667 C21.84125,36.6666667 23.3335417,38.1589583 23.3335417,40 Z M11.6085417,63.3333333 L10.0002083,63.3333333 L10.0002083,59.0933333 L11.6085417,63.3333333 Z M96.1752083,69.0616667 L27.6252083,96.1666667 L10.486875,50.9766667 L79.046875,25.4666667 L96.1752083,69.0616667 Z M96.666875,50 L92.266875,50 L90.956875,46.6666667 L91.666875,46.6666667 C92.5872917,46.6666667 93.3335417,45.9204167 93.3335417,45 L93.3335417,8.33333333 C93.3335417,7.41291667 92.5872917,6.66666667 91.666875,6.66666667 L28.3335417,6.66666667 C27.413125,6.66666667 26.666875,7.41291667 26.666875,8.33333333 L26.666875,20 L23.3335417,20 L23.3335417,3.33333333 L96.666875,3.33333333 L96.666875,50 Z" id="Shape" fill="#404142"></path>
                    <path d="M91.5585417,66.0733333 L89.9685417,61.9066667 C90.045,61.355 89.834375,60.8025 89.4102083,60.4416667 L78.2252083,31.0733333 C77.8985417,30.2127083 76.9360417,29.78 76.0754167,30.106875 C76.0697917,30.1089583 76.0641667,30.11125 76.0585417,30.1133333 L16.0585417,53.4466667 C15.2041667,53.778125 14.7777083,54.736875 15.1035417,55.5933333 L28.436875,90.5933333 C28.68375,91.2416667 29.3064583,91.6691667 30.0002083,91.6666776 C30.2066667,91.6666776 30.4114583,91.6289583 30.6035417,91.5533333 L90.6035417,68.22 C91.4579167,67.8885417 91.8845833,66.9297917 91.5585417,66.0733333 Z M33.6795833,60.6508333 C33.476875,60.9139583 33.3577083,61.231875 33.336875,61.5633333 L31.7135417,87.5466667 L30.9602083,87.8383333 L18.8135417,55.9533333 L75.706875,33.8333333 L84.8835417,57.9166667 L67.456875,48.5333333 C66.6464583,48.0970833 65.635625,48.4004167 65.199375,49.2108333 C65.06875,49.4533333 65.0004167,49.7245833 65.0002083,50 L65.0002083,53.5516667 L52.591875,45.28 C51.8260417,44.769375 50.79125,44.97625 50.280625,45.7420833 C50.1395833,45.9535417 50.04875,46.1945833 50.0152083,46.4466667 L47.031875,68.8183333 L36.016875,60.3466667 C35.2875,59.7852083 34.2410417,59.9214583 33.6795833,60.6508333 Z M35.1352083,86.2133333 L36.4685417,64.8966667 L54.426875,78.7133333 L35.1352083,86.2133333 Z M57.9652083,77.3366667 C57.8864583,77.2164583 57.791875,77.1077083 57.6835417,77.0133333 L50.081875,71.1666667 L52.9652083,49.5366667 L65.741875,58.055 C66.5075,58.5658333 67.5425,58.359375 68.0533333,57.5935417 C68.2364583,57.3191667 68.3339583,56.9964583 68.3335417,56.6666667 L68.3335417,52.79 L86.696875,62.6783333 L87.8535417,65.7133333 L57.9652083,77.3366667 Z" id="Shape" fill="#1782E9"></path>
                </g>
            </g>
        </g>
    </g>
</svg>