<?xml version="1.0" encoding="UTF-8"?>
<svg width="16px" height="16px" viewBox="0 0 16 16" version="1.1" xmlns="http://www.w3.org/2000/svg" xmlns:xlink="http://www.w3.org/1999/xlink">
    <title>icon-image-blue</title>
    <g id="Top-menu-responsive" stroke="none" stroke-width="1" fill="none" fill-rule="evenodd">
        <g id="Home-full" transform="translate(-952.000000, -1230.000000)">
            <g id="Group-34" transform="translate(182.000000, 718.000000)">
                <g id="Group-12-Copy-5" transform="translate(0.000000, 124.000000)">
                    <g id="Group-Copy-24" transform="translate(648.000000, 0.000000)">
                        <g id="Group-6" transform="translate(0.000000, 388.000000)">
                            <g id="Icon-24px" transform="translate(122.000000, 0.000000)">
                                <polygon id="Shape" points="0 0 16 0 16 16 0 16"></polygon>
                                <path d="M14,12.6666667 L14,3.33333333 C14,2.6 13.4,2 12.6666667,2 L3.33333333,2 C2.6,2 2,2.6 2,3.33333333 L2,12.6666667 C2,13.4 2.6,14 3.33333333,14 L12.6666667,14 C13.4,14 14,13.4 14,12.6666667 L14,12.6666667 Z M5.66666667,9 L7.33333333,11.0066667 L9.66666667,8 L12.6666667,12 L3.33333333,12 L5.66666667,9 L5.66666667,9 Z" id="Shape" fill="#1782E9"></path>
                            </g>
                        </g>
                    </g>
                </g>
            </g>
        </g>
    </g>
</svg>