<?xml version="1.0" encoding="UTF-8"?>
<svg width="121px" height="93px" viewBox="0 0 121 93" version="1.1" xmlns="http://www.w3.org/2000/svg" xmlns:xlink="http://www.w3.org/1999/xlink">
    <title>icon-fastship</title>
    <g id="Top-menu-responsive" stroke="none" stroke-width="1" fill="none" fill-rule="evenodd">
        <g id="Home-full" transform="translate(-340.000000, -2520.000000)" fill-rule="nonzero">
            <g id="Group-32" transform="translate(270.000000, 2355.000000)">
                <g id="icon-fastship" transform="translate(70.000000, 165.000000)">
                    <path d="M30.1317188,38.5947656 L26.0425781,34.55625 L25.9767187,24.4333594 C25.9703906,23.4663281 25.1845313,22.6870313 24.2191406,22.6870313 C24.2151563,22.6870313 24.2114062,22.6870313 24.2074219,22.6870313 C23.2364063,22.6933594 22.4547656,23.4855469 22.4610556,24.4563281 L22.531875,35.3069531 C22.5349219,35.7728906 22.7228906,36.2189063 23.0542969,36.5460938 L27.6611719,41.0957813 C28.0035938,41.4342188 28.4498438,41.6032031 28.8963281,41.6032031 C29.3498438,41.6032031 29.803125,41.4288281 30.1469531,41.0805469 C30.8292188,40.3898438 30.8221875,39.2767969 30.1317188,38.5947656 Z" id="Path" fill="#1782E9"></path>
                    <path d="M77.5010156,52.1657813 C77.499375,52.1510156 77.4963281,52.1367188 77.4942187,52.1219531 C77.4878906,52.0736719 77.4803906,52.0260938 77.4700781,51.9792188 C77.4663281,51.9625781 77.4616406,51.9464063 77.4574219,51.93 C77.4464062,51.8857031 77.4342187,51.841875 77.4199219,51.7989844 C77.4140625,51.7816406 77.4075,51.7647656 77.4011719,51.7474219 C77.3859375,51.7064063 77.3697656,51.6660938 77.3517187,51.6264844 C77.3435156,51.6086719 77.3348437,51.5910938 77.3261719,51.5732813 C77.3074219,51.5357813 77.2875,51.4992188 77.2664063,51.4633594 C77.2558594,51.4453125 77.2450781,51.4272656 77.2338281,51.4096875 C77.2115625,51.375 77.1878906,51.3414844 77.1632812,51.3084375 C77.1508594,51.2917969 77.1389063,51.2749219 77.1260156,51.2585156 C77.0974219,51.2228906 77.0669531,51.1889063 77.0357812,51.155625 C77.025,51.1441406 77.0151562,51.1319531 77.0041406,51.1207031 C76.9605469,51.0764063 76.9146094,51.0344531 76.8663281,50.9950781 C76.865625,50.9946094 76.8651562,50.9939063 76.8644531,50.9934375 L66.1497656,42.2575781 C65.3969531,41.64375 64.29,41.7569531 63.6766406,42.5090625 C63.0630469,43.2614063 63.1757812,44.3688281 63.928125,44.9821875 L70.8157031,50.5978125 L48.0466406,50.5978125 C47.0760937,50.5978125 46.2892969,51.3846094 46.2892969,52.355625 C46.2892969,53.3266406 47.0760937,54.1134375 48.0471094,54.1134375 L70.8161719,54.1134375 L63.9285937,59.7288281 C63.17625,60.3421875 63.0635156,61.449375 63.6771094,62.2019531 C64.0244531,62.6280469 64.5304688,62.8490625 65.0404688,62.8490625 C65.4309375,62.8490625 65.8239844,62.7196875 66.15,62.4534375 L76.8646875,53.7178125 C76.8653906,53.7173438 76.8658594,53.7166406 76.8665625,53.7161719 C76.9148438,53.6767969 76.9605469,53.6346094 77.004375,53.5905469 C77.0153906,53.5792969 77.0252344,53.5673438 77.0360156,53.5558594 C77.0671875,53.5225781 77.0976562,53.4885938 77.12625,53.4527344 C77.1391406,53.4365625 77.1510938,53.4196875 77.1632812,53.4030469 C77.1878906,53.37 77.2115625,53.3364844 77.2338281,53.3017969 C77.2450781,53.2842188 77.2558594,53.2661719 77.2664063,53.248125 C77.2875,53.2122656 77.3074219,53.1757031 77.3261719,53.1384375 C77.3348437,53.1208594 77.3435156,53.1030469 77.3517187,53.0852344 C77.3697656,53.0458594 77.3859375,53.0055469 77.4011719,52.9645313 C77.4075,52.9474219 77.4142969,52.9303125 77.4199219,52.9129688 C77.4342187,52.8700781 77.4464062,52.8260156 77.4574219,52.7817188 C77.4616406,52.7653125 77.4663281,52.7491406 77.4700781,52.7325 C77.4803906,52.685625 77.4878906,52.6378125 77.4942187,52.5897656 C77.4960937,52.575 77.499375,52.5607031 77.5010156,52.5459375 C77.5078125,52.4833594 77.5115625,52.4200781 77.5115625,52.3558594 C77.5115625,52.2916406 77.5075781,52.228125 77.5010156,52.1657813 Z" id="Path" fill="#404142"></path>
                    <path d="M41.3819531,18.0382031 C40.56375,17.2277344 39.6972656,16.4838281 38.7907031,15.80625 L41.2952344,12.770625 C41.9130469,12.0220312 41.806875,10.9139063 41.0578125,10.2960938 C40.3092187,9.67804688 39.2008594,9.78421875 38.5832812,10.5335156 L35.8066406,13.8991406 C32.8120312,12.2819531 29.5005469,11.3139844 26.0470312,11.0688281 L26.0470312,9.48398438 L29.5828125,9.48398438 C31.3797656,9.48398438 32.8417969,8.02195313 32.8417969,6.22476563 L32.8417969,3.44625 C32.8417969,1.6490625 31.3797656,0.18703125 29.5828125,0.18703125 L18.8542969,0.18703125 C17.0571094,0.18703125 15.5950781,1.6490625 15.5950781,3.44625 L15.5950781,6.22476563 C15.5950781,8.02195313 17.0571094,9.48398438 18.8542969,9.48398438 L22.5316406,9.48398438 L22.5316406,11.0702344 C19.0380469,11.3186719 15.691875,12.3042188 12.6738281,13.951875 L9.85382812,10.5335156 C9.23578125,9.78445313 8.128125,9.67828125 7.37929687,10.2960938 C6.63046875,10.9139063 6.52429687,12.0217969 7.141875,12.770625 L9.69984375,15.8711719 C8.76375,16.5773437 7.87195312,17.3552344 7.03195312,18.2032031 C2.46609375,22.8128906 -0.0309375,28.9244531 -5.39865931e-05,35.4124219 C0.03140625,41.9003906 2.58726562,47.9875781 7.19671875,52.5532031 C11.7780469,57.0904687 17.8422656,59.5849219 24.2854687,59.5849219 C24.3257812,59.5849219 24.3660937,59.5849219 24.4059375,59.5849219 C30.8939062,59.5535156 36.9810938,56.9976563 41.5467187,52.3882031 C46.1125781,47.7785156 48.6096094,41.6669531 48.5787259,35.1789844 C48.5472656,28.69125 45.9914062,22.6038281 41.3819531,18.0382031 Z M19.1107031,5.96835937 L19.1107031,3.70265625 L29.3264063,3.70265625 L29.3264063,5.96835937 L19.1107031,5.96835937 Z M39.0492188,49.9139063 C35.1445313,53.8563281 29.938125,56.0423438 24.3892969,56.0690625 C24.3548438,56.0690625 24.3208594,56.0690625 24.2864063,56.0690625 C18.77625,56.0690625 13.5890625,53.9355469 9.67101563,50.0552344 C5.72835938,46.1505469 3.54257813,40.9441406 3.51561597,35.3953125 C3.489375,29.8464844 5.625,24.6194531 9.5296875,20.6770312 C13.434375,16.7346094 18.6407813,14.5485938 24.1896094,14.521875 C24.2238281,14.521875 24.2578125,14.521875 24.2922656,14.521875 C29.8028906,14.521875 34.9898438,16.6553906 38.908125,20.5359375 C42.8505469,24.440625 45.0365625,29.6467969 45.0632903,35.195625 C45.0895313,40.7444531 42.9539063,45.9714844 39.0492188,49.9139063 Z" id="Shape" fill="#1782E9"></path>
                    <path d="M24.2903906,16.6483594 C24.2603906,16.6483594 24.2299219,16.6483594 24.1996875,16.6483594 C19.2189844,16.6727344 14.5455469,18.6349219 11.0404687,22.1735156 C7.53539062,25.7125781 5.61820312,30.4045312 5.64211852,35.3852344 C5.66625,40.3659375 7.6284375,45.039375 11.1670312,48.5444531 C14.6842969,52.0277344 19.3399219,53.9428125 24.2866406,53.9428125 C24.3175781,53.9428125 24.3482812,53.9428125 24.3789844,53.9428125 C29.3596875,53.9184375 34.033125,51.9564844 37.5382031,48.4176563 C41.0432812,44.8788281 42.9604687,40.186875 42.9365534,35.2061719 C42.886875,24.9546094 34.5314062,16.6483594 24.2903906,16.6483594 Z M35.0404687,45.9435938 C32.1960937,48.8153906 28.4039062,50.4075 24.3621094,50.4271875 C24.3370312,50.4271875 24.3124219,50.4271875 24.2873437,50.4271875 C20.2736719,50.4271875 16.4953125,48.8730469 13.6413281,46.0467188 C10.7697656,43.2023438 9.17742187,39.4101563 9.15802288,35.3683594 C9.13875,31.3265625 10.6945312,27.519375 13.5386719,24.6475781 C16.3830469,21.7757813 20.1752344,20.1836719 24.2170312,20.1639844 C24.241875,20.1639844 24.2655469,20.1639844 24.2903906,20.1639844 C32.5996875,20.1639844 39.3808594,26.9046094 39.4211177,35.2230469 C39.4403906,39.2646094 37.8846094,43.0720313 35.0404687,45.9435938 Z" id="Shape" fill="#1782E9"></path>
                    <path d="M32.9465625,75.148125 C31.543125,74.6160938 30.0089063,74.7110156 28.6253906,75.4148437 C27.2985938,76.0898437 26.2678125,77.2532812 25.723125,78.6909375 C24.5760938,81.7188281 25.95,85.0560937 28.7854688,86.1304687 C29.3847656,86.3575781 30.0077344,86.4703125 30.6328125,86.4703125 C31.4716406,86.4703125 32.3139844,86.2671094 33.1066406,85.86375 C34.4334375,85.18875 35.4642188,84.0253125 36.0089063,82.5876562 C37.1561719,79.5602344 35.7822656,76.2225 32.9465625,75.148125 Z M32.7213281,81.3421875 C32.4874219,81.96 32.0580469,82.4528906 31.5126562,82.7303906 C31.0235156,82.9792969 30.4973437,83.019375 30.0314062,82.8426562 C29.0085937,82.4552344 28.5508594,81.1511719 29.0109375,79.9364062 C29.2448438,79.3185937 29.6742187,78.8257031 30.2196094,78.5482031 C30.5078906,78.4014844 30.8092969,78.3274219 31.1034375,78.3274219 C31.3082812,78.3274219 31.5096094,78.3632812 31.7010937,78.4359375 C32.7239062,78.8233594 33.1816406,80.1271875 32.7213281,81.3421875 Z" id="Shape" fill="#404142"></path>
                    <path d="M100.667813,75.148125 C97.8328125,74.0744531 94.5916406,75.6630469 93.4446094,78.6907031 C92.2975781,81.7185937 93.6714844,85.0558594 96.5069531,86.1302344 C97.10625,86.3573437 97.7292188,86.4700781 98.3542969,86.4700781 C99.193125,86.4700781 100.035469,86.266875 100.828125,85.8635156 C102.154922,85.1885156 103.185703,84.0250781 103.730391,82.5874219 C104.877422,79.5602344 103.503516,76.2225 100.667813,75.148125 Z M100.442578,81.3421875 C100.208672,81.96 99.7792969,82.4528906 99.2339063,82.7303906 C98.7445313,82.9792969 98.2188281,83.019375 97.7526563,82.8426562 C96.7298438,82.4552344 96.2721094,81.1511719 96.7321875,79.9364063 C97.104375,78.954375 97.9640625,78.32625 98.8202344,78.32625 C99.0232031,78.32625 99.2259375,78.3614062 99.4221094,78.4359375 C100.445156,78.8233594 100.902891,80.1271875 100.442578,81.3421875 Z" id="Shape" fill="#404142"></path>
                    <path d="M118.878281,50.3191406 C118.878047,50.3189063 118.878047,50.3189063 118.877812,50.3186719 C116.303203,47.4028125 113.645156,44.3629688 110.7525,41.0259375 C109.891172,40.0317188 108.606328,39.4605469 107.227031,39.4586719 L92.4517969,39.43875 C92.900625,36.6592969 93.3344531,33.8925 93.733125,31.1826563 C93.894375,30.0536719 93.5746875,28.93125 92.8567969,28.1029688 C92.1375,27.27375 91.0696875,26.7979688 89.926875,26.7975 C77.6233594,26.79375 71.0580469,26.7895313 60.6328125,26.7827344 L53.9955469,26.7782813 C53.9950781,26.7782813 53.9948438,26.7782813 53.994375,26.7782813 C53.0240625,26.7782813 52.2372656,27.564375 52.2365625,28.5349219 C52.2358594,29.5059375 53.0226563,30.2932031 53.9932031,30.2939063 L60.6304688,30.2983594 C71.0561719,30.3049219 77.6214844,30.309375 89.9257031,30.313125 C90.0508594,30.313125 90.1485938,30.3464063 90.200625,30.4061719 C90.2660156,30.4816406 90.2650781,30.6 90.2540625,30.6785156 C89.4007031,36.4802344 88.3853906,42.5634375 87.3923437,48.4816406 C85.9434375,57.0236719 84.4619531,65.7850781 83.3439844,74.3292187 C83.3392969,74.3636719 83.334375,74.3985937 83.3299219,74.4330469 C82.7857031,74.4328125 82.2410156,74.4328125 81.6958594,74.4325781 C81.0058594,74.4323437 80.3163281,74.4321094 79.6253906,74.4316406 C78.7389844,74.4311719 77.8516406,74.4302344 76.9642969,74.4295312 C76.4184375,74.4290625 75.8730469,74.4285937 75.3269531,74.428125 C74.2959375,74.4269531 73.2646875,74.4257812 72.2334375,74.424375 C71.8275,74.4239062 71.4217969,74.4234375 71.0158594,74.4227344 C69.8144531,74.4210937 68.61375,74.4192187 67.41375,74.4171094 C67.1688281,74.4166406 66.9234375,74.4164062 66.6785156,74.4159375 C63.8559375,74.41125 61.0394531,74.405625 58.2360938,74.3997656 C58.1167969,74.3995312 57.9967969,74.3992969 57.8777344,74.3990625 C54.9517969,74.3929687 52.0408594,74.3864062 49.1542969,74.3800781 L40.2546094,74.360625 C39.3796875,72.7966406 38.1592969,71.518125 36.6803906,70.6108594 C36.6335156,70.5820312 36.586875,70.5527344 36.5392969,70.5246094 C36.4600781,70.4777344 36.3799219,70.4327344 36.2995313,70.3879687 C36.230625,70.3497656 36.1614844,70.3122656 36.0916406,70.2757031 C36.0220313,70.239375 35.9524219,70.2030469 35.881875,70.1683594 C35.7921094,70.1238281 35.7011719,70.0814062 35.6097656,70.0396875 C35.5535156,70.0139062 35.4979688,69.9874219 35.44125,69.9625781 C35.2900781,69.8967187 35.1375,69.8334375 34.9825781,69.7748437 C34.8236719,69.7146094 34.6635938,69.6590625 34.5023438,69.6072656 C34.4142188,69.5789062 34.3253906,69.5542969 34.2365625,69.5282812 C34.1671875,69.508125 34.0982813,69.4865625 34.0286719,69.4680469 C33.9063281,69.435 33.7835156,69.4061719 33.6602344,69.3780469 C33.6276563,69.3705469 33.5950781,69.3623437 33.5625,69.3553125 C33.4148438,69.3229687 33.2667188,69.2948437 33.118125,69.2692969 C33.1134375,69.2685937 33.1089844,69.2676562 33.1042969,69.2669531 C31.51125,68.9957812 29.8736719,69.114375 28.2904688,69.6178125 C28.28625,69.6192187 28.2817969,69.6203906 28.2775781,69.6217969 C28.15125,69.6621094 28.0253906,69.7059375 27.9,69.7511719 C27.8514844,69.7685156 27.8027344,69.785625 27.7542188,69.8039062 C27.6564844,69.8407031 27.5589844,69.8796094 27.4617188,69.9192187 C27.4204688,69.9358594 27.3789844,69.9508594 27.3379688,69.9679687 C27.2978906,69.9848437 27.25875,70.0035937 27.2189063,70.0207031 C27.1598438,70.0464844 27.1007813,70.0725 27.0419531,70.0992187 C26.9242969,70.1528906 26.8078125,70.2089062 26.6920313,70.2665625 C26.6646094,70.2801562 26.6367188,70.2921094 26.6095313,70.3061719 C26.6022656,70.3099219 26.5952344,70.3141406 26.5882031,70.3176562 C26.4447656,70.3910156 26.3027344,70.4676562 26.1623438,70.5473437 C26.1035156,70.580625 26.0460938,70.6157812 25.9879688,70.65 C25.9099219,70.6961719 25.8321094,70.7423437 25.755,70.7903906 C25.6760156,70.839375 25.5982031,70.8895312 25.5203906,70.9403906 C25.4742188,70.970625 25.4285156,71.0015625 25.3828125,71.0325 C24.0970313,71.9008594 22.9896094,73.0209375 22.1186719,74.3341406 L20.2607813,74.3320312 C18.8751563,74.3301562 17.4895313,74.3282812 16.1041406,74.3273437 C16.4296875,72.3192187 16.9699219,68.9828906 17.61,65.0278125 C17.7651563,64.0694531 17.1140625,63.166875 16.1557031,63.0117187 C15.1940625,62.8539844 14.2947656,63.5078906 14.1396094,64.4660156 C13.0867969,70.9717969 12.3035156,75.8029687 12.3035156,75.8029687 C12.3028125,75.8071875 12.3028125,75.8114062 12.3021094,75.8158594 C12.3014063,75.8203125 12.3002344,75.8245312 12.2995313,75.8289844 L11.9482031,78.2200781 C11.7567188,79.5232031 12.1403906,80.8422656 13.0007813,81.8385937 C13.8609375,82.8346875 15.1089844,83.4063281 16.4252344,83.4065625 L20.2157813,83.4084375 C20.35125,84.1410937 20.5558594,84.8608594 20.8310156,85.558125 C21.939375,88.3659375 24.04125,90.4774219 26.7501563,91.50375 C27.9070313,91.9420312 29.0992969,92.1499219 30.2826563,92.1499219 C34.756875,92.1499219 39.10125,89.176875 40.8963281,84.4392187 C41.023125,84.1047656 41.1335156,83.7667969 41.2307813,83.4271875 C53.6200781,83.4410156 67.3875,83.4595312 79.4742187,83.4754687 L84.2317969,83.4817969 C84.2332031,83.4817969 84.2346094,83.4820312 84.23625,83.4820312 C85.3678125,83.4801562 86.5038281,83.4836719 87.6375,83.4855469 L87.9520312,83.4860156 C88.0875,84.1919531 88.2867187,84.8854687 88.5522656,85.558125 C89.660625,88.3659375 91.7625,90.4774219 94.4714062,91.50375 C95.6224219,91.9396875 96.82125,92.1564844 98.0261719,92.1564844 C99.65625,92.1564844 101.297109,91.7596875 102.844453,90.9726562 C105.478828,89.6322656 107.529141,87.3121875 108.617812,84.4392187 C108.734062,84.1321875 108.835547,83.8221094 108.926953,83.510625 L109.022109,83.510625 C109.720547,83.5117969 110.419453,83.5129687 111.118125,83.5129687 C113.605781,83.5125 115.849453,81.6072656 116.226328,79.1735156 C117.525469,70.7242969 118.883672,61.8196875 119.956172,53.985 C120.138516,52.63875 119.745703,51.3025781 118.878281,50.3191406 Z M20.4897656,77.8896094 C20.4698438,77.9599219 20.4525,78.0307031 20.4339844,78.1010156 C20.4065625,78.2048438 20.3789062,78.3084375 20.3542969,78.4127344 C20.3334375,78.5010938 20.3151563,78.5896875 20.2961719,78.6780469 C20.2783594,78.76125 20.2600781,78.8444531 20.2441406,78.9276563 C20.2225781,79.0385156 20.2040625,79.1496094 20.1855469,79.2607031 C20.1761719,79.3178906 20.1663281,79.3748438 20.1578906,79.4320313 C20.1372656,79.5686719 20.1196875,79.7053125 20.10375,79.8419531 C20.101875,79.8588281 20.0988281,79.8757031 20.0969531,79.8925781 L16.4261719,79.8907031 C16.0235156,79.8904688 15.774375,79.6710938 15.6614063,79.5407813 C15.5484375,79.4095313 15.3672656,79.1303906 15.4258594,78.7307813 L15.5564063,77.8432031 C17.1227344,77.8441406 18.6892969,77.8450781 20.2558594,77.8471875 L20.5005469,77.8474219 C20.4967969,77.8617188 20.49375,77.8757813 20.4897656,77.8896094 Z M38.0852344,81.39375 C38.0835937,81.4033594 38.0835937,81.4132031 38.0821875,81.4228125 C37.9853906,82.0185937 37.8290625,82.6120312 37.6085156,83.1939844 C36.0255469,87.3714844 31.71375,89.6252344 27.9953906,88.2164062 C26.2239844,87.5453906 24.8409375,86.1428906 24.1007813,84.2676562 C23.7714844,83.4328125 23.5865625,82.5492187 23.544375,81.6492187 C23.544375,81.6271875 23.5460156,81.6051562 23.5450781,81.583125 C23.5277344,81.1394531 23.544375,80.6969531 23.5940625,80.2577344 C23.5942969,80.2549219 23.5947656,80.2521094 23.595,80.2495312 C23.61,80.1182812 23.62875,79.9875 23.6498438,79.8567187 C23.6540625,79.8302344 23.6582813,79.80375 23.6629688,79.7772656 C23.68125,79.6701562 23.7021094,79.5632812 23.724375,79.4564062 C23.7330469,79.4153906 23.7410156,79.3741406 23.7503906,79.333125 C23.7714844,79.2386719 23.7951563,79.1446875 23.8192969,79.0507031 C23.8317188,79.003125 23.8429688,78.9553125 23.8560938,78.9075 C23.8816406,78.8142187 23.9102344,78.7211719 23.9390625,78.6283594 C23.953125,78.583125 23.9657813,78.5376562 23.9805469,78.4926562 C24.0250781,78.35625 24.0724219,78.2203125 24.12375,78.0853125 C24.1246875,78.0832031 24.125625,78.0808594 24.1263281,78.07875 C24.1928906,77.9036719 24.2664844,77.7309375 24.3433594,77.5603125 C24.3597656,77.5239844 24.3761719,77.4878906 24.3928125,77.4517969 C24.4739063,77.278125 24.5589844,77.1065625 24.6501563,76.9399219 C24.6571875,76.9272656 24.6646875,76.9148437 24.6717188,76.9021875 C26.3003906,73.955625 29.3988281,72.3241406 32.3179688,72.7082812 C32.3758594,72.71625 32.4339844,72.7223437 32.491875,72.7319531 C32.5659375,72.7436719 32.6395313,72.7582031 32.713125,72.7727344 C32.8551563,72.8013281 32.9967188,72.8320312 33.1371094,72.87 C33.170625,72.8789062 33.2039063,72.8896875 33.2374219,72.8992969 C33.4052344,72.9478125 33.5721094,73.0005469 33.7366406,73.0628906 C33.8444531,73.1036719 33.950625,73.1475 34.0553906,73.1936719 C34.1210156,73.2227344 34.1852344,73.254375 34.2499219,73.2855469 C34.2869531,73.3033594 34.3246875,73.32 34.3614844,73.3385156 C34.4500781,73.3832812 34.5372656,73.4308594 34.62375,73.4796094 C34.6342969,73.4857031 34.6453125,73.4910937 34.6558594,73.4969531 C35.92125,74.221875 36.9288281,75.369375 37.5452344,76.8086719 C38.1492188,78.2198437 38.3360156,79.8053906 38.0852344,81.39375 Z M82.6596094,79.9642969 L79.4791406,79.9598438 C67.5482813,79.9441406 53.9753906,79.925625 41.71125,79.9120313 C41.7046875,79.2283594 41.6411719,78.5484375 41.518125,77.8792969 L49.1463281,77.8959375 C54.3466406,77.9074219 59.6271094,77.9191406 64.9317187,77.92875 C65.3571094,77.9294531 65.7820312,77.9303906 66.2076562,77.9310938 C67.0272656,77.9325 67.8473437,77.9336719 68.6676562,77.9350781 C69.3595312,77.93625 70.0511719,77.9371875 70.7432812,77.9383594 C71.3807812,77.9392969 72.0180469,77.94 72.6557812,77.9409375 C73.5346875,77.9421094 74.4128906,77.9432812 75.2915625,77.9439844 C75.8130469,77.9444531 76.3340625,77.9449219 76.8555469,77.9453906 C77.8284375,77.9463281 78.800625,77.9470312 79.7723437,77.9477344 C80.240625,77.9479687 80.7082031,77.9482031 81.17625,77.9484375 C81.7478906,77.9486719 82.3204687,77.9491406 82.8911719,77.949375 C82.81125,78.6227344 82.7339062,79.2944531 82.6596094,79.9642969 Z M105.795703,81.4633594 C105.794531,81.4703906 105.794531,81.4774219 105.793359,81.4844531 C105.695859,82.059375 105.542813,82.6319531 105.33,83.1939844 C104.552344,85.2471094 103.103203,86.896875 101.250234,87.8392969 C99.4532813,88.7533594 97.4885156,88.8874219 95.7171094,88.2161719 C93.9457031,87.5451562 92.5626563,86.1426563 91.8225,84.2674219 C91.4976562,83.4440625 91.3139062,82.573125 91.2684375,81.6860156 C91.2682031,81.6733594 91.2691406,81.6607031 91.2686719,81.6480469 C91.2478125,81.2034375 91.2616406,80.7595312 91.3085156,80.3184375 C91.3108594,80.2961719 91.3139063,80.2741406 91.3164844,80.251875 C91.3296094,80.1377344 91.3450781,80.0238281 91.3628906,79.9101562 C91.3699219,79.865625 91.3771875,79.8213281 91.3846875,79.7770312 C91.4003906,79.6846875 91.4179688,79.5923437 91.4367187,79.5002344 C91.4479687,79.4453906 91.4589844,79.3907813 91.4711719,79.3359375 C91.4899219,79.2513281 91.5110156,79.1671875 91.5323437,79.0830469 C91.546875,79.0260937 91.5607031,78.9689062 91.5764062,78.9119531 C91.6007812,78.823125 91.6277344,78.7345312 91.6551562,78.6459375 C91.670625,78.5960156 91.6846875,78.5458594 91.7008594,78.4961719 C91.7458594,78.3585937 91.7934375,78.2214844 91.8452344,78.0848437 C92.6228906,76.0317187 94.0720312,74.3817187 95.925,73.4392969 C96.0471094,73.3771875 96.1703906,73.3192969 96.2939062,73.2642187 C96.33375,73.2464062 96.3740625,73.2307031 96.4141406,73.2135937 C96.4985156,73.1777344 96.5828906,73.1428125 96.6677344,73.1104687 C96.7150781,73.0924219 96.7624219,73.0757812 96.8097656,73.0586719 C96.88875,73.0303125 96.9677344,73.003125 97.0471875,72.9775781 C97.0961719,72.961875 97.1453906,72.9466406 97.1946094,72.9321094 C97.2740625,72.9084375 97.35375,72.8866406 97.4334375,72.8657812 C97.4814844,72.8533594 97.5292969,72.8407031 97.5773437,72.8292187 C97.6626562,72.8088281 97.7482031,72.7910156 97.83375,72.7741406 C97.8757031,72.7657031 97.9176562,72.7565625 97.9596094,72.7488281 C98.0723437,72.7286719 98.1853125,72.7113281 98.2982812,72.6967969 C98.3128125,72.6949219 98.3271094,72.6921094 98.3416406,72.6904687 C98.4700781,72.6747656 98.5985156,72.6632812 98.7269531,72.6550781 C98.7616406,72.6529687 98.7963281,72.6525 98.8307812,72.6508594 C98.9238281,72.6464062 99.016875,72.6428906 99.1099219,72.6421567 C99.1422656,72.6419531 99.1746094,72.643125 99.2071875,72.6433594 C99.3815625,72.6447656 99.5554687,72.6513281 99.7286719,72.6667969 C99.7333594,72.6672656 99.7382812,72.6672656 99.7429687,72.6677344 C99.9182812,72.6836719 100.092422,72.7085156 100.265859,72.73875 C100.297266,72.7441406 100.328437,72.7492969 100.359844,72.7551562 C100.527187,72.7867969 100.693594,72.8247656 100.858828,72.8697656 C100.889062,72.8779687 100.919297,72.8873437 100.949531,72.8960156 C101.120391,72.9452344 101.290547,72.9991406 101.458359,73.0626562 C101.560781,73.1015625 101.661562,73.1432812 101.761406,73.186875 C101.822578,73.2138281 101.882578,73.2426562 101.942578,73.2714844 C101.976094,73.2874219 102.009844,73.3028906 102.043125,73.3192969 C104.807109,74.7007031 106.368281,78.0157031 105.795703,81.4633594 Z M116.472656,53.5108594 C115.403906,61.3167188 114.048516,70.2049219 112.751719,78.6377344 C112.641563,79.3492969 111.862734,79.9975781 111.117891,79.9975781 C110.556797,79.9975781 109.995469,79.996875 109.434375,79.9959375 C109.430625,78.5317969 109.160625,77.0835938 108.622734,75.7207031 C107.631094,73.2082031 105.842344,71.2558594 103.536563,70.1371875 C103.468828,70.1041406 103.400625,70.0720313 103.331953,70.0403906 C103.268438,70.0113281 103.205156,69.9817969 103.140938,69.9541406 C102.996797,69.8915625 102.851484,69.8310938 102.703594,69.7750781 C100.333359,68.8769531 97.7603906,68.9090625 95.3517188,69.8484375 C95.0076563,69.9825 94.666875,70.1353125 94.3305469,70.3064062 C91.6961719,71.6465625 89.6458594,73.966875 88.5571875,76.8398438 C88.4714063,77.06625 88.3947656,77.2945312 88.3225781,77.5235156 C88.3014844,77.5900781 88.2817969,77.6566406 88.261875,77.7232031 C88.2065625,77.9088281 88.1557031,78.0949219 88.1092969,78.2817187 C88.0971094,78.3309375 88.0832813,78.3796875 88.0715625,78.4289062 C88.0169531,78.6604687 87.9698438,78.8929687 87.9288281,79.1257031 C87.9201563,79.1744531 87.913125,79.2234375 87.9051563,79.2724219 C87.8702344,79.4854687 87.8407031,79.69875 87.8170313,79.9122656 C87.8149219,79.9319531 87.8109375,79.9511719 87.8090625,79.9708594 L87.6428906,79.970625 C87.1617188,79.9696875 86.6803125,79.9689844 86.1986719,79.9685156 C86.3353125,78.7757812 86.4792188,77.5722656 86.5598438,76.9017187 C86.5886719,76.6692187 86.6163281,76.4376562 86.6458594,76.2046875 C87.735,67.6835156 89.2422656,58.6985156 90.7014844,50.0055469 C90.7502344,49.7149219 90.7994531,49.4217187 90.8482031,49.1303906 C90.8648438,49.0326563 90.8814844,48.9344531 90.8978906,48.8367188 C91.2335156,46.8583594 91.5663281,44.8954688 91.8914063,42.9546094 L107.222109,42.9752344 C107.587969,42.9757031 107.898047,43.1013281 108.095625,43.329375 C110.995313,46.6746094 113.659922,49.7219531 116.241797,52.6457812 C116.436563,52.865625 116.518359,53.1738281 116.472656,53.5108594 Z" id="Shape" fill="#404142"></path>
                    <path d="M113.284453,53.5539844 C111.166172,51.1396875 109.069453,48.733125 107.053594,46.400625 C106.501875,45.7628906 105.685547,45.3965625 104.813438,45.3953906 L96.444375,45.3839063 C96.4432031,45.3839063 96.4417969,45.3839063 96.440625,45.3839063 C94.8372656,45.3839063 93.3817969,46.6157813 93.1263281,48.189375 L92.8739063,49.7395312 C92.3036719,53.2420312 91.7139844,56.8642969 91.1514844,60.43125 C91.1514844,60.4314844 91.15125,60.4317187 91.15125,60.4321875 C91.0174219,61.2848437 91.2532031,62.1396094 91.7983594,62.7778125 C92.3517188,63.425625 93.1774219,63.7978125 94.0638281,63.7982812 L109.915312,63.81 C109.916016,63.81 109.916719,63.81 109.917422,63.81 C111.547266,63.81 113.004844,62.5642969 113.235703,60.9728906 C113.530547,58.9427344 113.677266,57.928125 113.967422,55.8989062 C114.089766,55.0432031 113.841094,54.1884375 113.284453,53.5539844 Z M109.781953,60.294375 L94.734375,60.283125 C95.2621875,56.9496094 95.8115625,53.5753125 96.3440625,50.304375 L96.5728125,48.8997656 L104.57625,48.9107812 C106.48125,51.1134375 108.455859,53.3800781 110.451094,55.6551562 C110.192813,57.459375 110.0475,58.4650781 109.781953,60.294375 Z" id="Shape" fill="#404142"></path>
                </g>
            </g>
        </g>
    </g>
</svg>