<?xml version="1.0" encoding="UTF-8"?>
<svg width="42px" height="38px" viewBox="0 0 42 38" version="1.1" xmlns="http://www.w3.org/2000/svg" xmlns:xlink="http://www.w3.org/1999/xlink">
    <title>icon-social-insta</title>
    <defs>
        <polygon id="path-1" points="0 0.245 32.912 0.245 32.912 34.8005 0 34.8005"></polygon>
    </defs>
    <g id="Top-menu-responsive" stroke="none" stroke-width="1" fill="none" fill-rule="evenodd">
        <g id="top-menu-1-1" transform="translate(-1782.000000, -1206.000000)">
            <g id="icon-social-insta" transform="translate(1782.000000, 1206.000000)">
                <path d="M3.24423599,9.97169987 C0.989395647,5.68115398 1.59460509,3.52987616 6.75591393,1.44682392 C11.9174751,-0.636228312 34.5768798,-0.321930685 32.9128691,1.44682392 C31.2488585,3.21557853 33.2562164,2.67284019 32.6618548,3.1757164 C30.9090431,4.30565469 28.9284265,4.23078542 26.9695056,4.27499151 C22.4378769,4.33120734 17.9022118,4.27192519 13.3650331,4.30565469 C9.92550601,4.33120734 7.2112716,5.47877697 5.64035072,8.75641571 C5.02732074,9.53832688 4.32145329,10.1395808 3.24423599,9.97169987" id="Fill-42" fill="#A33381"></path>
                <g id="Group-46" transform="translate(1.000000, 1.000000)">
                    <path d="M31.6389744,1.27425 C31.6346154,0.88225 31.6346154,0.491 31.6389744,0.10025 C32.0425641,0.10025 32.4433333,0.10025 32.8464103,0.10025 C33.8089744,1.77125 35.7897436,0.8905 37.064359,1.68675 C38.6569231,2.68525 38.2389744,3.38125 36.5653846,3.6965 C35.4507692,4.626 36.1982051,6.19675 35.2992308,7.1995 C35.2961538,7.9665 35.2938462,8.73475 35.2920513,9.5045 C31.9876923,9.5755 31.3330769,6.72475 29.8305128,4.80225 C29.3351282,3.0925 30.2882051,2.08575 31.6389744,1.27425" id="Fill-43" fill="#823882"></path>
                    <path d="M2.57538462,8.16175 C2.99948718,7.73375 3.42512821,7.30375 3.84871795,6.8755 C8.85948718,1.3445 15.98,2.409 21.425641,3.9085 C26.8069231,5.39175 32.0361538,8.895 37.1951282,11.76325 C40.0284615,14.49525 40.3794872,17.647 38.8579487,21.1125 C38.8002564,22.07275 38.5,22.89775 37.5371795,23.3515 C36.3430769,24.58375 36.57,26.36175 35.7684615,27.74875 C33.9525641,29.618 30.9669231,30.57075 29.2653846,29.6075 C24.5705128,26.94875 23.2225641,29.5385 21.9041026,32.978 C12.7184615,37.586 13.2894872,36.8495 5.88076923,29.293 C-0.866923077,22.409 -1.17435897,15.9255 2.57538462,8.16175" id="Fill-45" fill="#DC3D65"></path>
                </g>
                <path d="M37.4929396,13.9898535 C36.0011403,14.2745727 36.1315415,8.43503729 33.166645,13.0664192 C32.0204472,14.8564454 30.797136,12.0531538 29.7541831,11.0974919 C23.2138873,5.10087875 12.1392699,3.71382414 5,8.00161444 C5.86336311,3.63439712 8.65507462,1.88827148 13.0103188,2.0055088 C17.9409676,2.13924056 22.8757154,2.1037141 27.8089261,2.14355449 C29.3950035,3.33597484 30.2504247,5.54166065 32.6675852,5.57388823 C35.0785972,6.39607208 35.6081436,9.06639328 37.508311,10.388739 C37.927183,10.7698872 38.3452865,11.1507816 38.7649271,11.5326911 C39.5053186,12.9428379 38.3347826,13.3813359 37.4929396,13.9898535" id="Fill-47" fill="#D8297B"></path>
                <path d="M23.0306251,35 C24.7992791,31.5908204 20.6410987,32.9755586 20,30.7742345 C24.1120951,30.7904599 27.4632695,29.1176558 29.8896641,26 C32.0641255,28.0901407 29.6087994,29.0264216 29.9964286,30.7127911 C32.3667527,31.0966131 34.3422789,29.9802577 36.2412521,28.585146 C38.4968749,28.4271486 38.1914313,29.637398 37.4701953,31.0673543 C32.6576026,32.3794775 27.8424496,33.6900047 23.0306251,35" id="Fill-48" fill="#D8297B"></path>
                <path d="M37,14.4753771 C37.3875135,13.6483767 37.7703609,12.8246996 38.158341,12 C41.1455308,15.3506937 44.4934045,18.6592066 39.2627893,23 C38.5600858,20.1416719 39.3955378,16.7945572 37,14.4753771" id="Fill-49" fill="#8C3782"></path>
                <path d="M37.1410692,31 C37.0704655,30.0441381 36.9202247,29.1320349 36,28.6395599 C36.0118861,26.9177944 36.6071439,25.6035159 38.2298393,25 C37.0191174,26.825977 41.2909951,29.777033 37.1410692,31" id="Fill-50" fill="#8C3782"></path>
                <path d="M36.0123145,8.40348427 C35.3268975,6.80542766 33.6442914,4.2344152 37.1297664,4.06100685 C38.8895121,3.44603022 40,7.68311275 40,7.68311275 C40,7.68311275 36.576933,10.0827936 36.0123145,8.40348427" id="Fill-51" fill="#A33381"></path>
                <g id="Group-55" transform="translate(0.000000, 2.000000)">
                    <mask id="mask-2" fill="white">
                        <use xlink:href="#path-1"></use>
                    </mask>
                    <g id="Clip-53"></g>
                    <path d="M31.75,3.73375 C31.3905,4.3475 30.7945,5.52425 30.70625,5.48825 C28.452,4.54975 26.85525,3.05525 27.00875,0.353 C28.977,0.31825 30.9435,0.28 32.912,0.245 C32.525,1.4095 32.13825,2.57075 31.75,3.73375" id="Fill-52" fill="#AB3080" mask="url(#mask-2)"></path>
                    <path d="M8.26,34.8005 C7.887,34.68525 7.5125,34.56925 7.1395,34.4545 C2.45675,33.2295 1.02675,28.85 0.33475,25.29825 C-0.34875,21.7875 0.19475,17.76675 0.3865,13.9735 C1.16925,11.54825 2.9135,10.4155 5.381,10.2595 C5.96,10.0085 6.5295,9.936 7.07275,10.35125 C8.13825,10.66875 9.11375,10.0135 10.157,10.0605 C11.77475,10.54475 13.19375,11.967 13.12025,13.22325 C12.91725,16.68975 14.82225,16.69275 17.216,16.42875 C22.56225,20.3095 21.9665,20.20125 19.67825,26.66525 C17.5935,32.5525 13.88625,34.64525 8.26,34.8005" id="Fill-54" fill="#E46E58" mask="url(#mask-2)"></path>
                </g>
                <path d="M3.16865277,34.0879398 C2.44325519,34.0277538 1.7214976,33.960172 1,33.8844293 C1.06967977,33.1711225 1.13857954,32.4636812 1.20773931,31.7519045 C4.46006847,30.3405924 3.17489275,26.6893896 4.86514712,24.5757367 C6.98310006,21.9354558 8.19781601,22.7943823 8.49161503,25.8054706 C10.0154699,27.9351901 13.0465398,26.8870345 14.7432942,28.649007 C16.1600295,28.7869759 17.5780647,28.9244347 19,29.0611285 C18.5621615,34.9106527 13.1832994,35.5724444 9.37379209,37.8936882 C6.1300429,38.4725965 4.43432855,36.6144793 3.16865277,34.0879398" id="Fill-56" fill="#ED974E"></path>
                <path d="M15.0189437,6.79501894 C11.5800209,6.79501894 8.78184744,9.61336882 8.78184744,13.0777122 L8.78184744,21.9217799 C8.78184744,25.3863773 11.5800209,28.2044732 15.0189437,28.2044732 L24.9813084,28.2044732 C28.4202311,28.2044732 31.2181526,25.3863773 31.2181526,21.9217799 L31.2181526,13.0777122 C31.2181526,9.61336882 28.4202311,6.79501894 24.9813084,6.79501894 L15.0189437,6.79501894 Z M24.9813084,30 L15.0189437,30 C10.5974716,30 7,26.3759357 7,21.9217799 L7,13.0777122 C7,8.62330249 10.5974716,5 15.0189437,5 L24.9813084,5 C29.4027805,5 33,8.62330249 33,13.0777122 L33,21.9217799 C33,26.3759357 29.4027805,30 24.9813084,30 L24.9813084,30 Z" id="Fill-57" fill="#FFFFFE"></path>
                <path d="M19.9997528,12.7476208 C17.1033971,12.7476208 14.7474045,15.1033247 14.7474045,17.9998764 C14.7474045,20.8959338 17.1033971,23.252132 19.9997528,23.252132 C22.8961085,23.252132 25.2523483,20.8959338 25.2523483,17.9998764 C25.2523483,15.1033247 22.8961085,12.7476208 19.9997528,12.7476208 Z M19.9997528,25 C16.1400876,25 13,21.8594735 13,17.9998764 C13,14.1400321 16.1400876,11 19.9997528,11 C23.8596652,11 27,14.1400321 27,17.9998764 C27,21.8594735 23.8596652,25 19.9997528,25 L19.9997528,25 Z" id="Fill-58" fill="#FFFFFE"></path>
                <path d="M28,10.5001276 C28,11.3285678 27.3286249,12 26.5002553,12 C25.6713751,12 25,11.3285678 25,10.5001276 C25,9.67143222 25.6713751,9 26.5002553,9 C27.3286249,9 28,9.67143222 28,10.5001276" id="Fill-59" fill="#FFFFFE"></path>
            </g>
        </g>
    </g>
</svg>