<?xml version="1.0" encoding="UTF-8"?>
<svg width="35px" height="48px" viewBox="0 0 35 48" version="1.1" xmlns="http://www.w3.org/2000/svg" xmlns:xlink="http://www.w3.org/1999/xlink">
    <title>icon-social-facebook</title>
    <g id="Top-menu-responsive" stroke="none" stroke-width="1" fill="none" fill-rule="evenodd">
        <g id="top-menu-1-1" transform="translate(-1829.000000, -1201.000000)">
            <g id="icon-social-facebook" transform="translate(1829.000000, 1201.000000)">
                <path d="M29.0216861,16.1106029 C33.6797784,23.5645292 33.1700494,26.1289991 25.3808007,34.4617994 C22.8974353,34.6375742 20.6734363,37.1941125 17.9639693,35.3117614 C17.2378932,31.0563225 20.1959719,28.3007262 22.5400247,24.5401177 C16.9230017,23.2687567 11.3174839,22.6646748 7.61056885,18.0019091 C5.46410472,16.2441611 4.24080524,14.3789525 5.52163056,11.2973925 C6.49456757,8.95577533 6.87874013,6.32810834 7.36420819,3.78743325 L7.3502019,3.81583354 C10.872534,0.588434184 14.5179214,-0.154834813 18.4561904,3.12015423 C19.5421782,4.02205551 20.884281,4.37079067 22.2946645,4.56908102 C29.4091101,5.56846439 30.3452806,6.97645382 28.9136376,14.3983977 C28.7945841,15.0122023 28.720801,15.5569251 29.0216861,16.1106029" id="Fill-1" fill="#314A81"></path>
                <path d="M7.12119131,5 C7.16896407,7.70593426 7.796871,10.533193 6.17691687,12.9852906 C4.22763559,15.9353655 8.10841041,16.2737316 8.42477793,18.1696756 C10.4889171,21.3385325 12.7997976,24.2152658 16.2249524,26.183557 C18.4527387,27.4614421 19.6907648,29.4618048 18.5942782,32.1712197 C16.5774036,33.7847361 14.599916,32.7564612 13.2307689,31.5091558 C9.54921668,28.1528427 4.92466056,26.1574523 1.10715924,23.0340922 C0.71379626,22.6141801 0.345844325,22.1711468 0,21.7112075 C0.820014429,15.5065033 4.57449636,10.5001271 7.12119131,5" id="Fill-2" fill="#31558C"></path>
                <path d="M28.9736463,17 C27.5897531,16.0988505 28.4136983,14.9809985 28.5176742,13.7994105 C28.8859008,9.64278045 28.8065241,5.74109455 22.8025531,6.983557 C21.3258425,7.28844938 19.4489517,7.52388249 18.3275342,6.04832825 C15.0008144,1.6705732 11.1651202,2.0137072 7,4.4991524 C9.29938775,1.99887882 21.5796958,-1.00477936 24.06624,0.327173684 C29.8084962,3.40159187 31.2436165,8.27258578 28.9736463,17" id="Fill-3" fill="#31558C"></path>
                <path d="M0.648406608,21 C1.02820671,21 1.40902029,21.0096657 1.78856702,21.0239098 C2.45923471,22.2705244 3.64930881,23.1941029 4.09067757,24.5671341 C5.65447091,29.422089 9.04404113,31.7024196 14.0295825,31.8840321 C15.6486103,31.9435522 17.2580101,32.2060509 18.4131193,33.5696709 C18.5263752,33.8405635 18.6383643,34.1124735 18.7493399,34.3843835 C21.1634395,36.4785232 23.5859004,33.3839886 26,34.3973558 C22.9048445,36.5629705 19.7468536,37.9316776 16.100874,35.5269653 C14.9490586,34.7694834 13.7541705,34.8997154 13.0452441,36.2447671 C10.4276891,41.2215601 7.3469757,38.383674 5.52956001,36.067733 C2.16583343,31.7827972 -1.51891165,27.2401954 0.648406608,21" id="Fill-4" fill="#3A80B4"></path>
                <path d="M12,44.8343273 C12.0860972,43.6785485 12.6044902,42.8795004 13.8142462,43.0149526 C15.5279163,43.2067433 16.0907799,44.5118792 15.9883941,45.838112 C15.9095363,46.8464517 15.5067152,48.3649548 13.9251642,47.9204798 C12.5054655,47.5222743 12.2363148,46.015039 12,44.8343273" id="Fill-5" fill="#346A9F"></path>
                <path d="M33.1334037,32 C34.3904323,32.2744303 35.0072651,33.0789215 34.9999354,34.2649099 C34.9893991,35.6251397 34.0688456,36.0756456 32.8642695,35.9899005 C31.6342688,35.9036968 30.8435868,35.2590034 31.02614,33.940729 C31.1894529,32.7639113 31.9329505,32.0703844 33.1334037,32" id="Fill-6" fill="#346A9F"></path>
                <path d="M1.02066053,39.1647396 C0.895615183,38.1782854 1.35796582,37.8906894 1.87377788,38.0350103 C2.28833038,38.1510945 2.82588945,38.542225 2.95342665,38.9568861 C3.14461917,39.5814924 2.72372378,40.1323694 2.11911141,39.9718386 C1.68892823,39.8562773 1.32647795,39.4016141 1.02066053,39.1647396" id="Fill-7" fill="#3A80B4"></path>
                <path d="M17.9902343,32.5609833 C18.2288062,30.0963247 17.362317,27.7773928 15.0087378,27.0980123 C10.1562935,25.6943146 9.16829717,21.8693717 8,18 C11.7003481,21.1293141 15.7822023,23.2436194 20.9043139,22.8866654 C22.5879056,22.7703887 24.422532,22.9460731 24.9234548,24.9133824 C25.376036,26.6968833 23.7258914,27.28766 22.4901774,27.9645017 C19.6657255,29.5149415 20.0874727,32.9968937 18.0046061,34.9756276 L17.9735107,35 C17.3048298,34.1835247 17.2086693,33.3698421 17.9902343,32.5609833" id="Fill-8" fill="#2F4F7A"></path>
                <path d="M18,31.626639 C17.9939001,32.4191593 17.9895793,33.2097032 17.9837335,34 C16.8552462,33.6131276 15.7539545,33.0123142 14.5942051,32.8712516 C3.87052597,31.5619133 3.86696768,31.5858766 1,21 C6.66709027,24.5411425 12.3326556,28.0840143 18,31.626639" id="Fill-9" fill="#346A9F"></path>
                <path d="M21.0871216,37 L21.0871216,25.1402286 L25.2151679,25.1402286 L25.833278,20.5180838 L21.0871216,20.5180838 L21.0871216,17.5668307 C21.0871216,16.2289724 21.4724404,15.3172376 23.4622645,15.3172376 L26,15.315993 L26,11.1819487 C25.5609999,11.1259454 24.0545662,11 22.3016628,11 C18.6433285,11 16.1381116,13.1537651 16.1381116,17.1093454 L16.1381116,20.5180838 L12,20.5180838 L12,25.1402286 L16.1381116,25.1402286 L16.1381116,37 L21.0871216,37" id="Fill-10" fill="#FFFFFE"></path>
            </g>
        </g>
    </g>
</svg>