<?xml version="1.0" encoding="UTF-8"?>
<svg width="28px" height="28px" viewBox="0 0 28 28" version="1.1" xmlns="http://www.w3.org/2000/svg" xmlns:xlink="http://www.w3.org/1999/xlink">
    <title>icon-paint</title>
    <g id="Top-menu-responsive" stroke="none" stroke-width="1" fill="none" fill-rule="evenodd">
        <g id="mobile-home-full" transform="translate(-38.000000, -222.000000)">
            <g id="icons/paint" transform="translate(36.000000, 220.000000)">
                <rect id="Rectangle" x="0" y="0" width="32" height="32"></rect>
                <path d="M24.9989565,28.7495652 C23.0236522,28.7495652 18.1944348,28.506087 18.1147826,28.5015652 C17.9443478,28.5015652 17.7849275,28.5007536 17.6365217,28.4991304 C18.5638261,28.0726957 18.6726957,27.557913 18.5933913,27.1926957 C18.4918261,26.725913 18.221913,25.4852174 9.86852174,25.818087 C5.2173913,26.0038261 3.37391304,24.9874783 3.26956522,24.2601739 C3.20278261,23.7930435 3.8813913,23.1227826 5.13356522,22.8097391 C5.89495652,22.6194783 6.6893913,22.3335652 6.80313043,21.6577391 C6.92,20.9565217 6.23408696,20.509913 5.62921739,20.1189565 C5.55269565,20.0692174 5.45530435,20.0069565 5.36278261,19.9429565 C6.64457667,19.653401 7.95477922,19.5083804 9.26886957,19.5105834 C9.4229136,20.2392657 9.13942918,20.9910154 8.5426087,21.4365217 L7.6973913,22.0549565 C7.50293205,22.1973515 7.41080609,22.4410746 7.4624528,22.6764963 C7.5140995,22.9119179 7.69979061,23.0946936 7.936,23.1426087 C9.08293752,23.3585754 10.2471763,23.4695273 11.4142609,23.474087 C12.933913,23.474087 14.6365217,23.2570435 15.826087,22.4726957 C16.7332862,21.8690326 17.3695923,20.9356588 17.6,19.8706087 C19.1631304,20.1652174 19.7286957,20.5874783 19.9189565,20.906087 C20.1773913,21.3398261 19.9443478,21.9732174 19.698087,22.6452174 C19.4010435,23.4521739 19.0650435,24.3669565 19.6128696,25.1495652 C20.1947826,25.9826087 21.5593043,26.3373913 24.1773913,26.3373913 C26.0594783,26.3373913 27.1627826,26.6413913 27.7568696,26.8966957 C28.3735652,27.1613913 28.6546087,27.4737391 28.6546087,27.6521739 C28.6546087,28.0229565 27.5506087,28.7495652 24.9989565,28.7495652 L24.9989565,28.7495652 Z" id="Path-Copy" fill="#1782E9" fill-rule="nonzero"></path>
                <path d="M28.2372174,25.7777391 C26.939552,25.2967172 25.5605532,25.0733034 24.1773913,25.12 C21.4803478,25.12 20.786087,24.7026087 20.6125217,24.4535652 C20.4281739,24.1895652 20.6292174,23.6431304 20.842087,23.0622609 C21.1446957,22.2382609 21.5213913,21.2132174 20.9655652,20.2796522 C20.4914783,19.4845217 19.4497391,18.9617391 17.7116522,18.650087 C17.6928225,18.2125771 17.612378,17.7799097 17.4726957,17.3648696 L29.0434783,6.86921739 C29.7989076,6.17958594 30.1143268,5.13065653 29.864545,4.13875224 C29.6147633,3.14684794 28.8401812,2.37240313 27.8482326,2.12279715 C26.8562841,1.87319117 25.8074106,2.18879625 25.117913,2.94434783 L14.6205217,14.5123478 C13.2243264,14.0381706 11.6846672,14.2738631 10.4942609,15.144 C10.3044378,15.2857712 10.1317936,15.4491936 9.97982609,15.6309565 C9.36364014,16.3794732 9.04775599,17.3303489 9.09356522,18.2987826 C6.97182609,18.3683478 5.47269565,18.5714783 4.64626087,18.9029565 C4.2374457,19.0097444 3.92899297,19.3459538 3.85773913,19.7624348 C3.79756522,20.3829565 4.3906087,20.768 4.96417391,21.1401739 C5.09426087,21.2246957 5.27721739,21.3426087 5.41634783,21.4486957 C5.22704636,21.5218907 5.03297276,21.5820884 4.83547826,21.6288696 C3.00208696,22.0869565 1.88765217,23.213913 2.06226087,24.4326957 C2.18713043,25.3022609 3.21008696,27.3005217 9.91547826,27.0344348 C14.5662609,26.8490435 16.4038261,27.1895652 17.0883478,27.4111304 L17.0316522,27.4347826 C16.986087,27.4504348 16.8883478,27.4765217 16.7617391,27.5109565 C15.5290435,27.8466087 14.5554783,28.112 14.6573913,28.8737391 C14.7478261,29.5516522 15.4226087,29.7182609 18.0636522,29.7182609 L18.0824348,29.7182609 C18.2817391,29.7283478 22.9913043,29.9669565 24.9975652,29.9669565 C27.957913,29.9669565 29.8706087,29.0584348 29.8706087,27.6521739 C29.872,27.2142609 29.6594783,26.3885217 28.2372174,25.7777391 L28.2372174,25.7777391 Z M26.0194783,3.76243478 C26.4066714,3.33707401 26.9964089,3.15910151 27.5542666,3.29926244 C28.1121244,3.43942337 28.5477071,3.87500608 28.687868,4.43286379 C28.8280289,4.99072149 28.6500564,5.58045904 28.2246957,5.96765217 L18.9001739,14.4288696 L17.557913,13.0869565 L26.0194783,3.76243478 Z M16.7387826,13.9885217 L17.9975652,15.2473043 L16.9043478,16.2406957 C16.877913,16.202087 16.8549565,16.1610435 16.8271304,16.1231304 C16.5286594,15.7173948 16.1641705,15.3646635 15.7488696,15.0796522 L16.7387826,13.9885217 Z M10.3850435,18.8626087 C10.1656095,18.0117084 10.3588361,17.1071507 10.9067826,16.4201739 C10.996852,16.3106875 11.0994679,16.2121576 11.2125217,16.1266087 C12.6895446,15.0475375 14.7612963,15.3675971 15.8438261,16.842087 C16.3930667,17.5938431 16.61178,18.5371619 16.4493913,19.453913 C16.312277,20.2719282 15.8429534,20.9968116 15.1526957,21.4566957 C13.7126957,22.405913 11.1645217,22.3227826 9.57808696,22.1523478 C10.4107826,21.3610435 10.6970435,20.2086957 10.3850435,18.8626087 Z M24.9989565,28.7495652 C23.0236522,28.7495652 18.1944348,28.506087 18.1147826,28.5015652 C17.9443478,28.5015652 17.7849275,28.5007536 17.6365217,28.4991304 C18.5638261,28.0726957 18.6726957,27.557913 18.5933913,27.1926957 C18.4918261,26.725913 18.221913,25.4852174 9.86852174,25.818087 C5.2173913,26.0038261 3.37391304,24.9874783 3.26956522,24.2601739 C3.20278261,23.7930435 3.8813913,23.1227826 5.13356522,22.8097391 C5.89495652,22.6194783 6.6893913,22.3335652 6.80313043,21.6577391 C6.92,20.9565217 6.23408696,20.509913 5.62921739,20.1189565 C5.55269565,20.0692174 5.45530435,20.0069565 5.36278261,19.9429565 C6.64457667,19.653401 7.95477922,19.5083804 9.26886957,19.5105834 C9.4229136,20.2392657 9.13942918,20.9910154 8.5426087,21.4365217 L7.6973913,22.0549565 C7.50293205,22.1973515 7.41080609,22.4410746 7.4624528,22.6764963 C7.5140995,22.9119179 7.69979061,23.0946936 7.936,23.1426087 C9.08293752,23.3585754 10.2471763,23.4695273 11.4142609,23.474087 C12.933913,23.474087 14.6365217,23.2570435 15.826087,22.4726957 C16.7332862,21.8690326 17.3695923,20.9356588 17.6,19.8706087 C19.1631304,20.1652174 19.7286957,20.5874783 19.9189565,20.906087 C20.1773913,21.3398261 19.9443478,21.9732174 19.698087,22.6452174 C19.4010435,23.4521739 19.0650435,24.3669565 19.6128696,25.1495652 C20.1947826,25.9826087 21.5593043,26.3373913 24.1773913,26.3373913 C26.0594783,26.3373913 27.1627826,26.6413913 27.7568696,26.8966957 C28.3735652,27.1613913 28.6546087,27.4737391 28.6546087,27.6521739 C28.6546087,28.0229565 27.5506087,28.7495652 24.9989565,28.7495652 L24.9989565,28.7495652 Z" id="Shape" fill="#404142" fill-rule="nonzero"></path>
                <path d="M11.2281739,18.7290435 C11.2573254,18.73318 11.2867305,18.7352721 11.3161739,18.7353043 C11.618506,18.7348242 11.8747751,18.5127539 11.9182609,18.2135652 C11.9353043,18.0935652 12.1231304,17.0438261 13.4671304,17.1766957 C13.6860184,17.2031033 13.9020753,17.1090835 14.0319384,16.9309125 C14.1618014,16.7527415 14.1851672,16.5182753 14.0930204,16.3179799 C14.0008736,16.1176844 13.8076208,15.9828746 13.5878261,15.9655652 C11.5833043,15.7641739 10.8295652,17.234087 10.7130435,18.0393043 C10.6898801,18.1990814 10.7311411,18.3615156 10.8277483,18.4908689 C10.9243556,18.6202222 11.0683944,18.705897 11.2281739,18.7290435 L11.2281739,18.7290435 Z" id="Path" fill="#404142" fill-rule="nonzero"></path>
                <polygon id="1" fill="#404142" fill-rule="nonzero" points="9.244 12.544 9.244 11.224 7.612 11.224 7.612 4 6.736 4 4 6.208 4.66 7.108 5.728 6.376 6.304 5.668 6.124 6.484 6.124 11.224 4.456 11.224 4.456 12.544"></polygon>
                <path d="M28.052,23.568 L28.052,22.248 L25.748,22.248 L24.884,22.416 L24.884,22.356 L25.52,21.864 C25.784,21.552 26.054,21.21 26.33,20.838 C26.606,20.466 26.858,20.08 27.086,19.68 C27.314,19.28 27.502,18.872 27.65,18.456 C27.798,18.04 27.872,17.628 27.872,17.22 C27.872,16.852 27.812,16.53 27.692,16.254 C27.572,15.978 27.408,15.748 27.2,15.564 C26.992,15.38 26.744,15.24 26.456,15.144 C26.168,15.048 25.852,15 25.508,15 C24.972,15 24.506,15.078 24.11,15.234 C23.714,15.39 23.36,15.596 23.048,15.852 L23.048,15.852 L23.672,16.956 C23.856,16.788 24.082,16.65 24.35,16.542 C24.618,16.434 24.88,16.38 25.136,16.38 C25.544,16.38 25.842,16.486 26.03,16.698 C26.218,16.91 26.312,17.18 26.312,17.508 C26.312,17.78 26.258,18.068 26.15,18.372 C26.042,18.676 25.896,18.99 25.712,19.314 C25.528,19.638 25.32,19.96 25.088,20.28 C24.856,20.6 24.618,20.91 24.374,21.21 C24.13,21.51 23.888,21.794 23.648,22.062 C23.408,22.33 23.192,22.564 23,22.764 L23,22.764 L23,23.568 L28.052,23.568 Z" id="2" fill="#404142" fill-rule="nonzero"></path>
            </g>
        </g>
    </g>
</svg>