<?xml version="1.0" encoding="UTF-8"?>
<svg width="30px" height="29px" viewBox="0 0 30 29" version="1.1" xmlns="http://www.w3.org/2000/svg" xmlns:xlink="http://www.w3.org/1999/xlink">
    <title>icon-diamond</title>
    <g id="Top-menu-responsive" stroke="none" stroke-width="1" fill="none" fill-rule="evenodd">
        <g id="mobile-home-full" transform="translate(-237.000000, -222.000000)">
            <g id="icons/diamond" transform="translate(236.000000, 220.000000)">
                <rect id="Rectangle" x="0" y="0" width="32" height="32"></rect>
                <path d="M29.9104219,13.7890391 L25.4265937,6.95173437 C25.3254766,6.797625 25.1536484,6.70476562 24.9693516,6.70476562 L7.05192187,6.70476562 C6.86800781,6.70476562 6.69645312,6.7971875 6.59528125,6.95080469 L2.10423437,13.7677109 C2.08285156,13.7971875 2.0643125,13.8290156 2.04883594,13.8630312 C1.9601875,14.0584844 1.99409375,14.2876797 2.13551562,14.4491172 L4.41188281,17.04825 C4.61089062,17.2754766 4.95629687,17.2983359 5.18346875,17.0993828 C5.41064062,16.900375 5.4335,16.5549141 5.23454687,16.3277969 L3.75267969,14.6357109 L11.1082031,14.6357109 L14.8043672,27.2546875 L10.6276094,22.4856641 C10.4286562,22.2584375 10.0831406,22.2355781 9.85602344,22.4345312 C9.62885156,22.6335391 9.60599219,22.979 9.80494531,23.2061172 L15.5903359,29.811875 C15.6941328,29.9304375 15.8441406,29.9984687 16.0016953,29.9984687 C16.1593047,29.9984687 16.3092031,29.9304375 16.413,29.8118203 L26.6174465,18.1568847 C26.8164543,17.9296582 26.7935403,17.5841972 26.566259,17.3852988 C26.3389778,17.186291 25.9935168,17.2092051 25.7946731,17.4364863 L17.1991328,27.2539766 L20.8951328,14.6356562 L28.2475937,14.6356562 L24.8469609,18.5195625 C24.6479531,18.7467891 24.6708672,19.09225 24.8981484,19.2911484 C25.0018906,19.3820391 25.1302969,19.4266094 25.2581562,19.4266094 C25.4102969,19.4266094 25.5616719,19.3634453 25.6697344,19.2399609 L29.8645937,14.4490625 C30.0263594,14.2643281 30.0451172,13.9943906 29.9104219,13.7890391 Z M3.56258594,13.5420703 L7.05082812,8.24717187 L10.5232109,13.5420703 L3.56258594,13.5420703 Z M8.06440625,7.79846094 L14.9891016,7.79846094 L11.5267812,13.0780469 L8.06440625,7.79846094 Z M16.0016406,8.24875781 L19.4729297,13.5420703 L12.5303516,13.5420703 L16.0016406,8.24875781 Z M16.0016406,27.4517266 L12.2477812,14.6357109 L19.7555,14.6357109 L16.0016406,27.4517266 Z M20.4854687,13.0917734 L17.0141797,7.79846094 L23.9568672,7.79846094 L20.4854687,13.0917734 Z M21.4980078,13.5420703 L24.9693516,8.24875781 L28.4405859,13.5420703 L21.4980078,13.5420703 Z" id="Shape" stroke="#404142" stroke-width="0.2" fill="#404142" fill-rule="nonzero"></path>
                <path d="M10.544136,19.4834173 C8.99908992,19.4834173 7.74205146,18.2263788 7.74205146,16.6813327 C7.74205146,16.3505552 7.47387127,16.082375 7.14309375,16.082375 C6.81231623,16.082375 6.54413604,16.3505552 6.54413604,16.6813327 C6.54413604,18.2263788 5.28709758,19.4834173 3.74205146,19.4834173 C3.41133384,19.4834173 3.14309375,19.7515975 3.14309375,20.082375 C3.14309375,20.4131525 3.41133384,20.6813327 3.74205146,20.6813327 C5.28709758,20.6813327 6.54413604,21.9383712 6.54413604,23.4834173 C6.54413604,23.8141948 6.81237613,24.082375 7.14309375,24.082375 C7.47381137,24.082375 7.74205146,23.8141948 7.74205146,23.4834173 C7.74205146,21.9383712 8.99908992,20.6813327 10.544136,20.6813327 C10.8749136,20.6813327 11.1430937,20.4131525 11.1430937,20.082375 C11.1430937,19.7515975 10.8749136,19.4834173 10.544136,19.4834173 Z" id="Path" fill="#1782E9"></path>
                <path d="M30.5507817,4.55078172 C29.3919971,4.55078172 28.4492183,3.60800288 28.4492183,2.44921828 C28.4492183,2.20113514 28.2480831,2 28,2 C27.7519169,2 27.5507817,2.20113514 27.5507817,2.44921828 C27.5507817,3.60800288 26.6080029,4.55078172 25.4492183,4.55078172 C25.2011801,4.55078172 25,4.75191686 25,5 C25,5.24808314 25.2011801,5.44921828 25.4492183,5.44921828 C26.6080029,5.44921828 27.5507817,6.39199712 27.5507817,7.55078172 C27.5507817,7.79886486 27.7519618,8 28,8 C28.2480382,8 28.4492183,7.79886486 28.4492183,7.55078172 C28.4492183,6.39199712 29.3919971,5.44921828 30.5507817,5.44921828 C30.7988649,5.44921828 31,5.24808314 31,5 C31,4.75191686 30.7988649,4.55078172 30.5507817,4.55078172 Z" id="Path-Copy-6" fill="#1782E9"></path>
            </g>
        </g>
    </g>
</svg>