<?xml version="1.0" encoding="UTF-8"?>
<svg width="28px" height="28px" viewBox="0 0 28 28" version="1.1" xmlns="http://www.w3.org/2000/svg" xmlns:xlink="http://www.w3.org/1999/xlink">
    <title>icon-sale</title>
    <g id="Top-menu-responsive" stroke="none" stroke-width="1" fill="none" fill-rule="evenodd">
        <g id="mobile-home-full-copy" transform="translate(-297.000000, -222.000000)" fill-rule="nonzero">
            <g id="icons/sale" transform="translate(297.000000, 222.000000)">
                <path d="M26.4673625,14.3347446 C26.3508504,14.1046862 26.3508504,13.8408421 26.4673625,13.6108382 L27.5474183,11.4786355 C28.1487565,10.2914464 27.6723012,8.87643665 26.4627247,8.25710721 L24.2902831,7.14474854 C24.0559015,7.02477973 23.8952167,6.81125926 23.8493471,6.5591501 L23.4244739,4.22150487 C23.1878864,2.91996881 21.9403021,2.04536452 20.5847461,2.23044834 L18.1496998,2.562846 C17.8868689,2.59865107 17.6269791,2.51710721 17.4363178,2.33911891 L15.6687841,0.68902924 C14.6845962,-0.229785575 13.1427905,-0.229840156 12.1586592,0.68902924 L10.391069,2.33928265 C10.2003511,2.51732554 9.94046126,2.59870565 9.67768689,2.56300975 L7.24264067,2.23061209 C5.88663219,2.0454191 4.6395003,2.92013255 4.40291288,4.22166862 L3.97803965,6.55920468 C3.93217008,6.81136842 3.7714852,7.02483431 3.53716014,7.1448577 L1.36471861,8.25721637 C0.155142076,8.87649123 -0.321313209,10.2916101 0.280024942,11.4787992 L1.36002419,13.6109474 C1.47653628,13.8410058 1.47653628,14.1048499 1.36002419,14.3348538 L0.279968383,16.4670019 C-0.321369768,17.654191 0.155085516,19.0692008 1.36466205,19.6885302 L3.53710358,20.8008889 C3.7714852,20.9208577 3.93217008,21.1343782 3.97803965,21.3864873 L4.40291288,23.7241326 C4.61829058,24.9089747 5.67108481,25.7399142 6.88105726,25.7398051 C7.00022764,25.7398051 7.12115136,25.7317271 7.24269723,25.7151345 L9.67774345,25.3827368 C9.94034814,25.346768 10.2004077,25.4284756 10.3911255,25.6064639 L12.1586592,27.2565536 C12.650838,27.7160156 13.2821526,27.9456374 13.9136934,27.9456374 C14.5450645,27.9456374 15.176775,27.7159064 15.6687275,27.2565536 L17.4363178,25.6064639 C17.6270356,25.4284756 17.886982,25.3471501 18.1496998,25.3827368 L20.5847461,25.7151345 C21.9409242,25.9002729 23.1878864,25.025614 23.4244739,23.724078 L23.8494036,21.3865419 C23.8952732,21.1343782 24.0559581,20.9209123 24.2902831,20.8008889 L26.4627247,19.6885302 C27.6723012,19.0692554 28.1487565,17.6541365 27.5474183,16.4669474 L26.4673625,14.3347446 Z M25.6798878,18.2646784 L23.5074463,19.377037 C22.8148215,19.7317583 22.3397802,20.3626043 22.2043207,21.107961 L21.7794475,23.4455517 C21.6994161,23.8859103 21.2775406,24.1816842 20.8186752,24.1191891 L18.383629,23.7867914 C17.6070702,23.6806316 16.838656,23.9218246 16.2750429,24.4479298 L14.5074526,26.0979649 C14.1745447,26.4087485 13.6528986,26.4087485 13.3198776,26.0979649 L11.5523439,24.4478752 C11.0760017,24.0032047 10.4532842,23.76223 9.80319191,23.76223 C9.68407809,23.76223 9.56400276,23.770308 9.44375775,23.7867368 L7.00871153,24.1191345 C6.5502421,24.1816842 6.12802715,23.8858558 6.04793923,23.4454971 L5.62300943,21.1078519 C5.48749343,20.3624951 5.01250868,19.7315945 4.31982731,19.3769825 L2.14738578,18.2646238 C1.7381229,18.0550877 1.57692899,17.5763587 1.78037268,17.1746979 L2.86042849,15.0424951 C3.20476132,14.3626355 3.20476132,13.5828928 2.86042849,12.9030331 L1.78037268,10.7708304 C1.57692899,10.3691696 1.7381229,9.89044055 2.14738578,9.68090448 L4.31982731,8.56854581 C5.01245212,8.21382456 5.48749343,7.58297856 5.62295288,6.83762183 L6.04782611,4.50003119 C6.12791403,4.05967251 6.54973306,3.76384405 7.00859841,3.82639376 L9.44364464,4.15879142 C10.2199206,4.26484211 10.9886176,4.02375828 11.5522308,3.49765302 L13.319821,1.84756335 C13.6527289,1.53677973 14.174375,1.53677973 14.507396,1.84756335 L16.2749297,3.49765302 C16.8385429,4.02381287 17.6071268,4.26484211 18.3835159,4.15879142 L20.8185621,3.82639376 C21.2770881,3.76378947 21.699303,4.05967251 21.7793344,4.50003119 L22.2042076,6.83767641 C22.3397236,7.58303314 22.8147084,8.21393372 23.5073897,8.56854581 L25.6798313,9.68090448 C26.0890941,9.89044055 26.2502881,10.3691696 26.0468444,10.7708304 L24.9667886,12.9029786 C24.6224557,13.5827836 24.6224557,14.3626355 24.9667886,15.0424405 L26.0468444,17.1745887 C26.2503446,17.5763587 26.0891507,18.0551423 25.6798878,18.2646784 Z" id="Shape" fill="#404142"></path>
                <path d="M20.0155336,8.08430409 C19.6894694,7.76959064 19.1606402,7.76959064 18.8345195,8.08430409 L7.81174004,18.721575 C7.48561929,19.0362885 7.48561929,19.5465653 7.81174004,19.8612788 C7.97480041,20.0186355 8.18853789,20.0973411 8.40221881,20.0973411 C8.61589973,20.0973411 8.82969377,20.0186901 8.99269758,19.8612788 L20.015477,9.22406238 C20.3417109,8.90929435 20.3417109,8.39907212 20.0155336,8.08430409 Z" id="Path" fill="#F44436"></path>
                <path d="M10.5732464,6.71978168 C8.88483905,6.71978168 7.51118408,8.04538791 7.51118408,9.67473684 C7.51118408,11.3040858 8.88483905,12.629692 10.5732464,12.629692 C12.2616537,12.629692 13.6353086,11.3040858 13.6353086,9.67473684 C13.6353086,8.04538791 12.2616537,6.71978168 10.5732464,6.71978168 Z M10.5732464,11.0178635 C9.80579364,11.0178635 9.18143586,10.415345 9.18143586,9.67468226 C9.18143586,8.93407407 9.80579364,8.33155556 10.5732464,8.33155556 C11.3406991,8.33155556 11.9651134,8.93407407 11.9651134,9.67468226 C11.9650569,10.415345 11.3406991,11.0178635 10.5732464,11.0178635 Z" id="Shape" fill="#F44436"></path>
                <path d="M17.2540273,15.3159454 C15.5656199,15.3159454 14.191965,16.6415517 14.191965,18.2709006 C14.191965,19.9002495 15.5656199,21.2258558 17.2540273,21.2258558 C18.9424346,21.2258558 20.3160895,19.9002495 20.3160895,18.2709006 C20.3160895,16.6415517 18.9424346,15.3159454 17.2540273,15.3159454 Z M17.2540273,19.6140273 C16.4865745,19.6140273 15.8621602,19.0115088 15.8621602,18.2709006 C15.8621602,17.5302924 16.486518,16.9277739 17.2540273,16.9277739 C18.02148,16.9277739 18.6458377,17.5302924 18.6458377,18.2709006 C18.6458377,19.0115088 18.02148,19.6140273 17.2540273,19.6140273 Z" id="Shape" fill="#F44436"></path>
            </g>
        </g>
    </g>
</svg>