<?xml version="1.0" encoding="UTF-8"?>
<svg width="32px" height="32px" viewBox="0 0 32 32" version="1.1" xmlns="http://www.w3.org/2000/svg" xmlns:xlink="http://www.w3.org/1999/xlink">
    <title>icon-user-focus</title>
    <g id="Top-menu-responsive" stroke="none" stroke-width="1" fill="none" fill-rule="evenodd">
        <g id="Home-full" transform="translate(-1588.000000, -36.000000)">
            <g id="icon-user-focus" transform="translate(1588.000000, 36.000000)">
                <rect id="shape" x="0" y="0" width="32" height="32"></rect>
                <path d="M16.0203192,20 C22.3624546,20 27.7196224,24.2171472 29.4406385,30.0002573 L27.3375247,30.0000801 C25.6902017,25.3392688 21.2452245,22 16.0203192,22 C10.795414,22 6.35043678,25.3392688 4.70311376,30.0000801 L2.6,30.0002573 C4.32101604,24.2171472 9.67818388,20 16.0203192,20 Z" id="Path" fill="#1782E9"></path>
                <path d="M16,2 C20.418278,2 24,5.581722 24,10 C24,14.418278 20.418278,18 16,18 C11.581722,18 8,14.418278 8,10 C8,5.581722 11.581722,2 16,2 Z M16,4 C12.6862915,4 10,6.6862915 10,10 C10,13.3137085 12.6862915,16 16,16 C19.3137085,16 22,13.3137085 22,10 C22,6.6862915 19.3137085,4 16,4 Z" id="Shape" fill="#1782E9"></path>
            </g>
        </g>
    </g>
</svg>