<?xml version="1.0" encoding="UTF-8"?>
<svg width="35px" height="38px" viewBox="0 0 35 38" version="1.1" xmlns="http://www.w3.org/2000/svg" xmlns:xlink="http://www.w3.org/1999/xlink">
    <title>icon-social-youtube</title>
    <g id="Top-menu-responsive" stroke="none" stroke-width="1" fill="none" fill-rule="evenodd">
        <g id="top-menu-1-1" transform="translate(-1869.000000, -1206.000000)">
            <g id="icon-social-youtube" transform="translate(1869.000000, 1206.000000)">
                <path d="M12.2602128,37.4467388 C10.0477167,34.3665374 4.66330092,35.5740005 3.43151483,31.1622418 C2.92372044,30.4136499 2.08688554,29.9610715 1.6083278,29.174471 C0.877155165,27.961722 0.602997487,26.6183343 1.95301247,25.8574085 C3.85288159,24.7851148 4.97464556,25.7076397 5.32009962,27.6536263 C5.75172485,25.8883691 5.03568347,24.218259 4.49608781,22.5199572 C2.76573996,17.0620829 6.30901637,9.19733707 11.6513724,6.71520366 C12.1353158,6.4899213 12.7246651,6.70740059 13.2160459,6.9709432 C15.2928737,9.73876988 12.9298345,12.0228058 12.3468968,14.5011636 C11.6998437,17.2395399 10.2139039,20.1840686 14.0528808,21.8871529 C17.7749111,23.5363708 22.2011856,22.0751819 23.9328157,18.6171605 C25.7395892,15.0111324 23.4273295,12.9123565 20.8665583,10.9769419 C18.5568632,9.23005965 15.1933665,9.37655612 13.2468213,6.94677883 C13.7610273,3.59573511 16.2551184,3.84165787 18.6573962,4.19556514 C26.1399261,5.29831603 31.6305171,12.510624 30.9416606,20.230887 C30.4743872,25.4926776 23.2029254,30.2236072 15.2359392,30.3273126 C17.4763896,31.9249296 19.3211194,33.6066184 17.9421242,36.549385 C16.1197066,37.3025078 14.4268022,38.8170597 12.2602128,37.4467388" id="Fill-11" fill="#F83636"></path>
                <path d="M18.2104,36.7728558 C17.835102,32.5384631 15.0933411,31.0080239 11.1870374,31.0592668 C11.4034186,28.6447599 13.008606,29.1176157 14.0119436,29.4742869 C16.8076091,30.4725097 19.7815157,29.7921454 21.8563343,28.6660689 C25.5843969,26.6396892 30.7294893,24.8624214 29.9018503,19.0767879 C28.6066142,10.0603118 24.1068514,5.41217031 17.3148717,5.32541244 C15.6601022,5.30486452 14.5497182,5.99816642 13.8576035,7.45757579 C7.47779058,10.7343341 4.74543756,17.052184 6.9616286,23.3512617 C7.13885269,23.8510073 7.24793323,24.3928635 7.27158006,24.9205136 C7.31989079,25.9859611 7.28683608,27.054199 7.28683608,28.0453189 C5.24125818,29.0800713 4.47591456,25.5399952 3.06549559,26.8205616 C1.27164201,28.4466374 3.94602216,29.9253263 3.98263661,31.6132995 C-0.537213319,30.4065534 -0.574336299,27.3738333 0.773278722,23.7741429 C2.51653317,20.7376176 3.35281728,17.4951057 2.99709777,13.9842026 C3.27043478,13.595568 3.54148339,13.2046502 3.81329479,12.8142398 C6.43427888,10.7399151 6.52378086,7.15544532 8.62428042,4.76478412 C12.4713399,2.49284422 16.9416078,2.10649267 21.0861596,2.0024847 C25.65788,1.88782226 28.5600834,5.76275326 31.1846272,9.25945041 C33.5645662,14.8916087 35.444362,20.5653702 32.4755407,26.5988471 C28.5939009,30.1074671 24.2904322,33.0924958 20.2384335,36.395383 C19.6259043,36.8509886 19.0011703,37.2756455 18.2104,36.7728558" id="Fill-12" fill="#FF5438"></path>
                <path d="M30.9012996,25.6040845 C34.4956621,23.1869706 32.0166844,19.8789854 31.9644573,17.0784966 C31.9150743,14.5415155 30.546569,12.0260554 29.7603184,9.50058548 C29.0896396,7.06895738 27.4442272,4.77321217 28.6607051,2.08082905 C29.399124,2.05305188 30.1388356,2.02827766 30.8811327,2 C33.4950735,5.5302025 32.2948843,10.0738962 34.2257358,13.7872778 C36.3375725,19.1310039 33.4110447,24.3843917 33.8575606,29.7261158 C33.9633076,31.0201313 31.9140401,31.0874472 30.7769371,31.512613 C28.5901209,32.3294118 26.5240477,32.8111329 25.5943018,35.5578191 C24.8840649,37.6603754 14.6951255,38.73868 12,37.4296498 C13.8550964,37.0440226 15.7099343,36.6581453 17.5670991,36.2700157 C17.9453578,35.9399429 18.3225823,35.6086188 18.6992897,35.2777953 C23.4330821,33.423732 26.499744,30.9921039 30.9012996,25.6040845" id="Fill-13" fill="#FF7861"></path>
                <path d="M28.9024113,1.88792741 C30.4446517,4.09326958 29.8832462,6.59196975 29.9654824,9 C25.4377445,4.04097845 20.6660476,0.114106939 13.2380478,4.2726905 C11.9780099,4.97958014 10.1303209,4.71140823 8.55458611,4.89538664 C8.40661102,4.7478681 8.25863592,4.60106916 8.11166066,4.4545101 C7.89394731,3.8255774 7.97018447,3.27004418 8.55858544,2.84739757 C10.5642479,0.790533405 12.7368822,-0.563998599 15.7276288,1.14577723 C17.3256098,2.06063204 18.7508699,1.12131074 20.3041085,0.822195921 C23.2168683,0.265463358 26.4128303,-1.16006944 28.9024113,1.88792741" id="Fill-14" fill="#FF6950"></path>
                <path d="M34.4259029,14 C31.0987834,10.579473 31.3281303,6.22070655 31,2.0103377 C34.5178006,1.84997664 35.3734818,3.56227645 34.8655286,6.65979042 C34.47066,9.06775181 34.5548774,11.5495302 34.4259029,14" id="Fill-15" fill="#FF8C79"></path>
                <path d="M2.99731585,13 C4.95769437,18.1031302 3.99717967,21.9839863 0.521435629,23 C-1.38996881,19.0997098 2.53418527,16.4084784 2.99731585,13" id="Fill-16" fill="#FF6950"></path>
                <path d="M8,5.22788229 C7.60347682,8.55436965 6.96467991,11.7429308 3,13 C3.06456954,10.4939903 4.52952539,8.48094883 5.6004415,6.327359 C6.26903974,5.74104135 6.60789183,4.55214858 7.9357064,5.17622551 L8,5.22788229" id="Fill-17" fill="#FF6950"></path>
                <path d="M7.94283747,4.96551724 C7.29384757,5.31097321 6.64646465,5.65383709 6,6 C6.01033058,4.53782107 5.94054178,3.02050114 8,3 C7.98163453,3.65627209 7.96097337,4.31065902 7.94283747,4.96551724" id="Fill-18" fill="#FF8C79"></path>
                <path d="M13.4788682,7.00096319 C16.0564323,6.96563059 18.3906924,7.90741867 20.6156165,8.99402067 C25.4402232,11.3550846 27.2584678,15.6447614 25.1024128,19.1538862 C22.2350456,23.8255034 15.617329,25.5789461 11.6691695,22.3577074 C9.08481904,20.2501922 10.0736184,17.1725233 10.8628481,14.4708232 C11.6018084,11.9423026 12.5968914,9.48693538 13.4788682,7.00096319" id="Fill-19" fill="#F00B09"></path>
                <path d="M21.7149714,19.3049143 L16.568,22.1277714 C16.344,22.2484571 16.1428571,22.0866286 16.1428571,21.8324571 L16.1428571,16.0381714 C16.1428571,15.7803429 16.3504,15.6185143 16.5744,15.7460571 L21.7565714,18.7174857 C21.9856,18.8482286 21.9467429,19.1792 21.7149714,19.3049143 Z M29.8571429,15.976 C29.8571429,13.2276571 27.6294857,11 24.8816,11 L11.976,11 C9.22811429,11 7,13.2276571 7,15.976 L7,22.024 C7,24.7723429 9.22811429,27 11.976,27 L24.8816,27 C27.6294857,27 29.8571429,24.7723429 29.8571429,22.024 L29.8571429,15.976 L29.8571429,15.976 Z" id="Fill-52" fill="#FFFFFE"></path>
                <path d="M31,25 C28.3108446,29.958481 25.4355638,34.6913884 19,35 C23.0014409,31.6676152 27.000339,28.3336782 31,25" id="Fill-20" fill="#FF6950"></path>
                <path d="M28,11.0001123 L28,11.0001123 C28,11.0001123 28,10.999607 28,11.0001123" id="Fill-21" fill="#FFFFFE"></path>
                <path d="M27.9988727,10.97171 C28.0039455,11.0927205 27.9988727,10.9838363 27.9988727,10.97171" id="Fill-23" fill="#FFFFFE"></path>
            </g>
        </g>
    </g>
</svg>