<?xml version="1.0" encoding="UTF-8"?>
<svg width="28px" height="28px" viewBox="0 0 28 28" version="1.1" xmlns="http://www.w3.org/2000/svg" xmlns:xlink="http://www.w3.org/1999/xlink">
    <title>icon-frame</title>
    <g id="Top-menu-responsive" stroke="none" stroke-width="1" fill="none" fill-rule="evenodd">
        <g id="mobile-home-full" transform="translate(-138.000000, -222.000000)">
            <g id="icons/frame" transform="translate(136.000000, 220.000000)">
                <rect id="Rectangle" x="0" y="0" width="32" height="32"></rect>
                <path d="M29.9531304,8.46328261 C29.8916522,8.31415217 29.7729565,8.19545652 29.6238261,8.13397826 C29.5495652,8.10354348 29.4704348,8.0871087 29.3913043,8.0871087 L22.3389565,8.0871087 L16.4303478,2.1785 C16.1923478,1.9405 15.8076522,1.9405 15.5696522,2.1785 L9.66104348,8.0871087 L2.60869565,8.0871087 C2.52956522,8.0871087 2.45043478,8.10354348 2.37617391,8.13397826 C2.22704348,8.19545652 2.10834783,8.31415217 2.04686957,8.46328261 C2.01643478,8.53754348 2,8.61667391 2,8.69580435 L2,29.3914565 C2,29.470587 2.01643478,29.5497174 2.04686957,29.6239783 C2.10834783,29.7731087 2.22704348,29.8918043 2.37617391,29.9532826 C2.45043478,29.9837174 2.52956522,30.0001522 2.60869565,30.0001522 L29.3913043,30.0001522 C29.4704348,30.0001522 29.5495652,29.9837174 29.6238261,29.9532826 C29.7729565,29.8918043 29.8916522,29.7731087 29.9531304,29.6239783 C29.9841739,29.5497174 30,29.470587 30,29.3914565 L30,8.69580435 C30,8.61667391 29.9841739,8.53754348 29.9531304,8.46328261 Z M16,3.46954348 L20.6175652,8.0871087 L11.3824348,8.0871087 L16,3.46954348 Z M9.91304348,9.3045 L22.0869565,9.3045 L27.921913,9.3045 L25.4871304,11.7392826 L6.51286957,11.7392826 L4.07808696,9.3045 L9.91304348,9.3045 L9.91304348,9.3045 Z M25.1304348,12.9566739 L25.1304348,25.130587 L6.86956522,25.130587 L6.86956522,12.9566739 L25.1304348,12.9566739 Z M3.2173913,10.1651957 L5.65217391,12.5999783 L5.65217391,25.4872826 L3.2173913,27.9220652 L3.2173913,10.1651957 Z M4.07808696,28.7827609 L6.51286957,26.3479783 L25.4871304,26.3479783 L27.921913,28.7827609 L4.07808696,28.7827609 Z M28.7826087,27.9220652 L26.3478261,25.4872826 L26.3478261,12.5999783 L28.7826087,10.1651957 L28.7826087,27.9220652 Z" id="Shape" fill="#404142" fill-rule="nonzero"></path>
                <polygon id="Path-Copy-5" fill="#FFC31A" fill-rule="nonzero" points="9.91311957 9.3045 22.0870326 9.3045 27.9219891 9.3045 25.4872065 11.7392826 6.51294565 11.7392826 4.07816304 9.3045 9.91311957 9.3045"></polygon>
                <polygon id="Path-Copy-4" fill="#FFC31A" fill-rule="nonzero" points="3.21746739 10.1651957 5.65225 12.5999783 5.65225 25.4872826 3.21746739 27.9220652"></polygon>
                <polygon id="Path-Copy-3" fill="#FFC31A" fill-rule="nonzero" points="4.07816304 28.7827609 6.51294565 26.3479783 25.4872065 26.3479783 27.9219891 28.7827609"></polygon>
                <polygon id="Path-Copy-2" fill="#FFC31A" fill-rule="nonzero" points="28.7826848 27.9220652 26.3479022 25.4872826 26.3479022 12.5999783 28.7826848 10.1651957"></polygon>
            </g>
        </g>
    </g>
</svg>