<?xml version="1.0" encoding="UTF-8"?>
<svg width="24px" height="24px" viewBox="0 0 24 24" version="1.1" xmlns="http://www.w3.org/2000/svg" xmlns:xlink="http://www.w3.org/1999/xlink">
    <title>icon-mobile</title>
    <g id="Top-menu-responsive" stroke="none" stroke-width="1" fill="none" fill-rule="evenodd">
        <g id="Home-full" transform="translate(-1333.000000, -8205.000000)">
            <g id="Group-36" transform="translate(-141.000000, 7935.000000)">
                <g id="Group-8" transform="translate(1458.000000, 262.000000)">
                    <g id="icon-mobile" transform="translate(16.000000, 8.000000)">
                        <polygon id="Path" points="0 0 24 0 24 24 0 24"></polygon>
                        <path d="M16,1 L8,1 C6.34,1 5,2.34 5,4 L5,20 C5,21.66 6.34,23 8,23 L16,23 C17.66,23 19,21.66 19,20 L19,4 C19,2.34 17.66,1 16,1 Z M17,18 L7,18 L7,4 L17,4 L17,18 Z M14,21 L10,21 L10,20 L14,20 L14,21 Z" id="Shape" fill="#A5AAAE" fill-rule="nonzero"></path>
                    </g>
                </g>
            </g>
        </g>
    </g>
</svg>