<?xml version="1.0" encoding="UTF-8"?>
<svg width="32px" height="32px" viewBox="0 0 32 32" version="1.1" xmlns="http://www.w3.org/2000/svg" xmlns:xlink="http://www.w3.org/1999/xlink">
    <title>icon-cart-focus</title>
    <g id="Top-menu-responsive" stroke="none" stroke-width="1" fill="none" fill-rule="evenodd">
        <g id="Home-full" transform="translate(-1750.000000, -36.000000)">
            <g id="icon-cart-focus" transform="translate(1750.000000, 36.000000)">
                <rect id="Rectangle" x="0" y="0" width="32" height="32"></rect>
                <path d="M27.0626681,4.76030213 L7.72054894,4.76030213 L7.72054894,4.92963404 L7.47852766,4.09990213 C7.18694043,3.09895745 6.2552,2.4 5.21276596,2.4 L3.59008936,2.4 C3.26392766,2.4 3,2.66392766 3,2.99008936 C3,3.31625106 3.26392766,3.58017872 3.59008936,3.58017872 L5.21276596,3.58017872 C5.73425957,3.58017872 6.19988085,3.92940851 6.34564681,4.43015745 L10.018617,17.0227319 L8.13660426,19.3749574 C7.86808511,19.7109106 7.72054894,20.132166 7.72054894,20.5619957 C7.72054894,21.610183 8.57279574,22.4624298 9.62098298,22.4624298 L26.012766,22.4624298 C26.3389277,22.4624298 26.6028553,22.1985021 26.6028553,21.8723404 C26.6028553,21.5461787 26.3389277,21.2822511 26.012766,21.2822511 L9.62098298,21.2822511 C9.22395745,21.2822511 8.90067234,20.958966 8.90067234,20.5619404 C8.90067234,20.3988596 8.95654468,20.2386553 9.05855319,20.1119191 L10.9548383,17.7418255 L22.528766,17.7418255 C23.4386553,17.7418255 24.2770723,17.2099319 24.6649149,16.3865064 L28.7827617,7.63628936 C28.9008681,7.3844766 28.9631021,7.10500426 28.9631021,6.8278 L28.9631021,6.66068085 C28.9631021,5.61254894 28.1108553,4.76030213 27.0626681,4.76030213 Z M27.7829787,6.82785532 C27.7829787,6.93329362 27.7593574,7.03934043 27.714383,7.13443404 L23.5971447,15.8840426 C23.4029745,16.2955064 22.9840426,16.5617021 22.528766,16.5617021 L11.1134936,16.5617021 L8.0154,5.94042553 L27.0626681,5.94042553 C27.4596936,5.94042553 27.7829787,6.26371064 27.7829787,6.66073617 L27.7829787,6.82785532 Z" id="Shape" stroke="#1782E9" stroke-width="0.8" fill="#1782E9" fill-rule="nonzero"></path>
                <circle id="Oval" stroke="#1782E9" stroke-width="2" fill="#FFFFFF" cx="10" cy="27" r="2"></circle>
                <circle id="Oval" stroke="#1782E9" stroke-width="2" fill="#FFFFFF" cx="24" cy="27" r="2"></circle>
            </g>
        </g>
    </g>
</svg>