<?xml version="1.0" encoding="UTF-8"?>
<svg width="190px" height="48px" viewBox="0 0 190 48" version="1.1" xmlns="http://www.w3.org/2000/svg" xmlns:xlink="http://www.w3.org/1999/xlink">
    <title>logo-main</title>
    <g id="Top-menu-responsive" stroke="none" stroke-width="1" fill="none" fill-rule="evenodd">
        <g id="Home-full" transform="translate(-865.000000, -24.000000)" fill-rule="nonzero">
            <g id="logo-main" transform="translate(865.000000, 24.000000)">
                <path d="M37.0483761,9.33081081 C37.1198291,13.3264865 39.7538462,14.4713514 42.2449573,14.4227027 C44.8140171,14.3740541 47.2434188,13.0118919 47.2434188,9.43135135 C47.2434188,7.20324324 45.2947009,5.63027027 44.625641,4.36216216 C43.5441026,2.32864865 45.2557265,1.19675676 46.574359,1.66702703 C46.574359,1.01837838 45.3888889,-0.304864865 43.1153846,0.0648648649 C39.877265,0.587027027 37.0483761,5.03675676 37.0483761,9.33081081 Z" id="Path" fill="#F44436"></path>
                <path d="M11.2603419,43.8908108 C11.1380249,43.8908108 11.0207178,43.8422897 10.9342267,43.7559216 C10.8477355,43.6695535 10.7991453,43.5524132 10.7991453,43.4302703 L10.7991453,17.0821622 C10.7991453,16.9600192 10.8477355,16.8428789 10.9342267,16.7565108 C11.0207178,16.6701427 11.1380249,16.6216216 11.2603419,16.6216216 L23.9270085,16.6216216 C26.1987154,16.5703669 28.4559088,16.9957508 30.5526496,17.8702703 C34.1742883,19.354085 36.4893388,22.9310348 36.3565812,26.8378378 C36.4888123,30.7452828 34.1741678,34.3228986 30.5526496,35.8086486 C28.4583525,36.6796121 26.2048651,37.1038184 23.9367521,37.0540541 L20.1010256,37.0540541 C19.8470505,37.0558215 19.641599,37.2609808 19.6398291,37.5145946 L19.6398291,43.4302703 C19.6406945,43.552114 19.5928287,43.6692643 19.5068527,43.7557269 C19.4208767,43.8421895 19.3039007,43.8908108 19.1818803,43.8908108 L11.2603419,43.8908108 Z M19.6398291,29.9124324 C19.6398291,30.1667819 19.8463138,30.372973 20.1010256,30.372973 L23.3488889,30.372973 C24.6870085,30.372973 25.7133333,30.0486486 26.3986325,29.4486486 C27.1120468,28.7789926 27.4954993,27.830616 27.4476923,26.8540541 C27.4946142,25.8776417 27.1113059,24.9296215 26.3986325,24.2594595 C25.7133333,23.6464865 24.6870085,23.3351351 23.3488889,23.3351351 L20.1010256,23.3351351 C19.8470505,23.3369025 19.641599,23.5420619 19.6398291,23.7956757 L19.6398291,29.9124324 Z" id="Shape" fill="#09114A"></path>
                <path d="M37.8441026,43.4043243 L39.4128205,17.052973 C39.4266136,16.8106004 39.6276602,16.6212306 39.8707692,16.6216207 L44.5964103,16.6216207 C44.8401301,16.6211323 45.0421603,16.8100886 45.0576068,17.052973 L46.6263248,43.4043243 C46.6263248,49.4854054 37.8441026,49.4854054 37.8441026,43.4043243 Z" id="Path" fill="#09114A"></path>
                <path d="M63.7165812,44.5264865 C60.9962556,44.5661567 58.3072841,43.9427396 55.882735,42.7102703 C53.6331895,41.5579781 51.7485958,39.8040711 50.4393162,37.6443243 C49.1127646,35.4103039 48.431532,32.8531416 48.4711111,30.2562162 C48.431532,27.6592908 49.1127646,25.1021285 50.4393162,22.8681081 C51.7485958,20.7083613 53.6331895,18.9544543 55.882735,17.8021622 C58.3072841,16.5696929 60.9962556,15.9462758 63.7165812,15.9859459 C66.1660334,15.9446774 68.596229,16.4244972 70.845641,17.3935135 C72.655967,18.1951228 74.2639069,19.3907744 75.5517949,20.892973 C75.7181862,21.0847732 75.6978525,21.3748401 75.5063248,21.5416216 L70.6637607,25.8518919 C70.4742873,26.0204952 70.1840018,26.0045522 70.014188,25.8162162 C68.3447863,23.9643243 66.3895726,23.027027 64.1940171,23.027027 C62.1608547,23.027027 60.5011966,23.6756757 59.257265,24.9989189 C58.0133333,26.3221622 57.3897436,28.0735135 57.3897436,30.2562162 C57.3897436,32.4389189 58.0198291,34.2097297 59.257265,35.5135135 C60.4947009,36.8172973 62.1608547,37.4886486 64.1940171,37.4886486 C66.3895726,37.4886486 68.3447863,36.5513514 70.014188,34.6962162 C70.1840018,34.5078803 70.4742873,34.4919373 70.6637607,34.6605405 L75.5063248,38.9772973 C75.6978525,39.1440788 75.7181862,39.4341458 75.5517949,39.6259459 C74.2647886,41.1315129 72.6568083,42.330519 70.845641,43.1351351 C68.5945411,44.0970714 66.1647228,44.5712897 63.7165812,44.5264865 Z" id="Path" fill="#09114A"></path>
                <path d="M99.1864957,43.8908108 C98.9951344,43.891449 98.8232576,43.7740163 98.7545299,43.5956757 L97.1111111,39.3372973 C97.0435712,39.159465 96.8728559,39.0419424 96.6823932,39.0421622 L86.3476923,39.0421622 C86.1572295,39.0419424 85.9865143,39.159465 85.9189744,39.3372973 L84.2755556,43.5956757 C84.2072543,43.7729105 84.037012,43.8901076 83.8468376,43.8908108 L75.9252991,43.8908108 C75.7680676,43.8929754 75.6207196,43.8144334 75.5350221,43.6827787 C75.4493246,43.5511239 75.4372638,43.3847704 75.5030769,43.2421622 L87.042735,16.8972973 C87.1143866,16.7298132 87.2793232,16.6212886 87.4617094,16.6216209 L95.7340171,16.6216209 C95.9170738,16.6216209 96.0827588,16.7298743 96.1562393,16.8972973 L107.689402,43.2486486 C107.755215,43.3912569 107.743154,43.5576104 107.657457,43.6892652 C107.571759,43.8209199 107.424411,43.8994619 107.267179,43.8973409 L99.1864957,43.8908108 Z M88.6471795,32.2151351 C88.5943408,32.3564702 88.6136458,32.5146374 88.6989338,32.6391614 C88.7842218,32.7636854 88.924834,32.839004 89.0758974,32.8410811 L93.9476923,32.8410811 C94.0993538,32.8405211 94.241046,32.765539 94.3266641,32.6405329 C94.4122823,32.5155269 94.4308817,32.3564767 94.3764103,32.2151351 L91.937265,25.9135135 C91.8675628,25.7379936 91.6976329,25.6227406 91.508547,25.6227406 C91.3194611,25.6227406 91.1495312,25.7379936 91.0798291,25.9135135 L88.6471795,32.2151351 Z" id="Shape" fill="#09114A"></path>
                <path d="M120.242393,44.5265244 C117.992226,44.5301149 115.749223,44.2732655 113.558291,43.7610811 C111.910051,43.3982432 110.316818,42.8203049 108.819658,42.0421622 C108.611541,41.92547 108.52588,41.6702543 108.621538,41.4518919 L111.054188,35.9383784 C111.105814,35.8216468 111.203325,35.7313138 111.323761,35.6886486 C111.443382,35.6466336 111.575095,35.6560282 111.687521,35.7145946 C112.907917,36.3398066 114.188731,36.8396673 115.510256,37.2064865 C117.073744,37.6604838 118.692164,37.8983728 120.320342,37.9135135 C121.674701,37.9135135 122.623077,37.7805405 123.220684,37.5113514 C124.045641,37.1383784 124.221026,36.5383784 124.221026,36.1264865 C124.221026,35.4227027 123.792308,34.8940541 122.951111,34.5567568 C121.762365,34.1386996 120.54292,33.8133985 119.303761,33.5837838 C117.494412,33.2250015 115.711561,32.743894 113.967521,32.1437838 C112.570591,31.6351291 111.32262,30.7868686 110.33641,29.6756757 C109.329573,28.5535135 108.81641,27.0064865 108.81641,25.0702703 C108.80595,23.4222062 109.30376,21.81087 110.242222,20.4551351 C111.18735,19.0767568 112.626154,17.9740541 114.519658,17.1762162 C116.413162,16.3783784 118.780855,15.9664828 121.515556,15.9664828 C123.390079,15.9654846 125.259048,16.1699522 127.088889,16.5762162 C128.54599,16.8884821 129.958742,17.3797908 131.294872,18.0389189 C131.509893,18.1477363 131.604722,18.4035516 131.512479,18.6259459 L129.238974,24.0843243 C129.19049,24.199978 129.09718,24.2911023 128.98031,24.3369284 C128.86344,24.3827545 128.732968,24.3793777 128.618632,24.3275676 C126.111282,23.16 123.694872,22.5697297 121.434359,22.5697297 C118.836068,22.5697297 117.536923,23.2508108 117.536923,24.5935135 C117.536923,25.2713514 117.959145,25.7805405 118.78735,26.1016216 C119.957991,26.5014208 121.159359,26.805132 122.379487,27.0097297 C124.189441,27.3268271 125.972345,27.7822193 127.712479,28.3718919 C129.124944,28.8733671 130.392078,29.7143224 131.402051,30.8205405 C132.42188,31.9297297 132.941767,33.4702703 132.941767,35.4032432 C132.953985,37.0440677 132.457011,38.6484385 131.518974,39.9956757 C130.570598,41.3643243 129.131795,42.467027 127.238291,43.2778378 C125.344786,44.0886486 122.977094,44.5265244 120.242393,44.5265244 Z" id="Path" fill="#09114A"></path>
                <path d="M145.043077,44.5265244 C142.79291,44.5301149 140.549906,44.2732655 138.358974,43.7610811 C136.710735,43.3982432 135.117502,42.8203049 133.620342,42.0421622 C133.412225,41.92547 133.326563,41.6702543 133.422222,41.4518919 L135.85812,35.9383784 C135.90735,35.8211438 136.004182,35.7303455 136.124444,35.6886486 C136.245193,35.6468644 136.377804,35.6562395 136.491453,35.7145946 C137.71045,36.3404025 138.990249,36.8402919 140.31094,37.2064865 C141.875491,37.660697 143.495012,37.8985873 145.124274,37.9135135 C146.475385,37.9135135 147.423761,37.7805405 148.024615,37.5113514 C148.849573,37.1383784 149.021709,36.5383784 149.021709,36.1264865 C149.021709,35.4227027 148.592991,34.8940541 147.751795,34.5567568 C146.563337,34.1377676 145.343819,33.8124469 144.104444,33.5837838 C142.295096,33.2250015 140.512245,32.743894 138.768205,32.1437838 C137.371817,31.6358804 136.124727,30.78746 135.140342,29.6756757 C134.130256,28.5535135 133.617094,27.0064865 133.617094,25.0702703 C133.606634,23.4222062 134.104444,21.81087 135.042906,20.4551351 C135.988034,19.0962162 137.426838,17.9935135 139.333333,17.1891892 C141.239829,16.3848649 143.59453,15.9794558 146.329231,15.9794558 C148.203754,15.9784575 150.072724,16.1829252 151.902564,16.5891892 C153.35981,16.9009395 154.772624,17.39227 156.108547,18.0518919 C156.324842,18.1595711 156.420106,18.41656 156.326154,18.6389189 L154.05265,24.0972973 C154.004165,24.212951 153.910855,24.3040753 153.793985,24.3499014 C153.677115,24.3957275 153.546644,24.3923506 153.432308,24.3405405 C150.924957,23.172973 148.508547,22.5827027 146.248034,22.5827027 C143.649744,22.5827027 142.350598,23.2637838 142.350598,24.6064865 C142.350598,25.2843243 142.772821,25.7935135 143.604274,26.1145946 C144.773658,26.5148912 145.973989,26.8186147 147.193162,27.0227027 C149.003203,27.3393993 150.786137,27.7947994 152.526154,28.3848649 C153.938619,28.8863401 155.205753,29.7272954 156.215726,30.8335135 C157.238803,31.9427027 157.755214,33.4832432 157.755214,35.4162162 C157.769159,37.0572608 157.272048,38.662075 156.33265,40.0086486 C155.384274,41.3772973 153.94547,42.48 152.051966,43.2908108 C150.158462,44.1016216 147.777778,44.5265244 145.043077,44.5265244 Z" id="Path" fill="#09114A"></path>
                <path d="M174.225128,44.5264865 C171.470343,44.5661986 168.747225,43.9361977 166.290598,42.6908108 C161.610226,40.3253278 158.698681,35.4935171 158.797778,30.2562162 C158.704962,25.0247205 161.615572,20.2007607 166.290598,17.8378378 C171.311578,15.3870663 177.184148,15.3870663 182.205128,17.8378378 C186.868565,20.2100818 189.76841,25.0308269 189.675214,30.2562162 C189.770384,35.4924673 186.859997,40.3223548 182.182393,42.6908108 C179.718758,43.939299 176.987522,44.5693728 174.225128,44.5264865 L174.225128,44.5264865 Z M174.225128,23.027027 C173.061586,23.0129355 171.916972,23.3216988 170.918803,23.9189189 C169.917056,24.5327563 169.102721,25.4087448 168.564103,26.4518919 C167.966243,27.6295283 167.668392,28.9362027 167.696923,30.2562162 C167.670396,31.5739506 167.968166,32.8780459 168.564103,34.0540541 C169.101904,35.0958799 169.915128,35.9707591 170.915556,36.5837838 C172.957675,37.7775708 175.486086,37.7775708 177.528205,36.5837838 C178.528739,35.9708883 179.341994,35.0959758 179.879658,34.0540541 C180.477153,32.8751255 180.774968,31.567497 180.746838,30.2464865 C180.775368,28.926473 180.477518,27.6197986 179.879658,26.4421622 C179.342066,25.3993365 178.528862,24.5233568 177.528205,23.9091892 C176.530116,23.3156399 175.386681,23.0102596 174.225128,23.027027 L174.225128,23.027027 Z" id="Shape" fill="#09114A"></path>
                <path d="M0.669052601,25.8389189 C0.668191525,25.6433977 0.745588568,25.455634 0.884041241,25.3173783 C1.02249391,25.1791226 1.21052506,25.1018356 1.40632479,25.1025882 L5.42068376,25.1025882 C5.61845974,25.0992221 5.80934086,25.1752482 5.95042751,25.3136946 C6.09151416,25.452141 6.17094018,25.6413936 6.17094018,25.8389189 L6.17094018,43.2713514 C6.17094018,43.6779523 5.84085541,44.0075676 5.43367521,44.0075676 L1.40632479,44.0075676 C0.999144594,44.0075676 0.669052601,43.6779523 0.669052601,43.2713514 L0.669052601,25.8389189 Z" id="Path" fill="#09114A"></path>
                <path d="M0.951623932,21.5902703 C0.344686428,21.0275384 -0.000184782695,20.2378495 -0.000184782695,19.4108108 C-0.000184782695,18.5837721 0.344686428,17.7940832 0.951623932,17.2313514 C1.62693014,16.6304441 2.50974973,16.3152676 3.41350427,16.3524324 C4.31025969,16.3126086 5.189167,16.6113362 5.87538462,17.1891892 C6.49154641,17.7172295 6.83835945,18.493176 6.82051282,19.3037838 C6.84517948,20.1620147 6.49842352,20.9892635 5.86888889,21.5740541 C5.19847544,22.1847713 4.3137054,22.5064721 3.40700855,22.4691892 C2.50541656,22.5049951 1.62511463,22.189886 0.951623932,21.5902703 Z" id="Path" fill="#09114A"></path>
            </g>
        </g>
    </g>
</svg>