<?xml version="1.0" encoding="utf-8"?>
<!-- Generator: Adobe Illustrator 17.1.0, SVG Export Plug-In . SVG Version: 6.00 Build 0)  -->
<!DOCTYPE svg PUBLIC "-//W3C//DTD SVG 1.1//EN" "http://www.w3.org/Graphics/SVG/1.1/DTD/svg11.dtd">
<svg version="1.1" id="Layer_1" xmlns="http://www.w3.org/2000/svg" xmlns:xlink="http://www.w3.org/1999/xlink" x="0px" y="0px"
	 width="80px" height="16px" viewBox="0 0 80 16" enable-background="new 0 0 80 16" xml:space="preserve">
<g id="Top-menu-responsive">
	<g id="Home-full" transform="translate(-894.000000, -1230.000000)">
		<g id="Group-34" transform="translate(182.000000, 718.000000)">
			<g id="Group-12-Copy-5" transform="translate(0.000000, 124.000000)">
				<g id="Group-Copy-24" transform="translate(648.000000, 0.000000)">
					<g id="Group-6" transform="translate(0.000000, 388.000000)">
						<g id="Icon-24px" transform="translate(64.000000, 0.000000)">
							<polygon id="Shape" fill="none" points="0,0 16,0 16,16 0,16 							"/>
							<polygon id="star" fill="#CDCECF" points="12.1,14 11,9.3 14.7,6.2 9.9,5.8 8,1.3 6.1,5.8 1.3,6.2 5,9.3 3.9,14 8,11.5 
															"/>
						</g>
					</g>
				</g>
			</g>
		</g>
	</g>
</g>
<g id="Top-menu-responsive_1_">
	<g id="Home-full_1_" transform="translate(-894.000000, -1230.000000)">
		<g id="Group-34_1_" transform="translate(182.000000, 718.000000)">
			<g id="Group-12-Copy-5_1_" transform="translate(0.000000, 124.000000)">
				<g id="Group-Copy-24_1_" transform="translate(648.000000, 0.000000)">
					<g id="Group-6_1_" transform="translate(0.000000, 388.000000)">
						<g id="Icon-24px_1_" transform="translate(64.000000, 0.000000)">
							<polygon id="Shape_1_" fill="none" points="16,0 32,0 32,16 16,16 							"/>
							<polygon id="star_1_" fill="#CDCECF" points="28.1,14 27,9.3 30.7,6.2 25.9,5.8 24,1.3 22.1,5.8 17.3,6.2 21,9.3 19.9,14 
								24,11.5 							"/>
						</g>
					</g>
				</g>
			</g>
		</g>
	</g>
</g>
<g id="Top-menu-responsive_2_">
	<g id="Home-full_2_" transform="translate(-894.000000, -1230.000000)">
		<g id="Group-34_2_" transform="translate(182.000000, 718.000000)">
			<g id="Group-12-Copy-5_2_" transform="translate(0.000000, 124.000000)">
				<g id="Group-Copy-24_2_" transform="translate(648.000000, 0.000000)">
					<g id="Group-6_2_" transform="translate(0.000000, 388.000000)">
						<g id="Icon-24px_2_" transform="translate(64.000000, 0.000000)">
							<polygon id="Shape_2_" fill="none" points="32.2,0 48.2,0 48.2,16 32.2,16 							"/>
							<polygon id="star_2_" fill="#CDCECF" points="44.3,14 43.2,9.3 46.8,6.2 42,5.8 40.2,1.3 38.3,5.8 33.5,6.2 37.1,9.3 36,14 
								40.2,11.5 							"/>
						</g>
					</g>
				</g>
			</g>
		</g>
	</g>
</g>
<g id="Top-menu-responsive_3_">
	<g id="Home-full_3_" transform="translate(-894.000000, -1230.000000)">
		<g id="Group-34_3_" transform="translate(182.000000, 718.000000)">
			<g id="Group-12-Copy-5_3_" transform="translate(0.000000, 124.000000)">
				<g id="Group-Copy-24_3_" transform="translate(648.000000, 0.000000)">
					<g id="Group-6_3_" transform="translate(0.000000, 388.000000)">
						<g id="Icon-24px_3_" transform="translate(64.000000, 0.000000)">
							<polygon id="Shape_3_" fill="none" points="48.2,0 64.2,0 64.2,16 48.2,16 							"/>
							<polygon id="star_3_" fill="#CDCECF" points="60.3,14 59.2,9.3 62.8,6.2 58,5.8 56.2,1.3 54.3,5.8 49.5,6.2 53.1,9.3 52,14 
								56.2,11.5 							"/>
						</g>
					</g>
				</g>
			</g>
		</g>
	</g>
</g>
<g id="Top-menu-responsive_4_">
	<g id="Home-full_4_" transform="translate(-894.000000, -1230.000000)">
		<g id="Group-34_4_" transform="translate(182.000000, 718.000000)">
			<g id="Group-12-Copy-5_4_" transform="translate(0.000000, 124.000000)">
				<g id="Group-Copy-24_4_" transform="translate(648.000000, 0.000000)">
					<g id="Group-6_4_" transform="translate(0.000000, 388.000000)">
						<g id="Icon-24px_4_" transform="translate(64.000000, 0.000000)">
							<polygon id="Shape_4_" fill="none" points="64,0 80,0 80,16 64,16 							"/>
							<polygon id="star_4_" fill="#CDCECF" points="76.1,14 75,9.3 78.7,6.2 73.9,5.8 72,1.3 70.1,5.8 65.3,6.2 69,9.3 67.9,14 
								72,11.5 							"/>
						</g>
					</g>
				</g>
			</g>
		</g>
	</g>
</g>
<g id="Top-menu-responsive_5_">
	<g id="Home-full_5_" transform="translate(-878.000000, -1230.000000)">
		<g id="Group-34_5_" transform="translate(182.000000, 718.000000)">
			<g id="Group-12-Copy-5_5_" transform="translate(0.000000, 124.000000)">
				<g id="Group-Copy-24_5_" transform="translate(648.000000, 0.000000)">
					<g id="Group-6_5_" transform="translate(0.000000, 388.000000)">
						<g id="Icon-24px_5_" transform="translate(48.000000, 0.000000)">
							<polygon id="Shape_5_" fill="none" points="0,0 16,0 16,16 0,16 							"/>
							<polygon id="star_5_" fill="#F1C044" points="12.1,14 11,9.3 14.7,6.2 9.9,5.8 8,1.3 6.1,5.8 1.3,6.2 5,9.3 3.9,14 8,11.5 
															"/>
						</g>
					</g>
				</g>
			</g>
		</g>
	</g>
</g>
<g id="Top-menu-responsive_6_">
	<g id="Home-full_6_" transform="translate(-878.000000, -1230.000000)">
		<g id="Group-34_6_" transform="translate(182.000000, 718.000000)">
			<g id="Group-12-Copy-5_6_" transform="translate(0.000000, 124.000000)">
				<g id="Group-Copy-24_6_" transform="translate(648.000000, 0.000000)">
					<g id="Group-6_6_" transform="translate(0.000000, 388.000000)">
						<g id="Icon-24px_6_" transform="translate(48.000000, 0.000000)">
							<polygon id="Shape_6_" fill="none" points="16,0 32,0 32,16 16,16 							"/>
							<polygon id="star_6_" fill="#F1C044" points="28.1,14 27,9.3 30.7,6.2 25.9,5.8 24,1.3 22.1,5.8 17.3,6.2 21,9.3 19.9,14 
								24,11.5 							"/>
						</g>
					</g>
				</g>
			</g>
		</g>
	</g>
</g>
<g id="Top-menu-responsive_7_">
	<g id="Home-full_7_" transform="translate(-878.000000, -1230.000000)">
		<g id="Group-34_7_" transform="translate(182.000000, 718.000000)">
			<g id="Group-12-Copy-5_7_" transform="translate(0.000000, 124.000000)">
				<g id="Group-Copy-24_7_" transform="translate(648.000000, 0.000000)">
					<g id="Group-6_7_" transform="translate(0.000000, 388.000000)">
						<g id="Icon-24px_7_" transform="translate(48.000000, 0.000000)">
							<polygon id="Shape_7_" fill="none" points="32.2,0 48.2,0 48.2,16 32.2,16 							"/>
							<polygon id="star_7_" fill="#F1C044" points="44.3,14 43.2,9.3 46.8,6.2 42,5.8 40.2,1.3 38.3,5.8 33.5,6.2 37.1,9.3 36,14 
								40.2,11.5 							"/>
						</g>
					</g>
				</g>
			</g>
		</g>
	</g>
</g>
<g id="Top-menu-responsive_8_">
	<g id="Home-full_8_" transform="translate(-878.000000, -1230.000000)">
		<g id="Group-34_8_" transform="translate(182.000000, 718.000000)">
			<g id="Group-12-Copy-5_8_" transform="translate(0.000000, 124.000000)">
				<g id="Group-Copy-24_8_" transform="translate(648.000000, 0.000000)">
					<g id="Group-6_8_" transform="translate(0.000000, 388.000000)">
						<g id="Icon-24px_8_" transform="translate(48.000000, 0.000000)">
							<polygon id="Shape_8_" fill="none" points="48.2,0 64.2,0 64.2,16 48.2,16 							"/>
							<polygon id="star_8_" fill="#F1C044" points="60.3,14 59.2,9.3 62.8,6.2 58,5.8 56.2,1.3 54.3,5.8 49.5,6.2 53.1,9.3 52,14 
								56.2,11.5 							"/>
						</g>
					</g>
				</g>
			</g>
		</g>
	</g>
</g>
<g id="Top-menu-responsive_9_">
	<g id="Home-full_9_" transform="translate(-878.000000, -1230.000000)">
		<g id="Group-34_9_" transform="translate(182.000000, 718.000000)">
			<g id="Group-12-Copy-5_9_" transform="translate(0.000000, 124.000000)">
				<g id="Group-Copy-24_9_" transform="translate(648.000000, 0.000000)">
					<g id="Group-6_9_" transform="translate(0.000000, 388.000000)">
						<g id="Icon-24px_9_" transform="translate(48.000000, 0.000000)">
							<polygon id="Shape_9_" fill="none" points="64,0 80,0 80,16 64,16 							"/>
							<polygon id="star_9_" fill="#F1C044" points="76.1,14 75,9.3 78.7,6.2 73.9,5.8 72,1.3 70.1,5.8 65.3,6.2 69,9.3 67.9,14 
								72,11.5 							"/>
						</g>
					</g>
				</g>
			</g>
		</g>
	</g>
</g>
</svg>
